0
SECTION
2
HEADER
9
$INSUNITS
70
4
0
ENDSEC
0
SECTION
2
TABLES
0
TABLE
2
LTYPE
0
LTYPE
72
65
70
64
2
CONTINUOUS
3
______
73
0
40
0
0
ENDTAB
0
TABLE
2
LAYER
0
ENDTAB
0
ENDSEC
0
SECTION
2
ENTITIES
0
LINE
8
front_outsideCutPath
10
0
20
36
11
0
21
24.375
0
LINE
8
front_outsideCutPath
10
0
20
24.375
11
3
21
24.375
0
LINE
8
front_outsideCutPath
10
3
20
24.375
11
3
21
14.625
0
LINE
8
front_outsideCutPath
10
3
20
14.625
11
0
21
14.625
0
LINE
8
front_outsideCutPath
10
0
20
14.625
11
0
21
4.875
0
LINE
8
front_outsideCutPath
10
0
20
4.875
11
0
21
3
0
LINE
8
front_outsideCutPath
10
0
20
3
11
21.375
21
3
0
LINE
8
front_outsideCutPath
10
21.375
20
3
11
21.375
21
6
0
LINE
8
front_outsideCutPath
10
21.375
20
6
11
31.125
21
6
0
LINE
8
front_outsideCutPath
10
31.125
20
6
11
31.125
21
3
0
LINE
8
front_outsideCutPath
10
31.125
20
3
11
40.875
21
3
0
LINE
8
front_outsideCutPath
10
40.875
20
3
11
40.875
21
6
0
LINE
8
front_outsideCutPath
10
40.875
20
6
11
50.625
21
6
0
LINE
8
front_outsideCutPath
10
50.625
20
6
11
50.625
21
3
0
LINE
8
front_outsideCutPath
10
50.625
20
3
11
60.375
21
3
0
LINE
8
front_outsideCutPath
10
60.375
20
3
11
60.375
21
6
0
LINE
8
front_outsideCutPath
10
60.375
20
6
11
70.125
21
6
0
LINE
8
front_outsideCutPath
10
70.125
20
6
11
70.125
21
3
0
LINE
8
front_outsideCutPath
10
70.125
20
3
11
79.875
21
3
0
LINE
8
front_outsideCutPath
10
79.875
20
3
11
79.875
21
6
0
LINE
8
front_outsideCutPath
10
79.875
20
6
11
89.625
21
6
0
LINE
8
front_outsideCutPath
10
89.625
20
6
11
89.625
21
3
0
LINE
8
front_outsideCutPath
10
89.625
20
3
11
99.375
21
3
0
LINE
8
front_outsideCutPath
10
99.375
20
3
11
99.375
21
6
0
LINE
8
front_outsideCutPath
10
99.375
20
6
11
109.125
21
6
0
LINE
8
front_outsideCutPath
10
109.125
20
6
11
109.125
21
3
0
LINE
8
front_outsideCutPath
10
109.125
20
3
11
118.875
21
3
0
LINE
8
front_outsideCutPath
10
118.875
20
3
11
118.875
21
6
0
LINE
8
front_outsideCutPath
10
118.875
20
6
11
128.625
21
6
0
LINE
8
front_outsideCutPath
10
128.625
20
6
11
128.625
21
3
0
LINE
8
front_outsideCutPath
10
128.625
20
3
11
138.375
21
3
0
LINE
8
front_outsideCutPath
10
138.375
20
3
11
138.375
21
6
0
LINE
8
front_outsideCutPath
10
138.375
20
6
11
148.125
21
6
0
LINE
8
front_outsideCutPath
10
148.125
20
6
11
148.125
21
3
0
LINE
8
front_outsideCutPath
10
148.125
20
3
11
157.875
21
3
0
LINE
8
front_outsideCutPath
10
157.875
20
3
11
157.875
21
6
0
LINE
8
front_outsideCutPath
10
157.875
20
6
11
167.625
21
6
0
LINE
8
front_outsideCutPath
10
167.625
20
6
11
167.625
21
3
0
LINE
8
front_outsideCutPath
10
167.625
20
3
11
177.375
21
3
0
LINE
8
front_outsideCutPath
10
177.375
20
3
11
177.375
21
6
0
LINE
8
front_outsideCutPath
10
177.375
20
6
11
187.125
21
6
0
LINE
8
front_outsideCutPath
10
187.125
20
6
11
187.125
21
3
0
LINE
8
front_outsideCutPath
10
187.125
20
3
11
196.875
21
3
0
LINE
8
front_outsideCutPath
10
196.875
20
3
11
196.875
21
6
0
LINE
8
front_outsideCutPath
10
196.875
20
6
11
206.625
21
6
0
LINE
8
front_outsideCutPath
10
206.625
20
6
11
206.625
21
3
0
LINE
8
front_outsideCutPath
10
206.625
20
3
11
216.375
21
3
0
LINE
8
front_outsideCutPath
10
216.375
20
3
11
216.375
21
6
0
LINE
8
front_outsideCutPath
10
216.375
20
6
11
226.125
21
6
0
LINE
8
front_outsideCutPath
10
226.125
20
6
11
226.125
21
3
0
LINE
8
front_outsideCutPath
10
226.125
20
3
11
235.875
21
3
0
LINE
8
front_outsideCutPath
10
235.875
20
3
11
235.875
21
6
0
LINE
8
front_outsideCutPath
10
235.875
20
6
11
245.625
21
6
0
LINE
8
front_outsideCutPath
10
245.625
20
6
11
245.625
21
3
0
LINE
8
front_outsideCutPath
10
245.625
20
3
11
255.375
21
3
0
LINE
8
front_outsideCutPath
10
255.375
20
3
11
255.375
21
6
0
LINE
8
front_outsideCutPath
10
255.375
20
6
11
265.125
21
6
0
LINE
8
front_outsideCutPath
10
265.125
20
6
11
265.125
21
3
0
LINE
8
front_outsideCutPath
10
265.125
20
3
11
274.875
21
3
0
LINE
8
front_outsideCutPath
10
274.875
20
3
11
274.875
21
6
0
LINE
8
front_outsideCutPath
10
274.875
20
6
11
284.625
21
6
0
LINE
8
front_outsideCutPath
10
284.625
20
6
11
284.625
21
3
0
LINE
8
front_outsideCutPath
10
284.625
20
3
11
294.375
21
3
0
LINE
8
front_outsideCutPath
10
294.375
20
3
11
306
21
3
0
LINE
8
front_outsideCutPath
10
306
20
3
11
306
21
14.625
0
LINE
8
front_outsideCutPath
10
306
20
14.625
11
303
21
14.625
0
LINE
8
front_outsideCutPath
10
303
20
14.625
11
303
21
24.375
0
LINE
8
front_outsideCutPath
10
303
20
24.375
11
306
21
24.375
0
LINE
8
front_outsideCutPath
10
306
20
24.375
11
306
21
34.125
0
LINE
8
front_outsideCutPath
10
306
20
34.125
11
306
21
36
0
LINE
8
front_outsideCutPath
10
306
20
36
11
0
21
36
0
LINE
8
front_labelLayer
10
147.5327637
20
20.5393765
11
147.5327637
21
20.1236538
0
LINE
8
front_labelLayer
10
147.5327637
20
20.1236538
11
146.6336426
21
20.1236538
0
LINE
8
front_labelLayer
10
146.6336426
20
20.1236538
11
146.6336426
21
17.0073452
0
LINE
8
front_labelLayer
10
146.6336426
20
17.0073452
11
146.0986816
21
17.0073452
0
LINE
8
front_labelLayer
10
146.0986816
20
17.0073452
11
146.0986816
21
20.1236538
0
LINE
8
front_labelLayer
10
146.0986816
20
20.1236538
11
145.467041
21
20.1236538
0
LINE
8
front_labelLayer
10
145.467041
20
20.1236538
11
145.467041
21
20.3653531
0
LINE
8
front_labelLayer
10
145.467041
20
20.3653531
11
146.0986816
21
20.5587124
0
LINE
8
front_labelLayer
10
146.0986816
20
20.5587124
11
146.0986816
21
20.7552945
0
LINE
8
front_labelLayer
10
147.8937012
20
21.9444546
11
147.7551269
21
21.5158413
0
LINE
8
front_labelLayer
10
146.6336426
20
20.7681851
11
146.6336426
21
20.5393765
0
LINE
8
front_labelLayer
10
146.6336426
20
20.5393765
11
147.5327637
21
20.5393765
0
ARC
8
front_labelLayer
10
148.266683
20
20.7802198
40
2.1681446
50
167.5775706
51
180.6586971
0
ARC
8
front_labelLayer
10
147.2471541
20
21.0179164
40
1.1214253
50
141.7433863
51
168.232226
0
ARC
8
front_labelLayer
10
147.0811531
20
21.1045569
40
0.9380711
50
98.2551339
51
139.6203559
0
ARC
8
front_labelLayer
10
147.2269042
20
20.4312532
40
1.6260215
50
89.6696494
51
99.9314838
0
ARC
8
front_labelLayer
10
147.2273118
20
20.3345675
40
1.7227034
50
81.5641174
51
89.7017455
0
ARC
8
front_labelLayer
10
147.1061891
20
19.4895805
40
2.5763205
50
75.9740686
51
81.6564005
0
ARC
8
front_labelLayer
10
146.8984199
20
18.6277965
40
3.4627742
50
73.2962576
51
76.094659
0
ARC
8
front_labelLayer
10
146.9507056
20
19.0457594
40
2.597768
50
71.9613381
51
76.591809
0
ARC
8
front_labelLayer
10
147.1522487
20
19.9007273
40
1.7193703
50
76.5182861
51
83.0216912
0
ARC
8
front_labelLayer
10
147.2224468
20
20.4652582
40
1.1504931
50
83.0760368
51
89.7926024
0
ARC
8
front_labelLayer
10
147.2201382
20
20.8943225
40
0.7214502
50
89.4859145
51
103.4197939
0
ARC
8
front_labelLayer
10
147.1550945
20
21.1442123
40
0.463318
50
102.7677816
51
144.3380333
0
ARC
8
front_labelLayer
10
147.2861326
20
21.0599012
40
0.6189866
50
145.0688637
51
162.1801299
0
ARC
8
front_labelLayer
10
147.7353979
20
20.9087451
40
1.092974
50
161.8437072
51
171.784777
0
ARC
8
front_labelLayer
10
148.4682411
20
20.7986754
40
1.83403
50
171.6528561
51
178.4382669
0
ARC
8
front_labelLayer
10
149.1590019
20
20.7692127
40
2.5253595
50
178.1971868
51
180.0233146
0
LINE
8
front_labelLayer
10
150.210791
20
20.5651577
11
150.1366699
21
20.0688687
0
LINE
8
front_labelLayer
10
148.7122559
20
18.9022671
11
148.7122559
21
17.0073452
0
LINE
8
front_labelLayer
10
148.7122559
20
17.0073452
11
148.1772949
21
17.0073452
0
LINE
8
front_labelLayer
10
148.1772949
20
17.0073452
11
148.1772949
21
20.5393765
0
LINE
8
front_labelLayer
10
148.1772949
20
20.5393765
11
148.6187988
21
20.5393765
0
LINE
8
front_labelLayer
10
148.6187988
20
20.5393765
11
148.6800293
21
19.8851773
0
LINE
8
front_labelLayer
10
148.6800293
20
19.8851773
11
148.7058105
21
19.8851773
0
ARC
8
front_labelLayer
10
149.794116
20
18.1479594
40
2.4558764
50
84.9922461
51
90.1281519
0
ARC
8
front_labelLayer
10
149.8530914
20
18.8087096
40
1.7925006
50
78.4891576
51
85.026545
0
ARC
8
front_labelLayer
10
149.6241765
20
17.7675504
40
2.3576928
50
77.4453506
51
81.6360466
0
ARC
8
front_labelLayer
10
149.7269015
20
18.4756424
40
1.6421901
50
81.5883481
51
87.1917764
0
ARC
8
front_labelLayer
10
149.7492063
20
18.8624514
40
1.2547573
50
87.3436985
51
89.9659876
0
ARC
8
front_labelLayer
10
149.7440226
20
19.1902984
40
0.9269291
50
89.6335399
51
137.088076
0
ARC
8
front_labelLayer
10
149.9716265
20
18.9343753
40
1.2682933
50
135.6211109
51
138.837518
0
ARC
8
front_labelLayer
10
149.9381741
20
18.9670224
40
1.2216233
50
138.9575841
51
174.5422419
0
ARC
8
front_labelLayer
10
150.3360467
20
18.9047689
40
1.6237927
50
173.6908206
51
180.0882757
0
ARC
8
front_labelLayer
10
150.279778
20
18.9984114
40
1.8065789
50
139.4139262
51
150.6032939
0
ARC
8
front_labelLayer
10
149.9558593
20
19.2759765
40
1.3800045
50
124.2321738
51
139.416126
0
ARC
8
front_labelLayer
10
149.782661
20
19.5374173
40
1.0664291
50
89.6796794
51
124.4405632
0
ARC
8
front_labelLayer
10
151.1568341
20
18.7579557
40
2.7632971
50
349.176191
51
0.3862436
0
ARC
8
front_labelLayer
10
152.0871715
20
18.5724915
40
1.8146982
50
330.2507213
51
349.4116339
0
ARC
8
front_labelLayer
10
152.373482
20
18.4236797
40
1.4923361
50
318.1439801
51
329.7566059
0
ARC
8
front_labelLayer
10
152.425159
20
18.3822661
40
1.4262169
50
278.895919
51
317.9979003
0
ARC
8
front_labelLayer
10
152.2920137
20
19.0201761
40
2.0773037
50
269.7502549
51
279.8033239
0
ARC
8
front_labelLayer
10
152.2704181
20
18.6607522
40
1.7179058
50
253.5436774
51
270.4182676
0
ARC
8
front_labelLayer
10
152.213233
20
18.4395459
40
1.4895819
50
238.8115315
51
253.242822
0
ARC
8
front_labelLayer
10
152.1947786
20
18.402434
40
1.4482813
50
207.7947307
51
238.6757791
0
ARC
8
front_labelLayer
10
152.4596006
20
18.5646276
40
1.7582946
50
205.6561031
51
208.4462182
0
ARC
8
front_labelLayer
10
152.6635888
20
18.6496201
40
1.9790049
50
188.9102557
51
205.3171478
0
ARC
8
front_labelLayer
10
153.3510226
20
18.7660493
40
2.6761898
50
179.7744681
51
189.0932962
0
ARC
8
front_labelLayer
10
153.4524328
20
18.795397
40
2.777643
50
169.2442957
51
180.3880771
0
ARC
8
front_labelLayer
10
152.5091731
20
18.9818443
40
1.8161735
50
150.7111818
51
169.4695114
0
ARC
8
front_labelLayer
10
152.2080555
20
19.136476
40
1.4779541
50
138.175966
51
150.2286783
0
ARC
8
front_labelLayer
10
152.157958
20
19.1749203
40
1.4149933
50
99.1759252
51
137.9832783
0
ARC
8
front_labelLayer
10
152.295822
20
18.5261271
40
2.0777253
50
89.7326307
51
100.076022
0
ARC
8
front_labelLayer
10
152.3233768
20
18.8063138
40
1.7976045
50
73.522292
51
90.5692434
0
ARC
8
front_labelLayer
10
152.4287948
20
19.1893287
40
1.4004392
50
41.1445557
51
73.2133722
0
ARC
8
front_labelLayer
10
152.2275575
20
19.0163684
40
1.665784
50
13.5014387
51
41.07032
0
ARC
8
front_labelLayer
10
151.4500787
20
18.8129132
40
2.4693311
50
1.1277458
51
13.8799916
0
ARC
8
front_labelLayer
10
150.7800947
20
18.7770273
40
3.1399735
50
359.9919021
51
1.5418261
0
ARC
8
front_labelLayer
10
153.938135
20
18.7626811
40
2.7090203
50
179.7059629
51
187.9161128
0
ARC
8
front_labelLayer
10
152.9445593
20
18.6199528
40
1.7052617
50
187.763909
51
200.0976615
0
ARC
8
front_labelLayer
10
152.3971932
20
18.4193976
40
1.1223105
50
200.084578
51
216.9131636
0
ARC
8
front_labelLayer
10
152.197316
20
18.2766758
40
0.8768001
50
217.3009474
51
261.7099065
0
ARC
8
front_labelLayer
10
152.2901052
20
18.7194555
40
1.3286265
50
260.5033202
51
270.2477247
0
ARC
8
front_labelLayer
10
152.3078179
20
18.6333585
40
1.2425748
50
269.4481285
51
284.7255609
0
ARC
8
front_labelLayer
10
152.4061848
20
18.2685469
40
0.864745
50
284.5662298
51
322.633403
0
ARC
8
front_labelLayer
10
152.1761968
20
18.4347031
40
1.1483993
50
323.0089351
51
342.6390679
0
ARC
8
front_labelLayer
10
151.5183933
20
18.6496939
40
1.8404087
50
342.3615357
51
353.7538034
0
ARC
8
front_labelLayer
10
150.5478661
20
18.7666792
40
2.8179229
50
353.5363137
51
0.2013824
0
ARC
8
front_labelLayer
10
150.696599
20
18.7902084
40
2.6692073
50
359.7075352
51
7.8973066
0
ARC
8
front_labelLayer
10
151.6741295
20
18.9303484
40
1.6816988
50
7.7439827
51
20.0690528
0
ARC
8
front_labelLayer
10
152.2188485
20
19.1302409
40
1.1014621
50
20.0257029
51
37.4350096
0
ARC
8
front_labelLayer
10
152.3995874
20
19.2584901
40
0.8800264
50
37.9577463
51
80.4006383
0
ARC
8
front_labelLayer
10
152.2968805
20
18.8002209
40
1.3492349
50
79.3453612
51
90.3174804
0
ARC
8
front_labelLayer
10
152.2778623
20
18.8763461
40
1.2731413
50
89.4805629
51
103.8805125
0
ARC
8
front_labelLayer
10
152.1708858
20
19.283711
40
0.8520307
50
103.4685193
51
142.311897
0
ARC
8
front_labelLayer
10
152.3788573
20
19.1374504
40
1.1060862
50
142.9025678
51
162.3749647
0
ARC
8
front_labelLayer
10
153.0341818
20
18.9190654
40
1.7967989
50
162.0653239
51
173.1674697
0
ARC
8
front_labelLayer
10
154.0559874
20
18.7887411
40
2.826863
50
173.0086292
51
180.2464153
0
LINE
8
front_labelLayer
10
157.8098144
20
17.0073452
11
157.2748535
21
17.0073452
0
LINE
8
front_labelLayer
10
157.2748535
20
17.0073452
11
157.2748535
21
19.2922085
0
LINE
8
front_labelLayer
10
155.3928223
20
18.8603726
11
155.3928223
21
17.0073452
0
LINE
8
front_labelLayer
10
155.3928223
20
17.0073452
11
154.8578613
21
17.0073452
0
LINE
8
front_labelLayer
10
154.8578613
20
17.0073452
11
154.8578613
21
20.5393765
0
LINE
8
front_labelLayer
10
154.8578613
20
20.5393765
11
155.2929199
21
20.5393765
0
LINE
8
front_labelLayer
10
155.2929199
20
20.5393765
11
155.3799316
21
20.0559781
0
LINE
8
front_labelLayer
10
155.3799316
20
20.0559781
11
155.4057129
21
20.0559781
0
LINE
8
front_labelLayer
10
157.8098144
20
19.3115445
11
157.8098144
21
17.0073452
0
ARC
8
front_labelLayer
10
155.7626708
20
19.3008809
40
1.5122076
50
359.6714113
51
8.687679
0
ARC
8
front_labelLayer
10
156.323145
20
19.3897674
40
0.9447432
50
8.4931249
51
22.6580116
0
ARC
8
front_labelLayer
10
156.6079003
20
19.5081041
40
0.6363785
50
22.7023686
51
42.3420089
0
ARC
8
front_labelLayer
10
156.6399038
20
19.5224984
40
0.603127
50
43.3791365
51
71.5385594
0
ARC
8
front_labelLayer
10
156.5202117
20
19.1880447
40
0.9583014
50
71.0828321
51
84.3691094
0
ARC
8
front_labelLayer
10
156.4664852
20
18.731253
40
1.418187
50
84.019759
51
90.1511427
0
ARC
8
front_labelLayer
10
156.4512509
20
18.5304048
40
1.619071
50
89.5932748
51
100.3718179
0
ARC
8
front_labelLayer
10
156.336834
20
19.1307127
40
1.007983
50
100.117692
51
118.1602624
0
ARC
8
front_labelLayer
10
156.2215256
20
19.3568208
40
0.7542375
50
118.5438811
51
139.1926705
0
ARC
8
front_labelLayer
10
156.3220685
20
19.2893551
40
0.874552
50
140.1519111
51
160.3146033
0
ARC
8
front_labelLayer
10
156.9291941
20
19.0619514
40
1.5228273
50
159.9534063
51
171.3800847
0
ARC
8
front_labelLayer
10
157.9209353
20
18.9025312
40
2.5272756
50
171.1765375
51
178.3217575
0
ARC
8
front_labelLayer
10
158.8200008
20
18.8617876
40
3.4271788
50
178.0810921
51
180.0236557
0
ARC
8
front_labelLayer
10
156.3208451
20
19.4763945
40
1.0832286
50
116.9442915
51
147.6525654
0
ARC
8
front_labelLayer
10
156.4335733
20
19.2878505
40
1.3024725
50
115.807034
51
117.6066818
0
ARC
8
front_labelLayer
10
156.4912368
20
19.153413
40
1.4486205
50
94.3226703
51
115.5454438
0
ARC
8
front_labelLayer
10
156.5259072
20
18.852233
40
1.7515971
50
89.957802
51
94.7109781
0
ARC
8
front_labelLayer
10
156.5402404
20
18.4917609
40
2.112109
50
80.5584996
51
90.3538274
0
ARC
8
front_labelLayer
10
156.6722356
20
19.256317
40
1.336266
50
65.1093969
51
80.7638411
0
ARC
8
front_labelLayer
10
156.8265294
20
19.5980724
40
0.9613229
50
46.5584383
51
64.8782286
0
ARC
8
front_labelLayer
10
156.8388797
20
19.6336727
40
0.9271119
50
19.3848814
51
45.5997471
0
ARC
8
front_labelLayer
10
156.3025068
20
19.4324174
40
1.4999235
50
6.9633908
51
19.8363011
0
ARC
8
front_labelLayer
10
155.4752888
20
19.3211951
40
2.3345458
50
359.7631474
51
7.2116158
0
LINE
8
front_labelLayer
10
160.532959
20
17.4488492
11
160.532959
21
17.0395718
0
LINE
8
front_labelLayer
10
158.9474121
20
18.022482
11
158.9474121
21
20.1236538
0
LINE
8
front_labelLayer
10
158.9474121
20
20.1236538
11
158.4414551
21
20.1236538
0
LINE
8
front_labelLayer
10
158.4414551
20
20.1236538
11
158.4414551
21
20.3814663
0
LINE
8
front_labelLayer
10
158.4414551
20
20.3814663
11
158.9474121
21
20.6038296
0
LINE
8
front_labelLayer
10
158.9474121
20
20.6038296
11
159.172998
21
21.3579312
0
LINE
8
front_labelLayer
10
159.172998
20
21.3579312
11
159.482373
21
21.3579312
0
LINE
8
front_labelLayer
10
159.482373
20
21.3579312
11
159.482373
21
20.5393765
0
LINE
8
front_labelLayer
10
159.482373
20
20.5393765
11
160.5071777
21
20.5393765
0
LINE
8
front_labelLayer
10
160.5071777
20
20.5393765
11
160.5071777
21
20.1236538
0
LINE
8
front_labelLayer
10
160.5071777
20
20.1236538
11
159.482373
21
20.1236538
0
LINE
8
front_labelLayer
10
159.482373
20
20.1236538
11
159.482373
21
18.0450406
0
ARC
8
front_labelLayer
10
160.0532305
20
19.1412674
40
1.7568752
50
269.8803126
51
278.3028368
0
ARC
8
front_labelLayer
10
160.0705339
20
19.0008221
40
1.6154063
50
278.4148831
51
279.0088774
0
ARC
8
front_labelLayer
10
159.8727763
20
20.2642314
40
2.8941978
50
278.9590675
51
280.5103648
0
ARC
8
front_labelLayer
10
160.0607545
20
19.2556279
40
1.8682271
50
280.4845579
51
282.6269651
0
ARC
8
front_labelLayer
10
160.2254394
20
18.5239936
40
1.1182878
50
282.5877834
51
285.579438
0
ARC
8
front_labelLayer
10
160.3074745
20
18.222192
40
0.8055449
50
285.7241889
51
286.255164
0
ARC
8
front_labelLayer
10
160.3080562
20
17.5152512
40
0.5261674
50
287.9886221
51
295.3049411
0
ARC
8
front_labelLayer
10
160.1811319
20
17.8992513
40
0.930597
50
283.3069561
51
288.1197571
0
ARC
8
front_labelLayer
10
160.0470742
20
18.4584316
40
1.5056207
50
280.0070158
51
283.3736664
0
ARC
8
front_labelLayer
10
159.9574759
20
18.9446006
40
1.9999661
50
279.1862149
51
280.1145702
0
ARC
8
front_labelLayer
10
159.9022875
20
19.2585509
40
2.3187044
50
275.5261239
51
279.2939608
0
ARC
8
front_labelLayer
10
159.9643413
20
18.6104499
40
1.6676398
50
270.8933662
51
275.5483347
0
ARC
8
front_labelLayer
10
159.9721413
20
18.3141316
40
1.3712395
50
270.0031557
51
270.7605367
0
ARC
8
front_labelLayer
10
159.9506294
20
18.3399634
40
1.397238
50
253.7847785
51
270.8852572
0
ARC
8
front_labelLayer
10
159.7850941
20
17.7754252
40
0.8089334
50
190.3817653
51
253.8772199
0
ARC
8
front_labelLayer
10
160.6288219
20
18.0035549
40
1.6815162
50
179.3550663
51
192.847771
0
ARC
8
front_labelLayer
10
160.5595808
20
18.0383022
40
1.0772288
50
179.6415986
51
189.7505809
0
ARC
8
front_labelLayer
10
160.1792994
20
17.9704741
40
0.6909577
50
189.5479184
51
205.7873815
0
ARC
8
front_labelLayer
10
160.023021
20
17.8984093
40
0.5189011
50
206.1294504
51
221.4083942
0
ARC
8
front_labelLayer
10
160.0054979
20
17.8851133
40
0.4969668
50
221.5949395
51
262.3504734
0
ARC
8
front_labelLayer
10
160.0471718
20
18.0994151
40
0.715023
50
261.3266036
51
270.1914099
0
LINE
8
left_outsideCutPath
10
312
20
36
11
312
21
24.375
0
LINE
8
left_outsideCutPath
10
312
20
24.375
11
309
21
24.375
0
LINE
8
left_outsideCutPath
10
309
20
24.375
11
309
21
14.625
0
LINE
8
left_outsideCutPath
10
309
20
14.625
11
312
21
14.625
0
LINE
8
left_outsideCutPath
10
312
20
14.625
11
312
21
4.875
0
LINE
8
left_outsideCutPath
10
312
20
4.875
11
312
21
3
0
LINE
8
left_outsideCutPath
10
312
20
3
11
318.375
21
3
0
LINE
8
left_outsideCutPath
10
318.375
20
3
11
318.375
21
6
0
LINE
8
left_outsideCutPath
10
318.375
20
6
11
328.125
21
6
0
LINE
8
left_outsideCutPath
10
328.125
20
6
11
328.125
21
3
0
LINE
8
left_outsideCutPath
10
328.125
20
3
11
337.875
21
3
0
LINE
8
left_outsideCutPath
10
337.875
20
3
11
337.875
21
6
0
LINE
8
left_outsideCutPath
10
337.875
20
6
11
347.625
21
6
0
LINE
8
left_outsideCutPath
10
347.625
20
6
11
347.625
21
3
0
LINE
8
left_outsideCutPath
10
347.625
20
3
11
357.375
21
3
0
LINE
8
left_outsideCutPath
10
357.375
20
3
11
357.375
21
6
0
LINE
8
left_outsideCutPath
10
357.375
20
6
11
367.125
21
6
0
LINE
8
left_outsideCutPath
10
367.125
20
6
11
367.125
21
3
0
LINE
8
left_outsideCutPath
10
367.125
20
3
11
376.875
21
3
0
LINE
8
left_outsideCutPath
10
376.875
20
3
11
376.875
21
6
0
LINE
8
left_outsideCutPath
10
376.875
20
6
11
386.625
21
6
0
LINE
8
left_outsideCutPath
10
386.625
20
6
11
386.625
21
3
0
LINE
8
left_outsideCutPath
10
386.625
20
3
11
396.375
21
3
0
LINE
8
left_outsideCutPath
10
396.375
20
3
11
396.375
21
6
0
LINE
8
left_outsideCutPath
10
396.375
20
6
11
406.125
21
6
0
LINE
8
left_outsideCutPath
10
406.125
20
6
11
406.125
21
3
0
LINE
8
left_outsideCutPath
10
406.125
20
3
11
415.875
21
3
0
LINE
8
left_outsideCutPath
10
415.875
20
3
11
415.875
21
6
0
LINE
8
left_outsideCutPath
10
415.875
20
6
11
425.625
21
6
0
LINE
8
left_outsideCutPath
10
425.625
20
6
11
425.625
21
3
0
LINE
8
left_outsideCutPath
10
425.625
20
3
11
432
21
3
0
LINE
8
left_outsideCutPath
10
432
20
3
11
432
21
14.625
0
LINE
8
left_outsideCutPath
10
432
20
14.625
11
435
21
14.625
0
LINE
8
left_outsideCutPath
10
435
20
14.625
11
435
21
24.375
0
LINE
8
left_outsideCutPath
10
435
20
24.375
11
432
21
24.375
0
LINE
8
left_outsideCutPath
10
432
20
24.375
11
432
21
34.125
0
LINE
8
left_outsideCutPath
10
432
20
34.125
11
432
21
36
0
LINE
8
left_outsideCutPath
10
432
20
36
11
312
21
36
0
LINE
8
left_labelLayer
10
367.9185059
20
22.0217984
11
367.9185059
21
17.0073452
0
LINE
8
left_labelLayer
10
367.9185059
20
17.0073452
11
367.3835449
21
17.0073452
0
LINE
8
left_labelLayer
10
367.3835449
20
17.0073452
11
367.3835449
21
22.0217984
0
LINE
8
left_labelLayer
10
367.3835449
20
22.0217984
11
367.9185059
21
22.0217984
0
LINE
8
left_labelLayer
10
371.8437012
20
19.0150601
11
371.8437012
21
18.6766812
0
LINE
8
left_labelLayer
10
371.8437012
20
18.6766812
11
369.4105957
21
18.6766812
0
LINE
8
left_labelLayer
10
371.6922363
20
17.6486538
11
371.6922363
21
17.1717007
0
LINE
8
left_labelLayer
10
369.4234863
20
19.1117398
11
371.2700684
21
19.1117398
0
ARC
8
left_labelLayer
10
370.5273799
20
19.0216468
40
2.0788291
50
256.0087842
51
270.4848357
0
ARC
8
left_labelLayer
10
370.376001
20
18.4339639
40
1.4719895
50
223.5465948
51
256.195695
0
ARC
8
left_labelLayer
10
370.459509
20
18.4946583
40
1.5743905
50
194.0877257
51
223.0538329
0
ARC
8
left_labelLayer
10
371.2246872
20
18.7039061
40
2.3675465
50
181.3574722
51
194.4919865
0
ARC
8
left_labelLayer
10
371.9118377
20
18.7437551
40
3.055539
50
179.9887138
51
181.7992447
0
ARC
8
left_labelLayer
10
371.6653021
20
18.7632003
40
2.8090665
50
168.9539216
51
180.3843453
0
ARC
8
left_labelLayer
10
370.747878
20
18.9500035
40
1.8728633
50
149.4071219
51
169.1853682
0
ARC
8
left_labelLayer
10
370.4922641
20
19.0850578
40
1.5841559
50
140.1056021
51
148.9067206
0
ARC
8
left_labelLayer
10
370.3352254
20
19.2298404
40
1.3708508
50
92.4762722
51
140.5386357
0
ARC
8
left_labelLayer
10
370.4051993
20
18.712808
40
1.891022
50
89.9637258
51
93.9177338
0
ARC
8
left_labelLayer
10
370.4219001
20
18.9740854
40
1.6298179
50
74.2125831
51
90.5450332
0
ARC
8
left_labelLayer
10
370.5239808
20
19.3501932
40
1.2401314
50
41.2064424
51
74.0232865
0
ARC
8
left_labelLayer
10
370.3306606
20
19.1828875
40
1.4957917
50
11.5994048
51
41.14962
0
ARC
8
left_labelLayer
10
369.6664242
20
19.0296998
40
2.1773263
50
359.6147576
51
12.0336731
0
ARC
8
left_labelLayer
10
371.5573124
20
18.7195771
40
2.1471452
50
181.1447379
51
190.8006969
0
ARC
8
left_labelLayer
10
370.7998257
20
18.5701812
40
1.3750901
50
190.6006359
51
206.0274857
0
ARC
8
left_labelLayer
10
370.4646816
20
18.4117412
40
1.0044222
50
206.2950437
51
222.5557701
0
ARC
8
left_labelLayer
10
370.4349837
20
18.3961924
40
0.9720687
50
223.0645244
51
258.1401154
0
ARC
8
left_labelLayer
10
370.5532027
20
18.882972
40
1.4728366
50
257.5311791
51
270.4319654
0
ARC
8
left_labelLayer
10
370.5545236
20
20.2355799
40
2.8254196
50
270.1983873
51
292.20906
0
ARC
8
left_labelLayer
10
370.4183881
20
20.6263482
40
3.2387271
50
291.825703
51
293.1610864
0
ARC
8
left_labelLayer
10
370.4123515
20
20.1171723
40
3.2115273
50
287.9023009
51
293.4862126
0
ARC
8
left_labelLayer
10
370.6453186
20
19.3983858
40
2.4559301
50
281.993534
51
287.8851307
0
ARC
8
left_labelLayer
10
370.7017813
20
19.1954285
40
2.2457082
50
275.9053888
51
281.6604433
0
ARC
8
left_labelLayer
10
370.5887505
20
20.2503945
40
3.3067072
50
271.9119322
51
275.9727853
0
ARC
8
left_labelLayer
10
370.5474925
20
21.3009267
40
4.3580354
50
269.966845
51
271.993257
0
ARC
8
left_labelLayer
10
370.3896862
20
19.1013968
40
1.0545335
50
89.4422656
51
106.2089775
0
ARC
8
left_labelLayer
10
370.3262429
20
19.3327178
40
0.8147063
50
106.465666
51
137.9176823
0
ARC
8
left_labelLayer
10
370.5081333
20
19.1729871
40
1.0567585
50
138.0994845
51
160.5866525
0
ARC
8
left_labelLayer
10
370.9756896
20
19.0009815
40
1.5549185
50
160.3353649
51
172.5314703
0
ARC
8
left_labelLayer
10
371.4360947
20
18.9272133
40
2.0210499
50
172.154472
51
174.7614701
0
ARC
8
left_labelLayer
10
369.4471498
20
19.1220967
40
1.822948
50
359.6744787
51
8.9224584
0
ARC
8
left_labelLayer
10
370.098528
20
19.2282291
40
1.1629973
50
8.7342171
51
23.277221
0
ARC
8
left_labelLayer
10
370.4077659
20
19.35804
40
0.8276369
50
23.4821339
51
39.7072629
0
ARC
8
left_labelLayer
10
370.4837228
20
19.4148818
40
0.7329034
50
40.0822647
51
80.624341
0
ARC
8
left_labelLayer
10
370.4055363
20
19.0564845
40
1.0994101
50
79.6467851
51
90.291068
0
LINE
8
left_labelLayer
10
374.3477051
20
20.5393765
11
374.3477051
21
20.1236538
0
LINE
8
left_labelLayer
10
374.3477051
20
20.1236538
11
373.448584
21
20.1236538
0
LINE
8
left_labelLayer
10
373.448584
20
20.1236538
11
373.448584
21
17.0073452
0
LINE
8
left_labelLayer
10
373.448584
20
17.0073452
11
372.913623
21
17.0073452
0
LINE
8
left_labelLayer
10
372.913623
20
17.0073452
11
372.913623
21
20.1236538
0
LINE
8
left_labelLayer
10
372.913623
20
20.1236538
11
372.2819824
21
20.1236538
0
LINE
8
left_labelLayer
10
372.2819824
20
20.1236538
11
372.2819824
21
20.3653531
0
LINE
8
left_labelLayer
10
372.2819824
20
20.3653531
11
372.913623
21
20.5587124
0
LINE
8
left_labelLayer
10
372.913623
20
20.5587124
11
372.913623
21
20.7552945
0
LINE
8
left_labelLayer
10
374.7086426
20
21.9444546
11
374.5700684
21
21.5158413
0
LINE
8
left_labelLayer
10
373.448584
20
20.7681851
11
373.448584
21
20.5393765
0
LINE
8
left_labelLayer
10
373.448584
20
20.5393765
11
374.3477051
21
20.5393765
0
ARC
8
left_labelLayer
10
375.0816244
20
20.7802198
40
2.1681446
50
167.5775706
51
180.6586971
0
ARC
8
left_labelLayer
10
374.0620955
20
21.0179164
40
1.1214253
50
141.7433863
51
168.232226
0
ARC
8
left_labelLayer
10
373.8960945
20
21.1045569
40
0.9380711
50
98.2551339
51
139.6203559
0
ARC
8
left_labelLayer
10
374.0418456
20
20.4312532
40
1.6260215
50
89.6696494
51
99.9314838
0
ARC
8
left_labelLayer
10
374.0422532
20
20.3345675
40
1.7227034
50
81.5641174
51
89.7017455
0
ARC
8
left_labelLayer
10
373.9211305
20
19.4895805
40
2.5763205
50
75.9740686
51
81.6564005
0
ARC
8
left_labelLayer
10
373.7133613
20
18.6277965
40
3.4627742
50
73.2962576
51
76.094659
0
ARC
8
left_labelLayer
10
373.765647
20
19.0457594
40
2.597768
50
71.9613381
51
76.591809
0
ARC
8
left_labelLayer
10
373.9671901
20
19.9007273
40
1.7193703
50
76.5182861
51
83.0216912
0
ARC
8
left_labelLayer
10
374.0373882
20
20.4652582
40
1.1504931
50
83.0760368
51
89.7926024
0
ARC
8
left_labelLayer
10
374.0350796
20
20.8943225
40
0.7214502
50
89.4859145
51
103.4197939
0
ARC
8
left_labelLayer
10
373.9700359
20
21.1442123
40
0.463318
50
102.7677816
51
144.3380333
0
ARC
8
left_labelLayer
10
374.101074
20
21.0599012
40
0.6189866
50
145.0688637
51
162.1801299
0
ARC
8
left_labelLayer
10
374.5503393
20
20.9087451
40
1.092974
50
161.8437072
51
171.784777
0
ARC
8
left_labelLayer
10
375.2831825
20
20.7986754
40
1.83403
50
171.6528561
51
178.4382669
0
ARC
8
left_labelLayer
10
375.9739433
20
20.7692127
40
2.5253595
50
178.1971868
51
180.0233146
0
LINE
8
left_labelLayer
10
376.6164551
20
17.4488492
11
376.6164551
21
17.0395718
0
LINE
8
left_labelLayer
10
375.0309082
20
18.022482
11
375.0309082
21
20.1236538
0
LINE
8
left_labelLayer
10
375.0309082
20
20.1236538
11
374.5249512
21
20.1236538
0
LINE
8
left_labelLayer
10
374.5249512
20
20.1236538
11
374.5249512
21
20.3814663
0
LINE
8
left_labelLayer
10
374.5249512
20
20.3814663
11
375.0309082
21
20.6038296
0
LINE
8
left_labelLayer
10
375.0309082
20
20.6038296
11
375.2564941
21
21.3579312
0
LINE
8
left_labelLayer
10
375.2564941
20
21.3579312
11
375.5658691
21
21.3579312
0
LINE
8
left_labelLayer
10
375.5658691
20
21.3579312
11
375.5658691
21
20.5393765
0
LINE
8
left_labelLayer
10
375.5658691
20
20.5393765
11
376.5906738
21
20.5393765
0
LINE
8
left_labelLayer
10
376.5906738
20
20.5393765
11
376.5906738
21
20.1236538
0
LINE
8
left_labelLayer
10
376.5906738
20
20.1236538
11
375.5658691
21
20.1236538
0
LINE
8
left_labelLayer
10
375.5658691
20
20.1236538
11
375.5658691
21
18.0450406
0
ARC
8
left_labelLayer
10
376.1367266
20
19.1412674
40
1.7568752
50
269.8803126
51
278.3028368
0
ARC
8
left_labelLayer
10
376.15403
20
19.0008221
40
1.6154063
50
278.4148831
51
279.0088774
0
ARC
8
left_labelLayer
10
375.9562724
20
20.2642314
40
2.8941978
50
278.9590675
51
280.5103648
0
ARC
8
left_labelLayer
10
376.1442506
20
19.2556279
40
1.8682271
50
280.4845579
51
282.6269651
0
ARC
8
left_labelLayer
10
376.3089355
20
18.5239936
40
1.1182878
50
282.5877834
51
285.579438
0
ARC
8
left_labelLayer
10
376.3909706
20
18.222192
40
0.8055449
50
285.7241889
51
286.255164
0
ARC
8
left_labelLayer
10
376.3915523
20
17.5152512
40
0.5261674
50
287.9886221
51
295.3049411
0
ARC
8
left_labelLayer
10
376.264628
20
17.8992513
40
0.930597
50
283.3069561
51
288.1197571
0
ARC
8
left_labelLayer
10
376.1305703
20
18.4584316
40
1.5056207
50
280.0070158
51
283.3736664
0
ARC
8
left_labelLayer
10
376.040972
20
18.9446006
40
1.9999661
50
279.1862149
51
280.1145702
0
ARC
8
left_labelLayer
10
375.9857836
20
19.2585509
40
2.3187044
50
275.5261239
51
279.2939608
0
ARC
8
left_labelLayer
10
376.0478374
20
18.6104499
40
1.6676398
50
270.8933662
51
275.5483347
0
ARC
8
left_labelLayer
10
376.0556374
20
18.3141316
40
1.3712395
50
270.0031557
51
270.7605367
0
ARC
8
left_labelLayer
10
376.0341255
20
18.3399634
40
1.397238
50
253.7847785
51
270.8852572
0
ARC
8
left_labelLayer
10
375.8685902
20
17.7754252
40
0.8089334
50
190.3817653
51
253.8772199
0
ARC
8
left_labelLayer
10
376.712318
20
18.0035549
40
1.6815162
50
179.3550663
51
192.847771
0
ARC
8
left_labelLayer
10
376.6430769
20
18.0383022
40
1.0772288
50
179.6415986
51
189.7505809
0
ARC
8
left_labelLayer
10
376.2627955
20
17.9704741
40
0.6909577
50
189.5479184
51
205.7873815
0
ARC
8
left_labelLayer
10
376.1065171
20
17.8984093
40
0.5189011
50
206.1294504
51
221.4083942
0
ARC
8
left_labelLayer
10
376.088994
20
17.8851133
40
0.4969668
50
221.5949395
51
262.3504734
0
ARC
8
left_labelLayer
10
376.1306679
20
18.0994151
40
0.715023
50
261.3266036
51
270.1914099
0
LINE
8
back_outsideCutPath
10
0
20
72
11
0
21
60.375
0
LINE
8
back_outsideCutPath
10
0
20
60.375
11
3
21
60.375
0
LINE
8
back_outsideCutPath
10
3
20
60.375
11
3
21
50.625
0
LINE
8
back_outsideCutPath
10
3
20
50.625
11
0
21
50.625
0
LINE
8
back_outsideCutPath
10
0
20
50.625
11
0
21
40.875
0
LINE
8
back_outsideCutPath
10
0
20
40.875
11
0
21
39
0
LINE
8
back_outsideCutPath
10
0
20
39
11
21.375
21
39
0
LINE
8
back_outsideCutPath
10
21.375
20
39
11
21.375
21
42
0
LINE
8
back_outsideCutPath
10
21.375
20
42
11
31.125
21
42
0
LINE
8
back_outsideCutPath
10
31.125
20
42
11
31.125
21
39
0
LINE
8
back_outsideCutPath
10
31.125
20
39
11
40.875
21
39
0
LINE
8
back_outsideCutPath
10
40.875
20
39
11
40.875
21
42
0
LINE
8
back_outsideCutPath
10
40.875
20
42
11
50.625
21
42
0
LINE
8
back_outsideCutPath
10
50.625
20
42
11
50.625
21
39
0
LINE
8
back_outsideCutPath
10
50.625
20
39
11
60.375
21
39
0
LINE
8
back_outsideCutPath
10
60.375
20
39
11
60.375
21
42
0
LINE
8
back_outsideCutPath
10
60.375
20
42
11
70.125
21
42
0
LINE
8
back_outsideCutPath
10
70.125
20
42
11
70.125
21
39
0
LINE
8
back_outsideCutPath
10
70.125
20
39
11
79.875
21
39
0
LINE
8
back_outsideCutPath
10
79.875
20
39
11
79.875
21
42
0
LINE
8
back_outsideCutPath
10
79.875
20
42
11
89.625
21
42
0
LINE
8
back_outsideCutPath
10
89.625
20
42
11
89.625
21
39
0
LINE
8
back_outsideCutPath
10
89.625
20
39
11
99.375
21
39
0
LINE
8
back_outsideCutPath
10
99.375
20
39
11
99.375
21
42
0
LINE
8
back_outsideCutPath
10
99.375
20
42
11
109.125
21
42
0
LINE
8
back_outsideCutPath
10
109.125
20
42
11
109.125
21
39
0
LINE
8
back_outsideCutPath
10
109.125
20
39
11
118.875
21
39
0
LINE
8
back_outsideCutPath
10
118.875
20
39
11
118.875
21
42
0
LINE
8
back_outsideCutPath
10
118.875
20
42
11
128.625
21
42
0
LINE
8
back_outsideCutPath
10
128.625
20
42
11
128.625
21
39
0
LINE
8
back_outsideCutPath
10
128.625
20
39
11
138.375
21
39
0
LINE
8
back_outsideCutPath
10
138.375
20
39
11
138.375
21
42
0
LINE
8
back_outsideCutPath
10
138.375
20
42
11
148.125
21
42
0
LINE
8
back_outsideCutPath
10
148.125
20
42
11
148.125
21
39
0
LINE
8
back_outsideCutPath
10
148.125
20
39
11
157.875
21
39
0
LINE
8
back_outsideCutPath
10
157.875
20
39
11
157.875
21
42
0
LINE
8
back_outsideCutPath
10
157.875
20
42
11
167.625
21
42
0
LINE
8
back_outsideCutPath
10
167.625
20
42
11
167.625
21
39
0
LINE
8
back_outsideCutPath
10
167.625
20
39
11
177.375
21
39
0
LINE
8
back_outsideCutPath
10
177.375
20
39
11
177.375
21
42
0
LINE
8
back_outsideCutPath
10
177.375
20
42
11
187.125
21
42
0
LINE
8
back_outsideCutPath
10
187.125
20
42
11
187.125
21
39
0
LINE
8
back_outsideCutPath
10
187.125
20
39
11
196.875
21
39
0
LINE
8
back_outsideCutPath
10
196.875
20
39
11
196.875
21
42
0
LINE
8
back_outsideCutPath
10
196.875
20
42
11
206.625
21
42
0
LINE
8
back_outsideCutPath
10
206.625
20
42
11
206.625
21
39
0
LINE
8
back_outsideCutPath
10
206.625
20
39
11
216.375
21
39
0
LINE
8
back_outsideCutPath
10
216.375
20
39
11
216.375
21
42
0
LINE
8
back_outsideCutPath
10
216.375
20
42
11
226.125
21
42
0
LINE
8
back_outsideCutPath
10
226.125
20
42
11
226.125
21
39
0
LINE
8
back_outsideCutPath
10
226.125
20
39
11
235.875
21
39
0
LINE
8
back_outsideCutPath
10
235.875
20
39
11
235.875
21
42
0
LINE
8
back_outsideCutPath
10
235.875
20
42
11
245.625
21
42
0
LINE
8
back_outsideCutPath
10
245.625
20
42
11
245.625
21
39
0
LINE
8
back_outsideCutPath
10
245.625
20
39
11
255.375
21
39
0
LINE
8
back_outsideCutPath
10
255.375
20
39
11
255.375
21
42
0
LINE
8
back_outsideCutPath
10
255.375
20
42
11
265.125
21
42
0
LINE
8
back_outsideCutPath
10
265.125
20
42
11
265.125
21
39
0
LINE
8
back_outsideCutPath
10
265.125
20
39
11
274.875
21
39
0
LINE
8
back_outsideCutPath
10
274.875
20
39
11
274.875
21
42
0
LINE
8
back_outsideCutPath
10
274.875
20
42
11
284.625
21
42
0
LINE
8
back_outsideCutPath
10
284.625
20
42
11
284.625
21
39
0
LINE
8
back_outsideCutPath
10
284.625
20
39
11
294.375
21
39
0
LINE
8
back_outsideCutPath
10
294.375
20
39
11
306
21
39
0
LINE
8
back_outsideCutPath
10
306
20
39
11
306
21
50.625
0
LINE
8
back_outsideCutPath
10
306
20
50.625
11
303
21
50.625
0
LINE
8
back_outsideCutPath
10
303
20
50.625
11
303
21
60.375
0
LINE
8
back_outsideCutPath
10
303
20
60.375
11
306
21
60.375
0
LINE
8
back_outsideCutPath
10
306
20
60.375
11
306
21
70.125
0
LINE
8
back_outsideCutPath
10
306
20
70.125
11
306
21
72
0
LINE
8
back_outsideCutPath
10
306
20
72
11
0
21
72
0
LINE
8
back_labelLayer
10
146.6932617
20
53.4794309
11
146.6545898
21
53.4794309
0
LINE
8
back_labelLayer
10
146.6545898
20
53.4794309
11
146.5417969
21
53.0250364
0
LINE
8
back_labelLayer
10
146.5417969
20
53.0250364
11
146.1583008
21
53.0250364
0
LINE
8
back_labelLayer
10
146.1583008
20
53.0250364
11
146.1583008
21
58.0394895
0
LINE
8
back_labelLayer
10
146.1583008
20
58.0394895
11
146.6932617
21
58.0394895
0
LINE
8
back_labelLayer
10
146.6932617
20
58.0394895
11
146.6932617
21
56.8213255
0
LINE
8
back_labelLayer
10
146.6674805
20
56.0865598
11
146.6932617
21
56.0865598
0
ARC
8
back_labelLayer
10
147.8179042
20
54.9801339
40
1.6350203
50
74.2392967
51
90.562403
0
ARC
8
back_labelLayer
10
147.9260184
20
55.3767488
40
1.223956
50
38.563097
51
74.0670721
0
ARC
8
back_labelLayer
10
147.6477918
20
55.1604105
40
1.5763734
50
16.4709415
51
38.4075297
0
ARC
8
back_labelLayer
10
146.846262
20
54.9090762
40
2.4163111
50
5.1338441
51
16.7973039
0
ARC
8
back_labelLayer
10
145.8344566
20
54.8015923
40
3.4337152
50
359.8778965
51
5.4093972
0
ARC
8
back_labelLayer
10
146.1316007
20
54.7757706
40
3.1366179
50
350.6563142
51
0.3380116
0
ARC
8
back_labelLayer
10
147.2250964
20
54.5897797
40
2.0274426
50
335.8305663
51
350.8255175
0
ARC
8
back_labelLayer
10
147.7060853
20
54.3821773
40
1.5036366
50
321.3161497
51
335.5436112
0
ARC
8
back_labelLayer
10
147.8899744
20
54.2323364
40
1.2664393
50
274.064023
51
321.4080796
0
ARC
8
back_labelLayer
10
147.8043074
20
54.7749663
40
1.8143848
50
269.9225724
51
275.54822
0
ARC
8
back_labelLayer
10
147.7928348
20
54.583216
40
1.6226578
50
255.7755609
51
270.3185194
0
ARC
8
back_labelLayer
10
147.746529
20
54.3774787
40
1.4118614
50
245.9801397
51
255.5455489
0
ARC
8
back_labelLayer
10
147.6568382
20
54.1689034
40
1.1848426
50
215.5850347
51
245.8361643
0
ARC
8
back_labelLayer
10
135.5397875
20
56.8118964
40
11.1534782
50
358.1123138
51
0.0484376
0
ARC
8
back_labelLayer
10
138.6439255
20
56.7076769
40
8.047592
50
355.7238957
51
358.1259226
0
ARC
8
back_labelLayer
10
140.0123736
20
56.6136853
40
6.6759499
50
355.4712761
51
355.652615
0
ARC
8
back_labelLayer
10
147.6909407
20
55.3908513
40
1.2162951
50
95.1835198
51
145.1108936
0
ARC
8
back_labelLayer
10
147.7978482
20
54.7879883
40
1.8270916
50
89.8743361
51
96.8145323
0
ARC
8
back_labelLayer
10
147.713312
20
54.6638833
40
1.5032846
50
89.5731341
51
100.732429
0
ARC
8
back_labelLayer
10
147.6020278
20
55.226131
40
0.93016
50
100.4469666
51
119.6700477
0
ARC
8
back_labelLayer
10
147.4988318
20
55.4190689
40
0.7114596
50
120.140293
51
142.4249254
0
ARC
8
back_labelLayer
10
147.6695611
20
55.306126
40
0.9157609
50
143.3382689
51
161.2559944
0
ARC
8
back_labelLayer
10
148.3835043
20
55.0526522
40
1.6733243
50
160.8926394
51
171.2334621
0
ARC
8
back_labelLayer
10
149.5753351
20
54.8603793
40
2.880548
50
171.0667513
51
177.8457279
0
ARC
8
back_labelLayer
10
150.8148696
20
54.7973391
40
4.1216088
50
177.6177293
51
180.0425996
0
ARC
8
back_labelLayer
10
150.2303251
20
54.7804611
40
3.5370904
50
179.776239
51
185.7075435
0
ARC
8
back_labelLayer
10
148.8358024
20
54.6367756
40
2.1351956
50
185.5925119
51
194.2050594
0
ARC
8
back_labelLayer
10
147.9424594
20
54.4049232
40
1.2122856
50
193.9430746
51
208.0217889
0
ARC
8
back_labelLayer
10
147.5810013
20
54.2210399
40
0.8068466
50
208.5536199
51
217.5605395
0
ARC
8
back_labelLayer
10
147.5515554
20
54.208793
40
0.7760825
50
218.1690303
51
253.8047374
0
ARC
8
back_labelLayer
10
147.6955044
20
54.6526045
40
1.2425153
50
253.1382783
51
266.8483123
0
ARC
8
back_labelLayer
10
147.7358697
20
55.1286177
40
1.7200859
50
266.3775329
51
270.0510524
0
ARC
8
back_labelLayer
10
147.7488146
20
54.4749053
40
1.0664338
50
269.3868493
51
285.8631107
0
ARC
8
back_labelLayer
10
147.8280432
20
54.1885644
40
0.7693439
50
286.0162989
51
326.8497093
0
ARC
8
back_labelLayer
10
147.4456388
20
54.4418921
40
1.2280404
50
326.7105372
51
343.6662012
0
ARC
8
back_labelLayer
10
146.7298016
20
54.6606293
40
1.9765211
50
343.4171348
51
353.6369071
0
ARC
8
back_labelLayer
10
145.6485829
20
54.788921
40
3.0653069
50
353.4935196
51
0.2205442
0
ARC
8
back_labelLayer
10
145.5532976
20
54.8135149
40
3.1605954
50
359.7680506
51
6.3094948
0
ARC
8
back_labelLayer
10
146.7438107
20
54.9501303
40
1.9622858
50
6.1649135
51
16.0395953
0
ARC
8
back_labelLayer
10
147.510753
20
55.176147
40
1.1627631
50
15.7779066
51
32.0151245
0
ARC
8
back_labelLayer
10
147.7497781
20
55.3130189
40
0.8875941
50
32.7034415
51
35.5237956
0
ARC
8
back_labelLayer
10
147.8373727
20
55.3752694
40
0.7801328
50
35.5408306
51
79.8011398
0
ARC
8
back_labelLayer
10
147.7326096
20
54.9299001
40
1.2372525
50
78.6781493
51
90.3750044
0
LINE
8
back_labelLayer
10
152.7711914
20
53.0250364
11
152.3748047
21
53.0250364
0
LINE
8
back_labelLayer
10
152.3748047
20
53.0250364
11
152.268457
21
53.5277708
0
LINE
8
back_labelLayer
10
152.268457
20
53.5277708
11
152.2426758
21
53.5277708
0
LINE
8
back_labelLayer
10
151.649707
20
55.1229856
11
152.2491211
21
55.1423216
0
LINE
8
back_labelLayer
10
152.2491211
20
55.1423216
11
152.2491211
21
55.3614622
0
LINE
8
back_labelLayer
10
150.4992187
20
55.9028684
11
150.3348633
21
56.3121458
0
LINE
8
back_labelLayer
10
152.7711914
20
55.4355833
11
152.7711914
21
53.0250364
0
LINE
8
back_labelLayer
10
152.2362305
20
54.4430052
11
152.2362305
21
54.7620481
0
LINE
8
back_labelLayer
10
152.2362305
20
54.7620481
11
151.7012695
21
54.7394895
0
ARC
8
back_labelLayer
10
150.5021382
20
54.9020087
40
2.2176566
50
314.7444729
51
321.7072163
0
ARC
8
back_labelLayer
10
151.0469626
20
54.3484246
40
1.4409472
50
304.848603
51
314.8530258
0
ARC
8
back_labelLayer
10
151.3087085
20
53.975859
40
0.9856334
50
294.393197
51
304.737114
0
ARC
8
back_labelLayer
10
151.2192886
20
54.2075485
40
1.2336532
50
281.2979049
51
293.7313886
0
ARC
8
back_labelLayer
10
151.1010789
20
54.7804538
40
1.8186189
50
272.9334911
51
281.4138743
0
ARC
8
back_labelLayer
10
151.0619009
20
55.367894
40
2.4073115
50
269.9538283
51
273.1492072
0
ARC
8
back_labelLayer
10
151.0483627
20
54.6022621
40
1.6417198
50
258.6719849
51
270.4047801
0
ARC
8
back_labelLayer
10
150.934329
20
54.0567656
40
1.084461
50
238.3273514
51
258.9183331
0
ARC
8
back_labelLayer
10
150.8557511
20
53.9134043
40
0.9212315
50
227.7690323
51
237.8049422
0
ARC
8
back_labelLayer
10
150.8311611
20
53.879078
40
0.8793008
50
192.0827443
51
227.4520931
0
ARC
8
back_labelLayer
10
151.2844896
20
53.9908283
40
1.3460553
50
179.5456948
51
192.6949377
0
ARC
8
back_labelLayer
10
150.863352
20
54.0395669
40
0.9256584
50
115.4904603
51
182.356827
0
ARC
8
back_labelLayer
10
151.3269311
20
53.1892689
40
1.8934205
50
101.3568081
51
117.0798815
0
ARC
8
back_labelLayer
10
151.6992285
20
51.4494945
40
3.6725105
50
92.4696156
51
101.706503
0
ARC
8
back_labelLayer
10
151.8062576
20
49.8990886
40
5.2262423
50
91.7165348
51
92.9094952
0
ARC
8
back_labelLayer
10
150.7126056
20
55.3696862
40
1.5365375
50
359.6933325
51
8.0035696
0
ARC
8
back_labelLayer
10
151.2938468
20
55.454361
40
0.9491727
50
7.8272458
51
20.6041316
0
ARC
8
back_labelLayer
10
151.6227612
20
55.5801859
40
0.5970221
50
20.4094681
51
41.447929
0
ARC
8
back_labelLayer
10
151.6713604
20
55.6069002
40
0.5430468
50
42.7295216
51
71.0380163
0
ARC
8
back_labelLayer
10
151.5569453
20
55.2958051
40
0.8744671
50
70.571576
51
83.9928099
0
ARC
8
back_labelLayer
10
151.5022847
20
54.8517744
40
1.3218033
50
83.6507521
51
90.1752304
0
ARC
8
back_labelLayer
10
151.5118737
20
54.4319137
40
1.7417113
50
90.4484304
51
103.7665575
0
ARC
8
back_labelLayer
10
151.7166964
20
53.5681731
40
2.6293886
50
103.6226837
51
112.4319791
0
ARC
8
back_labelLayer
10
152.0677418
20
52.6818031
40
3.5826704
50
112.2121821
51
115.9641302
0
ARC
8
back_labelLayer
10
151.5055432
20
54.1411346
40
2.4665322
50
106.3568509
51
118.3349914
0
ARC
8
back_labelLayer
10
151.610629
20
53.8165004
40
2.8076371
50
104.5161887
51
106.5488712
0
ARC
8
back_labelLayer
10
151.533558
20
54.1376108
40
2.4774666
50
90.0714453
51
104.6521013
0
ARC
8
back_labelLayer
10
151.5432808
20
54.3557318
40
2.25938
50
81.5679729
51
90.3249044
0
ARC
8
back_labelLayer
10
151.6739151
20
55.2067762
40
1.3983863
50
68.2273406
51
81.7494208
0
ARC
8
back_labelLayer
10
151.8558651
20
55.659485
40
0.9104833
50
47.8683539
51
68.2933704
0
ARC
8
back_labelLayer
10
151.8853973
20
55.7184518
40
0.8471259
50
19.2331177
51
46.6741076
0
ARC
8
back_labelLayer
10
151.3934499
20
55.5354475
40
1.3719418
50
6.3379501
51
19.6815068
0
ARC
8
back_labelLayer
10
150.6662671
20
55.4428341
40
2.1049367
50
359.8026337
51
6.658374
0
ARC
8
back_labelLayer
10
151.1771269
20
54.8749394
40
1.472892
50
269.5791626
51
282.0414113
0
ARC
8
back_labelLayer
10
151.2845641
20
54.3984002
40
0.9844409
50
281.7120858
51
306.4594038
0
ARC
8
back_labelLayer
10
151.332208
20
54.3200508
40
0.8931516
50
306.9880378
51
313.855902
0
ARC
8
back_labelLayer
10
151.3265365
20
54.3184315
40
0.8959285
50
314.1891884
51
347.4270004
0
ARC
8
back_labelLayer
10
150.8777376
20
54.4308986
40
1.3585009
50
346.9177607
51
0.2824162
0
ARC
8
back_labelLayer
10
150.4959321
20
54.4430662
40
1.7402984
50
359.8198645
51
359.9979905
0
ARC
8
back_labelLayer
10
151.828515
20
50.8136335
40
3.9279177
50
91.8564304
51
96.4478886
0
ARC
8
back_labelLayer
10
151.6513824
20
52.346387
40
2.384971
50
96.3545635
51
102.9952981
0
ARC
8
back_labelLayer
10
151.410919
20
53.3680445
40
1.3354142
50
102.7994985
51
113.2433644
0
ARC
8
back_labelLayer
10
151.2126814
20
53.8421436
40
0.8215773
50
113.5885218
51
121.6807044
0
ARC
8
back_labelLayer
10
151.0749752
20
54.0518597
40
0.5708338
50
120.9734047
51
172.4179769
0
ARC
8
back_labelLayer
10
151.3441801
20
53.9980901
40
0.8449667
50
171.2123171
51
180.205743
0
ARC
8
back_labelLayer
10
151.2637088
20
53.9887382
40
0.7645162
50
179.5265225
51
192.7787372
0
ARC
8
back_labelLayer
10
151.0050903
20
53.926048
40
0.4984524
50
192.326463
51
222.0579523
0
ARC
8
back_labelLayer
10
150.9858556
20
53.9145459
40
0.476486
50
222.5804363
51
229.2545665
0
ARC
8
back_labelLayer
10
151.0508584
20
53.9982363
40
0.5823433
50
229.783655
51
254.2723776
0
ARC
8
back_labelLayer
10
151.1374373
20
54.2867548
40
0.8835432
50
253.939684
51
266.4533397
0
ARC
8
back_labelLayer
10
151.1650693
20
54.6052123
40
1.2031258
50
266.0781244
51
270.0590179
0
LINE
8
back_labelLayer
10
156.2291016
20
56.4378294
11
156.0647461
21
55.9834348
0
LINE
8
back_labelLayer
10
156.1775391
20
53.6180052
11
156.1775391
21
53.1442747
0
ARC
8
back_labelLayer
10
155.2677994
20
54.9598714
40
1.999361
50
256.4243793
51
270.4890061
0
ARC
8
back_labelLayer
10
155.1080317
20
54.3363125
40
1.355751
50
221.7976222
51
256.8020647
0
ARC
8
back_labelLayer
10
155.2627501
20
54.4506281
40
1.5473891
50
196.0166733
51
221.1349178
0
ARC
8
back_labelLayer
10
156.0403356
20
54.6882989
40
2.3604082
50
183.5913493
51
196.3539723
0
ARC
8
back_labelLayer
10
156.9113514
20
54.7650385
40
3.2345954
50
179.9388017
51
183.9815553
0
ARC
8
back_labelLayer
10
156.6284002
20
54.7874985
40
2.9517036
50
169.8978573
51
180.3689112
0
ARC
8
back_labelLayer
10
155.6008389
20
54.9775819
40
1.906744
50
153.0874741
51
170.1051546
0
ARC
8
back_labelLayer
10
155.2109693
20
55.1638736
40
1.4748131
50
138.6550119
51
152.6853569
0
ARC
8
back_labelLayer
10
155.1382015
20
55.2169028
40
1.3851769
50
101.4912725
51
138.3134175
0
ARC
8
back_labelLayer
10
155.3052568
20
54.5216381
40
2.0999367
50
89.5892097
51
102.1787773
0
ARC
8
back_labelLayer
10
155.318103
20
54.2073982
40
2.4141236
50
77.7702512
51
89.94756
0
ARC
8
back_labelLayer
10
155.2724208
20
53.955362
40
2.6701312
50
74.679662
51
77.9578787
0
ARC
8
back_labelLayer
10
155.5192105
20
54.8494383
40
1.7426223
50
70.0946729
51
74.7385484
0
ARC
8
back_labelLayer
10
155.754009
20
55.492911
40
1.0576532
50
63.503413
51
70.1862017
0
ARC
8
back_labelLayer
10
155.8700092
20
55.7353746
40
0.7889168
50
62.9240469
51
63.1869
0
ARC
8
back_labelLayer
10
155.1859381
20
53.771778
40
2.3798591
50
68.3294641
51
74.8831109
0
ARC
8
back_labelLayer
10
155.060397
20
53.3266299
40
2.8423476
50
74.780163
51
77.4497456
0
ARC
8
back_labelLayer
10
155.1922168
20
53.9453708
40
2.2097547
50
77.2998827
51
81.7345947
0
ARC
8
back_labelLayer
10
155.2883542
20
54.6152787
40
1.5329851
50
81.6910036
51
87.5079653
0
ARC
8
back_labelLayer
10
155.3069012
20
54.9618009
40
1.1859894
50
87.675242
51
89.9748447
0
ARC
8
back_labelLayer
10
155.2809027
20
54.9614639
40
1.1866227
50
88.7194206
51
112.5667674
0
ARC
8
back_labelLayer
10
155.1965847
20
55.2402405
40
0.8973062
50
114.4265738
51
161.6632891
0
ARC
8
back_labelLayer
10
156.0341959
20
54.9123902
40
1.7961622
50
160.1418377
51
175.1368068
0
ARC
8
back_labelLayer
10
157.1870822
20
54.782931
40
2.9560384
50
174.5309892
51
180.15491
0
ARC
8
back_labelLayer
10
156.8218064
20
54.761559
40
2.5907863
50
179.7041033
51
188.0743719
0
ARC
8
back_labelLayer
10
155.8886365
20
54.6250255
40
1.6476951
50
187.9315072
51
200.3885775
0
ARC
8
back_labelLayer
10
155.3840742
20
54.4381106
40
1.1096247
50
200.4183763
51
216.639213
0
ARC
8
back_labelLayer
10
155.1725387
20
54.2868903
40
0.8496563
50
216.9695309
51
261.3102971
0
ARC
8
back_labelLayer
10
155.2658901
20
54.7221142
40
1.2942599
50
260.1359846
51
270.2692704
0
ARC
8
back_labelLayer
10
155.2615814
20
55.6672582
40
2.2394138
50
270.2658617
51
286.2891406
0
ARC
8
back_labelLayer
10
155.125458
20
56.1749205
40
2.7649033
50
286.0460169
51
292.3654493
0
ARC
8
back_labelLayer
10
155.4880023
20
54.5007576
40
1.521679
50
282.0344078
51
296.945454
0
ARC
8
back_labelLayer
10
155.3315087
20
55.2060016
40
2.2440604
50
272.5980087
51
282.1878986
0
ARC
8
back_labelLayer
10
155.2866255
20
55.8944112
40
2.9338285
50
269.9655842
51
272.8642449
0
LINE
8
back_labelLayer
10
157.5181641
20
54.8329466
11
157.5439453
21
54.8329466
0
LINE
8
back_labelLayer
10
157.9661133
20
55.3485716
11
159.1069336
21
56.5570677
0
LINE
8
back_labelLayer
10
159.1069336
20
56.5570677
11
159.7417969
21
56.5570677
0
LINE
8
back_labelLayer
10
159.7417969
20
56.5570677
11
158.3109375
21
55.0520872
0
LINE
8
back_labelLayer
10
158.3109375
20
55.0520872
11
159.8416992
21
53.0250364
0
LINE
8
back_labelLayer
10
159.8416992
20
53.0250364
11
159.1939453
21
53.0250364
0
LINE
8
back_labelLayer
10
159.1939453
20
53.0250364
11
157.9467773
21
54.6943723
0
LINE
8
back_labelLayer
10
157.9467773
20
54.6943723
11
157.5439453
21
54.3463255
0
LINE
8
back_labelLayer
10
157.5439453
20
54.3463255
11
157.5439453
21
53.0250364
0
LINE
8
back_labelLayer
10
157.5439453
20
53.0250364
11
157.0154297
21
53.0250364
0
LINE
8
back_labelLayer
10
157.0154297
20
53.0250364
11
157.0154297
21
58.0394895
0
LINE
8
back_labelLayer
10
157.0154297
20
58.0394895
11
157.5439453
21
58.0394895
0
LINE
8
back_labelLayer
10
157.5439453
20
58.0394895
11
157.5439453
21
55.3807981
0
ARC
8
back_labelLayer
10
160.1284851
20
53.003511
40
3.1664934
50
142.3232299
51
144.7076884
0
ARC
8
back_labelLayer
10
161.8153457
20
51.7024024
40
5.2968411
50
140.4331137
51
142.336528
0
ARC
8
back_labelLayer
10
164.0140455
20
49.8924574
40
8.1446761
50
139.2799598
51
140.4701977
0
ARC
8
back_labelLayer
10
166.5537732
20
47.708462
40
11.4943107
50
138.3417445
51
139.2877461
0
ARC
8
back_labelLayer
10
153.9787719
20
55.3874695
40
3.5651796
50
358.2740516
51
359.8927848
0
ARC
8
back_labelLayer
10
151.2059273
20
55.4647366
40
6.3390964
50
357.5042385
51
358.3308408
0
ARC
8
back_labelLayer
10
147.0558926
20
55.6480368
40
10.4931766
50
356.6324702
51
357.4910734
0
ARC
8
back_labelLayer
10
140.1513401
20
56.0507509
40
17.4094629
50
356.0329611
51
356.6441836
0
ARC
8
back_labelLayer
10
135.0299011
20
56.3972252
40
22.5426028
50
356.0209276
51
356.0549981
0
LINE
8
right_outsideCutPath
10
312
20
72
11
312
21
60.375
0
LINE
8
right_outsideCutPath
10
312
20
60.375
11
309
21
60.375
0
LINE
8
right_outsideCutPath
10
309
20
60.375
11
309
21
50.625
0
LINE
8
right_outsideCutPath
10
309
20
50.625
11
312
21
50.625
0
LINE
8
right_outsideCutPath
10
312
20
50.625
11
312
21
40.875
0
LINE
8
right_outsideCutPath
10
312
20
40.875
11
312
21
39
0
LINE
8
right_outsideCutPath
10
312
20
39
11
318.375
21
39
0
LINE
8
right_outsideCutPath
10
318.375
20
39
11
318.375
21
42
0
LINE
8
right_outsideCutPath
10
318.375
20
42
11
328.125
21
42
0
LINE
8
right_outsideCutPath
10
328.125
20
42
11
328.125
21
39
0
LINE
8
right_outsideCutPath
10
328.125
20
39
11
337.875
21
39
0
LINE
8
right_outsideCutPath
10
337.875
20
39
11
337.875
21
42
0
LINE
8
right_outsideCutPath
10
337.875
20
42
11
347.625
21
42
0
LINE
8
right_outsideCutPath
10
347.625
20
42
11
347.625
21
39
0
LINE
8
right_outsideCutPath
10
347.625
20
39
11
357.375
21
39
0
LINE
8
right_outsideCutPath
10
357.375
20
39
11
357.375
21
42
0
LINE
8
right_outsideCutPath
10
357.375
20
42
11
367.125
21
42
0
LINE
8
right_outsideCutPath
10
367.125
20
42
11
367.125
21
39
0
LINE
8
right_outsideCutPath
10
367.125
20
39
11
376.875
21
39
0
LINE
8
right_outsideCutPath
10
376.875
20
39
11
376.875
21
42
0
LINE
8
right_outsideCutPath
10
376.875
20
42
11
386.625
21
42
0
LINE
8
right_outsideCutPath
10
386.625
20
42
11
386.625
21
39
0
LINE
8
right_outsideCutPath
10
386.625
20
39
11
396.375
21
39
0
LINE
8
right_outsideCutPath
10
396.375
20
39
11
396.375
21
42
0
LINE
8
right_outsideCutPath
10
396.375
20
42
11
406.125
21
42
0
LINE
8
right_outsideCutPath
10
406.125
20
42
11
406.125
21
39
0
LINE
8
right_outsideCutPath
10
406.125
20
39
11
415.875
21
39
0
LINE
8
right_outsideCutPath
10
415.875
20
39
11
415.875
21
42
0
LINE
8
right_outsideCutPath
10
415.875
20
42
11
425.625
21
42
0
LINE
8
right_outsideCutPath
10
425.625
20
42
11
425.625
21
39
0
LINE
8
right_outsideCutPath
10
425.625
20
39
11
432
21
39
0
LINE
8
right_outsideCutPath
10
432
20
39
11
432
21
50.625
0
LINE
8
right_outsideCutPath
10
432
20
50.625
11
435
21
50.625
0
LINE
8
right_outsideCutPath
10
435
20
50.625
11
435
21
60.375
0
LINE
8
right_outsideCutPath
10
435
20
60.375
11
432
21
60.375
0
LINE
8
right_outsideCutPath
10
432
20
60.375
11
432
21
70.125
0
LINE
8
right_outsideCutPath
10
432
20
70.125
11
432
21
72
0
LINE
8
right_outsideCutPath
10
432
20
72
11
312
21
72
0
LINE
8
right_labelLayer
10
367.2062988
20
57.3433788
11
367.1321777
21
56.8470897
0
LINE
8
right_labelLayer
10
365.7077637
20
55.6804881
11
365.7077637
21
53.7855663
0
LINE
8
right_labelLayer
10
365.7077637
20
53.7855663
11
365.1728027
21
53.7855663
0
LINE
8
right_labelLayer
10
365.1728027
20
53.7855663
11
365.1728027
21
57.3175975
0
LINE
8
right_labelLayer
10
365.1728027
20
57.3175975
11
365.6143066
21
57.3175975
0
LINE
8
right_labelLayer
10
365.6143066
20
57.3175975
11
365.6755371
21
56.6633983
0
LINE
8
right_labelLayer
10
365.6755371
20
56.6633983
11
365.7013184
21
56.6633983
0
ARC
8
right_labelLayer
10
366.7896238
20
54.9261804
40
2.4558764
50
84.9922461
51
90.1281519
0
ARC
8
right_labelLayer
10
366.8485993
20
55.5869306
40
1.7925006
50
78.4891576
51
85.026545
0
ARC
8
right_labelLayer
10
366.6196844
20
54.5457714
40
2.3576928
50
77.4453506
51
81.6360466
0
ARC
8
right_labelLayer
10
366.7224093
20
55.2538634
40
1.6421901
50
81.5883481
51
87.1917764
0
ARC
8
right_labelLayer
10
366.7447141
20
55.6406725
40
1.2547573
50
87.3436985
51
89.9659876
0
ARC
8
right_labelLayer
10
366.7395304
20
55.9685194
40
0.9269291
50
89.6335399
51
137.088076
0
ARC
8
right_labelLayer
10
366.9671343
20
55.7125963
40
1.2682933
50
135.6211109
51
138.837518
0
ARC
8
right_labelLayer
10
366.9336819
20
55.7452434
40
1.2216233
50
138.9575841
51
174.5422419
0
ARC
8
right_labelLayer
10
367.3315545
20
55.6829899
40
1.6237927
50
173.6908206
51
180.0882757
0
ARC
8
right_labelLayer
10
367.2752858
20
55.7766324
40
1.8065789
50
139.4139262
51
150.6032939
0
ARC
8
right_labelLayer
10
366.9513671
20
56.0541975
40
1.3800045
50
124.2321738
51
139.416126
0
ARC
8
right_labelLayer
10
366.7781689
20
56.3156383
40
1.0664291
50
89.6796794
51
124.4405632
0
LINE
8
right_labelLayer
10
368.4019043
20
57.3175975
11
368.4019043
21
53.7855663
0
LINE
8
right_labelLayer
10
368.4019043
20
53.7855663
11
367.8669434
21
53.7855663
0
LINE
8
right_labelLayer
10
367.8669434
20
53.7855663
11
367.8669434
21
57.3175975
0
LINE
8
right_labelLayer
10
367.8669434
20
57.3175975
11
368.4019043
21
57.3175975
0
ARC
8
right_labelLayer
10
368.4146239
20
58.2783928
40
0.5928091
50
170.8452063
51
180.354363
0
ARC
8
right_labelLayer
10
368.1926946
20
58.3155002
40
0.3678053
50
155.967885
51
171.0516521
0
ARC
8
right_labelLayer
10
368.0852092
20
58.3631851
40
0.2502174
50
133.7880479
51
155.9170801
0
ARC
8
right_labelLayer
10
368.1248923
20
58.3193138
40
0.3093535
50
92.6446002
51
133.4711169
0
ARC
8
right_labelLayer
10
368.1374274
20
58.2208177
40
0.4084008
50
89.9692634
51
93.7637958
0
ARC
8
right_labelLayer
10
368.1425306
20
58.3140636
40
0.3151929
50
46.3708741
51
90.8878665
0
ARC
8
right_labelLayer
10
368.1739009
20
58.3464497
40
0.2701063
50
17.7250698
51
46.4473392
0
ARC
8
right_labelLayer
10
368.0276164
20
58.2960754
40
0.424797
50
4.9426915
51
18.1899444
0
ARC
8
right_labelLayer
10
367.8414907
20
58.275957
40
0.6119772
50
359.8847861
51
5.3178604
0
ARC
8
right_labelLayer
10
367.8999792
20
58.2709678
40
0.5535003
50
349.8345366
51
0.3890786
0
ARC
8
right_labelLayer
10
368.1014897
20
58.2333767
40
0.3485216
50
332.6321259
51
350.070623
0
ARC
8
right_labelLayer
10
368.1799157
20
58.1946503
40
0.2610762
50
313.61539
51
332.2676719
0
ARC
8
right_labelLayer
10
368.1421189
20
58.2290664
40
0.3120868
50
269.1788748
51
314.2806708
0
ARC
8
right_labelLayer
10
368.1341009
20
58.2568106
40
0.3398175
50
250.5000651
51
270.5978256
0
ARC
8
right_labelLayer
10
368.123818
20
58.2183567
40
0.3001532
50
225.1302006
51
249.9000794
0
ARC
8
right_labelLayer
10
368.1077156
20
58.2005681
40
0.2761882
50
197.7932946
51
224.894153
0
ARC
8
right_labelLayer
10
368.2584167
20
58.252212
40
0.4354735
50
184.9926141
51
198.2040269
0
ARC
8
right_labelLayer
10
368.4534584
20
58.2734116
40
0.6316336
50
179.8807345
51
185.368632
0
LINE
8
right_labelLayer
10
371.2056152
20
57.3175975
11
372.4270019
21
57.3175975
0
LINE
8
right_labelLayer
10
372.4270019
20
57.3175975
11
372.4270019
21
56.9792186
0
LINE
8
right_labelLayer
10
372.4270019
20
56.9792186
11
371.7728027
21
56.9018749
0
LINE
8
right_labelLayer
10
370.5675293
20
54.3463084
11
371.1927246
21
54.3463084
0
LINE
8
right_labelLayer
10
371.0219238
20
53.8661327
11
370.3806152
21
53.8661327
0
ARC
8
right_labelLayer
10
371.0910642
20
56.3623566
40
0.8693948
50
29.4585042
51
38.3575911
0
ARC
8
right_labelLayer
10
370.7358152
20
56.1595594
40
1.2784501
50
23.1846182
51
29.5422667
0
ARC
8
right_labelLayer
10
370.3971091
20
56.0093443
40
1.6489483
50
21.2505959
51
23.3492132
0
ARC
8
right_labelLayer
10
370.9730225
20
56.2383888
40
1.0291887
50
6.8504381
51
20.9871682
0
ARC
8
right_labelLayer
10
370.6831504
20
56.1990856
40
1.3216871
50
359.8711413
51
7.0432252
0
ARC
8
right_labelLayer
10
370.778526
20
56.183362
40
1.2263743
50
342.5649745
51
0.5957391
0
ARC
8
right_labelLayer
10
371.0047083
20
56.1209045
40
0.9919034
50
310.6097549
51
342.0923705
0
ARC
8
right_labelLayer
10
370.8778724
20
56.2684385
40
1.1864635
50
284.931618
51
310.6222333
0
ARC
8
right_labelLayer
10
370.719156
20
56.8246069
40
1.7647768
50
272.5335114
51
285.2579564
0
ARC
8
right_labelLayer
10
370.678345
20
57.3820294
40
2.3235145
50
269.9692895
51
272.9312883
0
ARC
8
right_labelLayer
10
370.673286
20
56.7778281
40
1.7193168
50
263.4837654
51
270.1270866
0
ARC
8
right_labelLayer
10
370.6452552
20
56.5116263
40
1.4516556
50
259.4961169
51
263.3906144
0
ARC
8
right_labelLayer
10
370.8186008
20
54.2391014
40
0.9519383
50
117.393478
51
128.4095417
0
ARC
8
right_labelLayer
10
370.5735348
20
54.5431227
40
0.5614649
50
128.0881495
51
147.1400172
0
ARC
8
right_labelLayer
10
370.441509
20
54.6317232
40
0.4024993
50
147.5369886
51
180.2592158
0
ARC
8
right_labelLayer
10
370.316258
20
54.6264757
40
0.2772655
50
179.2919041
51
198.3579707
0
ARC
8
right_labelLayer
10
370.2643437
20
54.6128324
40
0.2237221
50
199.2291561
51
239.5691273
0
ARC
8
right_labelLayer
10
370.3074908
20
54.6724735
40
0.2970835
50
238.2199371
51
239.844618
0
ARC
8
right_labelLayer
10
370.3417243
20
54.742943
40
0.3752579
50
240.7301538
51
254.5027224
0
ARC
8
right_labelLayer
10
370.4441429
20
55.0958664
40
0.7427285
50
254.1635684
51
262.2123496
0
ARC
8
right_labelLayer
10
370.5252731
20
55.6625139
40
1.3151481
50
262.0555076
51
267.2082872
0
ARC
8
right_labelLayer
10
370.5644634
20
56.3813255
40
2.0350194
50
267.0918997
51
270.0863198
0
ARC
8
right_labelLayer
10
371.2044199
20
52.1565313
40
2.1898084
50
81.5744091
51
90.3060072
0
ARC
8
right_labelLayer
10
371.3245357
20
52.9398974
40
1.397303
50
68.3671351
51
81.7399316
0
ARC
8
right_labelLayer
10
371.4814203
20
53.3408356
40
0.9667701
50
52.1879546
51
68.2501181
0
ARC
8
right_labelLayer
10
371.5911943
20
53.4887488
40
0.7826253
50
8.6201543
51
51.8982426
0
ARC
8
right_labelLayer
10
371.2064553
20
53.4073424
40
1.1754412
50
359.7430105
51
9.7326079
0
ARC
8
right_labelLayer
10
371.2236847
20
53.3875113
40
1.1582916
50
340.526893
51
0.7201851
0
ARC
8
right_labelLayer
10
371.3938642
20
53.3451396
40
0.9838645
50
302.9903808
51
339.5494323
0
ARC
8
right_labelLayer
10
371.2155402
20
53.5716707
40
1.2712378
50
303.1867336
51
304.1724765
0
ARC
8
right_labelLayer
10
371.0487243
20
53.8604172
40
1.6043032
50
286.2542526
51
302.5280021
0
ARC
8
right_labelLayer
10
370.7457383
20
54.8598094
40
2.648578
50
276.4939808
51
286.495354
0
ARC
8
right_labelLayer
10
370.5566942
20
56.4401182
40
4.2401375
50
269.7544894
51
276.6169477
0
ARC
8
right_labelLayer
10
370.5244055
20
55.1972104
40
2.9972242
50
262.5634486
51
270.2699213
0
ARC
8
right_labelLayer
10
370.3776094
20
54.1091659
40
1.8993379
50
251.2102145
51
262.7063678
0
ARC
8
right_labelLayer
10
370.1660231
20
53.4881231
40
1.2432413
50
235.9668351
51
251.2228512
0
ARC
8
right_labelLayer
10
369.9417559
20
53.1681809
40
0.8526117
50
208.9036303
51
236.4231545
0
ARC
8
right_labelLayer
10
369.962343
20
53.1595503
40
0.8666397
50
182.2079795
51
207.7461834
0
ARC
8
right_labelLayer
10
370.2243155
20
53.1857234
40
1.1295401
50
179.9782491
51
183.0226794
0
ARC
8
right_labelLayer
10
369.9126311
20
53.2005027
40
0.8179816
50
138.3916153
51
181.0052373
0
ARC
8
right_labelLayer
10
369.9990108
20
53.1228728
40
0.9341172
50
113.8121401
51
138.3496135
0
ARC
8
right_labelLayer
10
370.1628603
20
52.7690558
40
1.3239865
50
102.2870422
51
114.1173148
0
ARC
8
right_labelLayer
10
370.1113791
20
54.5679331
40
0.5552229
50
216.5862363
51
245.4967817
0
ARC
8
right_labelLayer
10
370.1906647
20
54.6352159
40
0.6590236
50
215.4644968
51
217.1747162
0
ARC
8
right_labelLayer
10
370.058469
20
54.5397387
40
0.495959
50
182.1766903
51
215.3415653
0
ARC
8
right_labelLayer
10
370.176367
20
54.5523835
40
0.6143065
50
179.9836819
51
182.9375806
0
ARC
8
right_labelLayer
10
370.1737938
20
54.5577303
40
0.6117551
50
161.7225537
51
180.4843947
0
ARC
8
right_labelLayer
10
370.1065365
20
54.5760824
40
0.5421478
50
144.496354
51
161.3350171
0
ARC
8
right_labelLayer
10
370.2858398
20
54.4424501
40
0.7657366
50
132.7260304
51
144.147974
0
ARC
8
right_labelLayer
10
370.5731826
20
54.1356044
40
1.1861109
50
125.2212354
51
132.8656836
0
ARC
8
right_labelLayer
10
370.8620867
20
53.7344301
40
1.6804702
50
121.2352421
51
125.3795555
0
ARC
8
right_labelLayer
10
370.3499471
20
56.0375916
40
0.9378293
50
215.1640516
51
247.4747665
0
ARC
8
right_labelLayer
10
370.5250707
20
56.1789175
40
1.1624792
50
212.4715678
51
215.887501
0
ARC
8
right_labelLayer
10
370.4789755
20
56.1459397
40
1.1058897
50
183.0161152
51
212.3122863
0
ARC
8
right_labelLayer
10
370.721624
20
56.1729847
40
1.3497002
50
179.9758077
51
183.6206277
0
ARC
8
right_labelLayer
10
370.9174703
20
56.186608
40
1.5456016
50
166.8196205
51
180.4838994
0
ARC
8
right_labelLayer
10
370.4047269
20
56.316063
40
1.0168883
50
132.3287636
51
167.3340666
0
ARC
8
right_labelLayer
10
370.4733243
20
56.2174601
40
1.1360856
50
106.2189113
51
131.5377547
0
ARC
8
right_labelLayer
10
370.6468873
20
55.655477
40
1.7242073
50
93.6329859
51
106.5408829
0
ARC
8
right_labelLayer
10
370.703548
20
55.019304
40
2.3627479
50
89.9380287
51
94.0266969
0
ARC
8
right_labelLayer
10
370.7127227
20
55.3315156
40
2.0505458
50
82.5852572
51
90.1849513
0
ARC
8
right_labelLayer
10
370.7753786
20
55.8163052
40
1.5617241
50
74.0088891
51
82.5694655
0
ARC
8
right_labelLayer
10
370.1476293
20
53.1852905
40
0.5372786
50
179.2207557
51
200.9355873
0
ARC
8
right_labelLayer
10
370.0837385
20
53.1704968
40
0.4724056
50
202.0287055
51
236.1456723
0
ARC
8
right_labelLayer
10
370.1800639
20
53.2928126
40
0.6277567
50
235.063686
51
238.5040353
0
ARC
8
right_labelLayer
10
370.2919804
20
53.4927185
40
0.8567287
50
239.1066067
51
254.4862223
0
ARC
8
right_labelLayer
10
370.4412367
20
54.0073504
40
1.3925458
50
254.2323709
51
263.4937268
0
ARC
8
right_labelLayer
10
370.5349924
20
54.8014428
40
2.1921496
50
263.4108304
51
270.1457736
0
ARC
8
right_labelLayer
10
370.5448462
20
55.2963999
40
2.6871031
50
269.9088155
51
270.0026555
0
ARC
8
right_labelLayer
10
370.5577935
20
56.2055328
40
3.5962589
50
269.795706
51
275.3991096
0
ARC
8
right_labelLayer
10
370.6923916
20
54.8237606
40
2.2079559
50
275.2956717
51
283.3516537
0
ARC
8
right_labelLayer
10
370.9116778
20
53.9205724
40
1.2785497
50
283.1370605
51
295.8573428
0
ARC
8
right_labelLayer
10
371.0741772
20
53.5658226
40
0.888486
50
296.4046764
51
301.8009699
0
ARC
8
right_labelLayer
10
371.1378702
20
53.4780373
40
0.7803541
50
301.2230191
51
318.6238196
0
ARC
8
right_labelLayer
10
371.281554
20
53.3453108
40
0.5848217
50
319.0765565
51
1.1406734
0
ARC
8
right_labelLayer
10
371.1424973
20
53.3626877
40
0.7237852
50
359.5460257
51
10.9904362
0
ARC
8
right_labelLayer
10
371.4220659
20
53.4195505
40
0.4385106
50
10.6609838
51
30.9361226
0
ARC
8
right_labelLayer
10
371.5107131
20
53.4687463
40
0.3372005
50
31.5095354
51
58.0778091
0
ARC
8
right_labelLayer
10
371.4276322
20
53.3199866
40
0.5074587
50
58.9972385
51
73.8586304
0
ARC
8
right_labelLayer
10
371.2597048
20
52.7702427
40
1.0822494
50
73.4099976
51
81.5906403
0
ARC
8
right_labelLayer
10
371.117417
20
51.8494118
40
2.0139979
50
81.4173479
51
86.5755538
0
ARC
8
right_labelLayer
10
371.0302363
20
50.4622716
40
3.4038713
50
86.5053955
51
90.1399202
0
ARC
8
right_labelLayer
10
370.372965
20
52.636439
40
1.2297174
50
89.6435554
51
100.0209674
0
ARC
8
right_labelLayer
10
370.295674
20
53.0568904
40
0.8022367
50
99.8102948
51
116.8230045
0
ARC
8
right_labelLayer
10
370.2203813
20
53.2156692
40
0.6265829
50
117.230395
51
130.5024619
0
ARC
8
right_labelLayer
10
370.1817301
20
53.265344
40
0.5637156
50
130.7944994
51
169.0413217
0
ARC
8
right_labelLayer
10
370.4663835
20
53.1983059
40
0.8560021
50
168.2579883
51
180.382091
0
ARC
8
right_labelLayer
10
370.9446334
20
56.1784581
40
1.0442245
50
179.5617522
51
191.6529625
0
ARC
8
right_labelLayer
10
370.5815721
20
56.1000161
40
0.6728115
50
191.3555096
51
213.3660433
0
ARC
8
right_labelLayer
10
370.4943881
20
56.0496767
40
0.5723422
50
213.9574728
51
227.7970274
0
ARC
8
right_labelLayer
10
370.5702398
20
56.1416755
40
0.6914689
50
228.2620788
51
254.7341175
0
ARC
8
right_labelLayer
10
370.6671505
20
56.4738819
40
1.037487
50
254.4015659
51
267.4349481
0
ARC
8
right_labelLayer
10
370.6924363
20
56.8130408
40
1.3774746
50
267.0155895
51
270.0323003
0
ARC
8
right_labelLayer
10
370.7089619
20
56.6009039
40
1.165444
50
269.2257185
51
284.3772933
0
ARC
8
right_labelLayer
10
370.8678101
20
56.0474727
40
0.5901319
50
282.7796638
51
346.4828382
0
ARC
8
right_labelLayer
10
370.3929009
20
56.1819948
40
1.0835095
50
345.4361758
51
0.746597
0
ARC
8
right_labelLayer
10
370.3261425
20
56.2125627
40
1.1502934
50
359.1806259
51
15.0431903
0
ARC
8
right_labelLayer
10
370.8473597
20
56.3646073
40
0.6075853
50
13.953595
51
77.6673665
0
ARC
8
right_labelLayer
10
370.6978177
20
55.8287109
40
1.1634857
50
76.109516
51
90.7028777
0
ARC
8
right_labelLayer
10
370.6754329
20
55.8696429
40
1.1224957
50
89.5859326
51
101.3334415
0
ARC
8
right_labelLayer
10
370.5952147
20
56.2522438
40
0.7315993
50
101.0620176
51
121.9739367
0
ARC
8
right_labelLayer
10
370.5388402
20
56.3536581
40
0.6157465
50
122.5211152
51
134.9966859
0
ARC
8
right_labelLayer
10
370.5620531
20
56.3397506
40
0.642028
50
135.5840324
51
163.0015474
0
ARC
8
right_labelLayer
10
370.9010967
20
56.2286252
40
0.9987724
50
162.5912288
51
175.734249
0
ARC
8
right_labelLayer
10
371.3077882
20
56.188565
40
1.4073503
50
175.3394042
51
180.0863036
0
LINE
8
right_labelLayer
10
376.1040527
20
53.7855663
11
375.5690918
21
53.7855663
0
LINE
8
right_labelLayer
10
375.5690918
20
53.7855663
11
375.5690918
21
56.0704295
0
LINE
8
right_labelLayer
10
373.6870605
20
55.6321483
11
373.6870605
21
53.7855663
0
LINE
8
right_labelLayer
10
373.6870605
20
53.7855663
11
373.1520996
21
53.7855663
0
LINE
8
right_labelLayer
10
373.1520996
20
53.7855663
11
373.1520996
21
58.8000194
0
LINE
8
right_labelLayer
10
373.1520996
20
58.8000194
11
373.6870605
21
58.8000194
0
LINE
8
right_labelLayer
10
373.6870605
20
58.8000194
11
373.6870605
21
57.2821483
0
LINE
8
right_labelLayer
10
373.6612793
20
56.8277538
11
373.6935059
21
56.8277538
0
LINE
8
right_labelLayer
10
376.1040527
20
56.0897655
11
376.1040527
21
53.7855663
0
ARC
8
right_labelLayer
10
374.0569091
20
56.0791019
40
1.5122076
50
359.6714113
51
8.687679
0
ARC
8
right_labelLayer
10
374.6173833
20
56.1679884
40
0.9447432
50
8.4931249
51
22.6580116
0
ARC
8
right_labelLayer
10
374.9021386
20
56.2863251
40
0.6363785
50
22.7023686
51
42.3420089
0
ARC
8
right_labelLayer
10
374.9341421
20
56.3007194
40
0.603127
50
43.3791365
51
71.5385594
0
ARC
8
right_labelLayer
10
374.81445
20
55.9662658
40
0.9583014
50
71.0828321
51
84.3691094
0
ARC
8
right_labelLayer
10
374.7607235
20
55.509474
40
1.418187
50
84.019759
51
90.1511427
0
ARC
8
right_labelLayer
10
374.7454542
20
55.3088227
40
1.6188744
50
89.5919842
51
100.3595197
0
ARC
8
right_labelLayer
10
374.6308238
20
55.9112239
40
1.0056897
50
100.1068265
51
118.0847036
0
ARC
8
right_labelLayer
10
374.514232
20
56.140005
40
0.748974
50
118.4550636
51
139.6706344
0
ARC
8
right_labelLayer
10
374.631284
20
56.0599976
40
0.8901086
50
140.6208447
51
160.504855
0
ARC
8
right_labelLayer
10
375.2482605
20
55.8315973
40
1.5479655
50
160.1567659
51
171.5312708
0
ARC
8
right_labelLayer
10
376.2465203
20
55.6734343
40
2.5586508
50
171.3202136
51
178.340656
0
ARC
8
right_labelLayer
10
377.1397846
20
55.633526
40
3.4527245
50
178.1079135
51
180.0228625
0
ARC
8
right_labelLayer
10
368.8746164
20
57.2764119
40
4.8124476
50
357.8674535
51
0.0682962
0
ARC
8
right_labelLayer
10
370.5096886
20
57.2140301
40
3.1761867
50
354.9827818
51
357.8944284
0
ARC
8
right_labelLayer
10
371.5891702
20
57.1200237
40
2.09262
50
351.9714219
51
354.9619724
0
ARC
8
right_labelLayer
10
374.599641
20
56.260934
40
1.068815
50
119.8316285
51
147.9725533
0
ARC
8
right_labelLayer
10
374.7290681
20
56.0621022
40
1.3057521
50
116.6657442
51
120.4181974
0
ARC
8
right_labelLayer
10
374.7532271
20
55.9986403
40
1.3733238
50
96.6652701
51
116.3782326
0
ARC
8
right_labelLayer
10
374.8052943
20
55.6393944
40
1.7362139
50
89.8927288
51
96.9958735
0
ARC
8
right_labelLayer
10
374.821944
20
55.2052426
40
2.1704041
50
80.6862655
51
90.3537196
0
ARC
8
right_labelLayer
10
374.9570899
20
56.0001377
40
1.3641243
50
65.6022414
51
80.8844398
0
ARC
8
right_labelLayer
10
375.1193707
20
56.3656283
40
0.9642442
50
46.7401004
51
65.4130636
0
ARC
8
right_labelLayer
10
375.1303993
20
56.400454
40
0.9314589
50
19.2204466
51
45.766032
0
ARC
8
right_labelLayer
10
374.5933089
20
56.2013519
40
1.5041982
50
6.4733942
51
19.6467512
0
ARC
8
right_labelLayer
10
373.7907514
20
56.09806
40
2.3133162
50
359.7945624
51
6.7743633
0
LINE
8
right_labelLayer
10
378.8271973
20
54.2270702
11
378.8271973
21
53.8177928
0
LINE
8
right_labelLayer
10
377.2416504
20
54.800703
11
377.2416504
21
56.9018749
0
LINE
8
right_labelLayer
10
377.2416504
20
56.9018749
11
376.7356934
21
56.9018749
0
LINE
8
right_labelLayer
10
376.7356934
20
56.9018749
11
376.7356934
21
57.1596874
0
LINE
8
right_labelLayer
10
376.7356934
20
57.1596874
11
377.2416504
21
57.3820506
0
LINE
8
right_labelLayer
10
377.2416504
20
57.3820506
11
377.4672363
21
58.1361522
0
LINE
8
right_labelLayer
10
377.4672363
20
58.1361522
11
377.7766113
21
58.1361522
0
LINE
8
right_labelLayer
10
377.7766113
20
58.1361522
11
377.7766113
21
57.3175975
0
LINE
8
right_labelLayer
10
377.7766113
20
57.3175975
11
378.801416
21
57.3175975
0
LINE
8
right_labelLayer
10
378.801416
20
57.3175975
11
378.801416
21
56.9018749
0
LINE
8
right_labelLayer
10
378.801416
20
56.9018749
11
377.7766113
21
56.9018749
0
LINE
8
right_labelLayer
10
377.7766113
20
56.9018749
11
377.7766113
21
54.8232616
0
ARC
8
right_labelLayer
10
378.3474688
20
55.9194885
40
1.7568752
50
269.8803126
51
278.3028368
0
ARC
8
right_labelLayer
10
378.3647722
20
55.7790431
40
1.6154063
50
278.4148831
51
279.0088774
0
ARC
8
right_labelLayer
10
378.1670146
20
57.0424524
40
2.8941978
50
278.9590675
51
280.5103648
0
ARC
8
right_labelLayer
10
378.3549928
20
56.0338489
40
1.8682271
50
280.4845579
51
282.6269651
0
ARC
8
right_labelLayer
10
378.5196777
20
55.3022146
40
1.1182878
50
282.5877834
51
285.579438
0
ARC
8
right_labelLayer
10
378.6017127
20
55.0004131
40
0.8055449
50
285.7241889
51
286.255164
0
ARC
8
right_labelLayer
10
378.6022945
20
54.2934722
40
0.5261674
50
287.9886221
51
295.3049411
0
ARC
8
right_labelLayer
10
378.4753702
20
54.6774723
40
0.930597
50
283.3069561
51
288.1197571
0
ARC
8
right_labelLayer
10
378.3413125
20
55.2366526
40
1.5056207
50
280.0070158
51
283.3736664
0
ARC
8
right_labelLayer
10
378.2517141
20
55.7228216
40
1.9999661
50
279.1862149
51
280.1145702
0
ARC
8
right_labelLayer
10
378.1965258
20
56.0367719
40
2.3187044
50
275.5261239
51
279.2939608
0
ARC
8
right_labelLayer
10
378.2585796
20
55.3886709
40
1.6676398
50
270.8933662
51
275.5483347
0
ARC
8
right_labelLayer
10
378.2663796
20
55.0923527
40
1.3712395
50
270.0031557
51
270.7605367
0
ARC
8
right_labelLayer
10
378.2448677
20
55.1181844
40
1.397238
50
253.7847785
51
270.8852572
0
ARC
8
right_labelLayer
10
378.0793323
20
54.5536462
40
0.8089334
50
190.3817653
51
253.8772199
0
ARC
8
right_labelLayer
10
378.9230602
20
54.7817759
40
1.6815162
50
179.3550663
51
192.847771
0
ARC
8
right_labelLayer
10
378.8538191
20
54.8165232
40
1.0772288
50
179.6415986
51
189.7505809
0
ARC
8
right_labelLayer
10
378.4735377
20
54.7486952
40
0.6909577
50
189.5479184
51
205.7873815
0
ARC
8
right_labelLayer
10
378.3172593
20
54.6766303
40
0.5189011
50
206.1294504
51
221.4083942
0
ARC
8
right_labelLayer
10
378.2997362
20
54.6633343
40
0.4969668
50
221.5949395
51
262.3504734
0
ARC
8
right_labelLayer
10
378.3414101
20
54.8776361
40
0.715023
50
261.3266036
51
270.1914099
0
LINE
8
bottom_outsideCutPath
10
441
20
126
11
441
21
119.625
0
LINE
8
bottom_outsideCutPath
10
441
20
119.625
11
438
21
119.625
0
LINE
8
bottom_outsideCutPath
10
438
20
119.625
11
438
21
109.875
0
LINE
8
bottom_outsideCutPath
10
438
20
109.875
11
441
21
109.875
0
LINE
8
bottom_outsideCutPath
10
441
20
109.875
11
441
21
100.125
0
LINE
8
bottom_outsideCutPath
10
441
20
100.125
11
438
21
100.125
0
LINE
8
bottom_outsideCutPath
10
438
20
100.125
11
438
21
90.375
0
LINE
8
bottom_outsideCutPath
10
438
20
90.375
11
441
21
90.375
0
LINE
8
bottom_outsideCutPath
10
441
20
90.375
11
441
21
80.625
0
LINE
8
bottom_outsideCutPath
10
441
20
80.625
11
438
21
80.625
0
LINE
8
bottom_outsideCutPath
10
438
20
80.625
11
438
21
70.875
0
LINE
8
bottom_outsideCutPath
10
438
20
70.875
11
441
21
70.875
0
LINE
8
bottom_outsideCutPath
10
441
20
70.875
11
441
21
61.125
0
LINE
8
bottom_outsideCutPath
10
441
20
61.125
11
438
21
61.125
0
LINE
8
bottom_outsideCutPath
10
438
20
61.125
11
438
21
51.375
0
LINE
8
bottom_outsideCutPath
10
438
20
51.375
11
441
21
51.375
0
LINE
8
bottom_outsideCutPath
10
441
20
51.375
11
441
21
41.625
0
LINE
8
bottom_outsideCutPath
10
441
20
41.625
11
438
21
41.625
0
LINE
8
bottom_outsideCutPath
10
438
20
41.625
11
438
21
31.875
0
LINE
8
bottom_outsideCutPath
10
438
20
31.875
11
441
21
31.875
0
LINE
8
bottom_outsideCutPath
10
441
20
31.875
11
441
21
22.125
0
LINE
8
bottom_outsideCutPath
10
441
20
22.125
11
438
21
22.125
0
LINE
8
bottom_outsideCutPath
10
438
20
22.125
11
438
21
12.375
0
LINE
8
bottom_outsideCutPath
10
438
20
12.375
11
441
21
12.375
0
LINE
8
bottom_outsideCutPath
10
441
20
12.375
11
441
21
6
0
LINE
8
bottom_outsideCutPath
10
441
20
6
11
459.375
21
6
0
LINE
8
bottom_outsideCutPath
10
459.375
20
6
11
459.375
21
3
0
LINE
8
bottom_outsideCutPath
10
459.375
20
3
11
469.125
21
3
0
LINE
8
bottom_outsideCutPath
10
469.125
20
3
11
469.125
21
6
0
LINE
8
bottom_outsideCutPath
10
469.125
20
6
11
478.875
21
6
0
LINE
8
bottom_outsideCutPath
10
478.875
20
6
11
478.875
21
3
0
LINE
8
bottom_outsideCutPath
10
478.875
20
3
11
488.625
21
3
0
LINE
8
bottom_outsideCutPath
10
488.625
20
3
11
488.625
21
6
0
LINE
8
bottom_outsideCutPath
10
488.625
20
6
11
498.375
21
6
0
LINE
8
bottom_outsideCutPath
10
498.375
20
6
11
498.375
21
3
0
LINE
8
bottom_outsideCutPath
10
498.375
20
3
11
508.125
21
3
0
LINE
8
bottom_outsideCutPath
10
508.125
20
3
11
508.125
21
6
0
LINE
8
bottom_outsideCutPath
10
508.125
20
6
11
517.875
21
6
0
LINE
8
bottom_outsideCutPath
10
517.875
20
6
11
517.875
21
3
0
LINE
8
bottom_outsideCutPath
10
517.875
20
3
11
527.625
21
3
0
LINE
8
bottom_outsideCutPath
10
527.625
20
3
11
527.625
21
6
0
LINE
8
bottom_outsideCutPath
10
527.625
20
6
11
537.375
21
6
0
LINE
8
bottom_outsideCutPath
10
537.375
20
6
11
537.375
21
3
0
LINE
8
bottom_outsideCutPath
10
537.375
20
3
11
547.125
21
3
0
LINE
8
bottom_outsideCutPath
10
547.125
20
3
11
547.125
21
6
0
LINE
8
bottom_outsideCutPath
10
547.125
20
6
11
556.875
21
6
0
LINE
8
bottom_outsideCutPath
10
556.875
20
6
11
556.875
21
3
0
LINE
8
bottom_outsideCutPath
10
556.875
20
3
11
566.625
21
3
0
LINE
8
bottom_outsideCutPath
10
566.625
20
3
11
566.625
21
6
0
LINE
8
bottom_outsideCutPath
10
566.625
20
6
11
576.375
21
6
0
LINE
8
bottom_outsideCutPath
10
576.375
20
6
11
576.375
21
3
0
LINE
8
bottom_outsideCutPath
10
576.375
20
3
11
586.125
21
3
0
LINE
8
bottom_outsideCutPath
10
586.125
20
3
11
586.125
21
6
0
LINE
8
bottom_outsideCutPath
10
586.125
20
6
11
595.875
21
6
0
LINE
8
bottom_outsideCutPath
10
595.875
20
6
11
595.875
21
3
0
LINE
8
bottom_outsideCutPath
10
595.875
20
3
11
605.625
21
3
0
LINE
8
bottom_outsideCutPath
10
605.625
20
3
11
605.625
21
6
0
LINE
8
bottom_outsideCutPath
10
605.625
20
6
11
615.375
21
6
0
LINE
8
bottom_outsideCutPath
10
615.375
20
6
11
615.375
21
3
0
LINE
8
bottom_outsideCutPath
10
615.375
20
3
11
625.125
21
3
0
LINE
8
bottom_outsideCutPath
10
625.125
20
3
11
625.125
21
6
0
LINE
8
bottom_outsideCutPath
10
625.125
20
6
11
634.875
21
6
0
LINE
8
bottom_outsideCutPath
10
634.875
20
6
11
634.875
21
3
0
LINE
8
bottom_outsideCutPath
10
634.875
20
3
11
644.625
21
3
0
LINE
8
bottom_outsideCutPath
10
644.625
20
3
11
644.625
21
6
0
LINE
8
bottom_outsideCutPath
10
644.625
20
6
11
654.375
21
6
0
LINE
8
bottom_outsideCutPath
10
654.375
20
6
11
654.375
21
3
0
LINE
8
bottom_outsideCutPath
10
654.375
20
3
11
664.125
21
3
0
LINE
8
bottom_outsideCutPath
10
664.125
20
3
11
664.125
21
6
0
LINE
8
bottom_outsideCutPath
10
664.125
20
6
11
673.875
21
6
0
LINE
8
bottom_outsideCutPath
10
673.875
20
6
11
673.875
21
3
0
LINE
8
bottom_outsideCutPath
10
673.875
20
3
11
683.625
21
3
0
LINE
8
bottom_outsideCutPath
10
683.625
20
3
11
683.625
21
6
0
LINE
8
bottom_outsideCutPath
10
683.625
20
6
11
693.375
21
6
0
LINE
8
bottom_outsideCutPath
10
693.375
20
6
11
693.375
21
3
0
LINE
8
bottom_outsideCutPath
10
693.375
20
3
11
703.125
21
3
0
LINE
8
bottom_outsideCutPath
10
703.125
20
3
11
703.125
21
6
0
LINE
8
bottom_outsideCutPath
10
703.125
20
6
11
712.875
21
6
0
LINE
8
bottom_outsideCutPath
10
712.875
20
6
11
712.875
21
3
0
LINE
8
bottom_outsideCutPath
10
712.875
20
3
11
722.625
21
3
0
LINE
8
bottom_outsideCutPath
10
722.625
20
3
11
722.625
21
6
0
LINE
8
bottom_outsideCutPath
10
722.625
20
6
11
732.375
21
6
0
LINE
8
bottom_outsideCutPath
10
732.375
20
6
11
741
21
6
0
LINE
8
bottom_outsideCutPath
10
741
20
6
11
741
21
12.375
0
LINE
8
bottom_outsideCutPath
10
741
20
12.375
11
744
21
12.375
0
LINE
8
bottom_outsideCutPath
10
744
20
12.375
11
744
21
22.125
0
LINE
8
bottom_outsideCutPath
10
744
20
22.125
11
741
21
22.125
0
LINE
8
bottom_outsideCutPath
10
741
20
22.125
11
741
21
31.875
0
LINE
8
bottom_outsideCutPath
10
741
20
31.875
11
744
21
31.875
0
LINE
8
bottom_outsideCutPath
10
744
20
31.875
11
744
21
41.625
0
LINE
8
bottom_outsideCutPath
10
744
20
41.625
11
741
21
41.625
0
LINE
8
bottom_outsideCutPath
10
741
20
41.625
11
741
21
51.375
0
LINE
8
bottom_outsideCutPath
10
741
20
51.375
11
744
21
51.375
0
LINE
8
bottom_outsideCutPath
10
744
20
51.375
11
744
21
61.125
0
LINE
8
bottom_outsideCutPath
10
744
20
61.125
11
741
21
61.125
0
LINE
8
bottom_outsideCutPath
10
741
20
61.125
11
741
21
70.875
0
LINE
8
bottom_outsideCutPath
10
741
20
70.875
11
744
21
70.875
0
LINE
8
bottom_outsideCutPath
10
744
20
70.875
11
744
21
80.625
0
LINE
8
bottom_outsideCutPath
10
744
20
80.625
11
741
21
80.625
0
LINE
8
bottom_outsideCutPath
10
741
20
80.625
11
741
21
90.375
0
LINE
8
bottom_outsideCutPath
10
741
20
90.375
11
744
21
90.375
0
LINE
8
bottom_outsideCutPath
10
744
20
90.375
11
744
21
100.125
0
LINE
8
bottom_outsideCutPath
10
744
20
100.125
11
741
21
100.125
0
LINE
8
bottom_outsideCutPath
10
741
20
100.125
11
741
21
109.875
0
LINE
8
bottom_outsideCutPath
10
741
20
109.875
11
744
21
109.875
0
LINE
8
bottom_outsideCutPath
10
744
20
109.875
11
744
21
119.625
0
LINE
8
bottom_outsideCutPath
10
744
20
119.625
11
741
21
119.625
0
LINE
8
bottom_outsideCutPath
10
741
20
119.625
11
741
21
126
0
LINE
8
bottom_outsideCutPath
10
741
20
126
11
722.625
21
126
0
LINE
8
bottom_outsideCutPath
10
722.625
20
126
11
722.625
21
129
0
LINE
8
bottom_outsideCutPath
10
722.625
20
129
11
712.875
21
129
0
LINE
8
bottom_outsideCutPath
10
712.875
20
129
11
712.875
21
126
0
LINE
8
bottom_outsideCutPath
10
712.875
20
126
11
703.125
21
126
0
LINE
8
bottom_outsideCutPath
10
703.125
20
126
11
703.125
21
129
0
LINE
8
bottom_outsideCutPath
10
703.125
20
129
11
693.375
21
129
0
LINE
8
bottom_outsideCutPath
10
693.375
20
129
11
693.375
21
126
0
LINE
8
bottom_outsideCutPath
10
693.375
20
126
11
683.625
21
126
0
LINE
8
bottom_outsideCutPath
10
683.625
20
126
11
683.625
21
129
0
LINE
8
bottom_outsideCutPath
10
683.625
20
129
11
673.875
21
129
0
LINE
8
bottom_outsideCutPath
10
673.875
20
129
11
673.875
21
126
0
LINE
8
bottom_outsideCutPath
10
673.875
20
126
11
664.125
21
126
0
LINE
8
bottom_outsideCutPath
10
664.125
20
126
11
664.125
21
129
0
LINE
8
bottom_outsideCutPath
10
664.125
20
129
11
654.375
21
129
0
LINE
8
bottom_outsideCutPath
10
654.375
20
129
11
654.375
21
126
0
LINE
8
bottom_outsideCutPath
10
654.375
20
126
11
644.625
21
126
0
LINE
8
bottom_outsideCutPath
10
644.625
20
126
11
644.625
21
129
0
LINE
8
bottom_outsideCutPath
10
644.625
20
129
11
634.875
21
129
0
LINE
8
bottom_outsideCutPath
10
634.875
20
129
11
634.875
21
126
0
LINE
8
bottom_outsideCutPath
10
634.875
20
126
11
625.125
21
126
0
LINE
8
bottom_outsideCutPath
10
625.125
20
126
11
625.125
21
129
0
LINE
8
bottom_outsideCutPath
10
625.125
20
129
11
615.375
21
129
0
LINE
8
bottom_outsideCutPath
10
615.375
20
129
11
615.375
21
126
0
LINE
8
bottom_outsideCutPath
10
615.375
20
126
11
605.625
21
126
0
LINE
8
bottom_outsideCutPath
10
605.625
20
126
11
605.625
21
129
0
LINE
8
bottom_outsideCutPath
10
605.625
20
129
11
595.875
21
129
0
LINE
8
bottom_outsideCutPath
10
595.875
20
129
11
595.875
21
126
0
LINE
8
bottom_outsideCutPath
10
595.875
20
126
11
586.125
21
126
0
LINE
8
bottom_outsideCutPath
10
586.125
20
126
11
586.125
21
129
0
LINE
8
bottom_outsideCutPath
10
586.125
20
129
11
576.375
21
129
0
LINE
8
bottom_outsideCutPath
10
576.375
20
129
11
576.375
21
126
0
LINE
8
bottom_outsideCutPath
10
576.375
20
126
11
566.625
21
126
0
LINE
8
bottom_outsideCutPath
10
566.625
20
126
11
566.625
21
129
0
LINE
8
bottom_outsideCutPath
10
566.625
20
129
11
556.875
21
129
0
LINE
8
bottom_outsideCutPath
10
556.875
20
129
11
556.875
21
126
0
LINE
8
bottom_outsideCutPath
10
556.875
20
126
11
547.125
21
126
0
LINE
8
bottom_outsideCutPath
10
547.125
20
126
11
547.125
21
129
0
LINE
8
bottom_outsideCutPath
10
547.125
20
129
11
537.375
21
129
0
LINE
8
bottom_outsideCutPath
10
537.375
20
129
11
537.375
21
126
0
LINE
8
bottom_outsideCutPath
10
537.375
20
126
11
527.625
21
126
0
LINE
8
bottom_outsideCutPath
10
527.625
20
126
11
527.625
21
129
0
LINE
8
bottom_outsideCutPath
10
527.625
20
129
11
517.875
21
129
0
LINE
8
bottom_outsideCutPath
10
517.875
20
129
11
517.875
21
126
0
LINE
8
bottom_outsideCutPath
10
517.875
20
126
11
508.125
21
126
0
LINE
8
bottom_outsideCutPath
10
508.125
20
126
11
508.125
21
129
0
LINE
8
bottom_outsideCutPath
10
508.125
20
129
11
498.375
21
129
0
LINE
8
bottom_outsideCutPath
10
498.375
20
129
11
498.375
21
126
0
LINE
8
bottom_outsideCutPath
10
498.375
20
126
11
488.625
21
126
0
LINE
8
bottom_outsideCutPath
10
488.625
20
126
11
488.625
21
129
0
LINE
8
bottom_outsideCutPath
10
488.625
20
129
11
478.875
21
129
0
LINE
8
bottom_outsideCutPath
10
478.875
20
129
11
478.875
21
126
0
LINE
8
bottom_outsideCutPath
10
478.875
20
126
11
469.125
21
126
0
LINE
8
bottom_outsideCutPath
10
469.125
20
126
11
469.125
21
129
0
LINE
8
bottom_outsideCutPath
10
469.125
20
129
11
459.375
21
129
0
LINE
8
bottom_outsideCutPath
10
459.375
20
129
11
459.375
21
126
0
LINE
8
bottom_outsideCutPath
10
459.375
20
126
11
449.625
21
126
0
LINE
8
bottom_outsideCutPath
10
449.625
20
126
11
441
21
126
0
LINE
8
bottom_labelLayer
10
551.5880263
20
58.2852793
11
551.44037
21
58.2852793
0
LINE
8
bottom_labelLayer
10
551.44037
20
58.2852793
11
551.009706
21
56.5503184
0
LINE
8
bottom_labelLayer
10
551.009706
20
56.5503184
11
549.5454481
21
56.5503184
0
LINE
8
bottom_labelLayer
10
549.5454481
20
56.5503184
11
549.5454481
21
75.6964121
0
LINE
8
bottom_labelLayer
10
549.5454481
20
75.6964121
11
551.5880263
21
75.6964121
0
LINE
8
bottom_labelLayer
10
551.5880263
20
75.6964121
11
551.5880263
21
71.0452403
0
LINE
8
bottom_labelLayer
10
551.4895888
20
68.2397715
11
551.5880263
21
68.2397715
0
ARC
8
bottom_labelLayer
10
555.882114
20
64.0152136
40
6.2428274
50
74.239337
51
90.5623847
0
ARC
8
bottom_labelLayer
10
556.2949093
20
65.5295747
40
4.6732968
50
38.5631374
51
74.0670308
0
ARC
8
bottom_labelLayer
10
555.2326006
20
64.7035684
40
6.0188742
50
16.4709233
51
38.4075326
0
ARC
8
bottom_labelLayer
10
552.1722424
20
63.7439283
40
9.2258821
50
5.1338416
51
16.7973435
0
ARC
8
bottom_labelLayer
10
548.3088307
20
63.3335266
40
13.1106706
50
359.8779205
51
5.4093698
0
ARC
8
bottom_labelLayer
10
549.4435691
20
63.2349347
40
11.9761109
50
350.6562866
51
0.338038
0
ARC
8
bottom_labelLayer
10
553.6186408
20
62.5248019
40
7.7411722
50
335.8305874
51
350.8254839
0
ARC
8
bottom_labelLayer
10
555.4551767
20
61.7321254
40
5.741151
50
321.3161431
51
335.5436213
0
ARC
8
bottom_labelLayer
10
556.1572948
20
61.1600051
40
4.8354911
50
274.0640023
51
321.4081046
0
ARC
8
bottom_labelLayer
10
555.8302003
20
63.2319708
40
6.9277524
50
269.9225758
51
275.5481408
0
ARC
8
bottom_labelLayer
10
555.7863936
20
62.4997081
40
6.1955792
50
255.775532
51
270.3185455
0
ARC
8
bottom_labelLayer
10
555.6095845
20
61.7141747
40
5.3907276
50
245.980154
51
255.5455918
0
ARC
8
bottom_labelLayer
10
555.2671351
20
60.9178082
40
4.523942
50
215.5850234
51
245.8361706
0
ARC
8
bottom_labelLayer
10
509.0016406
20
71.009238
40
42.5864009
50
358.1123315
51
0.0484375
0
ARC
8
bottom_labelLayer
10
520.8538742
20
70.6113418
40
30.7274932
50
355.7238801
51
358.1258817
0
ARC
8
bottom_labelLayer
10
526.1084654
20
70.2500576
40
25.4606102
50
355.4714
51
355.6529481
0
ARC
8
bottom_labelLayer
10
555.3973453
20
65.5834306
40
4.6440348
50
95.1835118
51
145.1108965
0
ARC
8
bottom_labelLayer
10
555.80554
20
63.2815978
40
6.9761594
50
89.8743496
51
96.8145544
0
ARC
8
bottom_labelLayer
10
555.4827638
20
62.8077276
40
5.7398204
50
89.5731348
51
100.7324176
0
ARC
8
bottom_labelLayer
10
555.0578581
20
64.9545043
40
3.551513
50
100.4469484
51
119.6700675
0
ARC
8
bottom_labelLayer
10
554.6638395
20
65.6911683
40
2.7164832
50
120.1402813
51
142.4249045
0
ARC
8
bottom_labelLayer
10
555.3157054
20
65.259937
40
3.4965319
50
143.3382244
51
161.2560016
0
ARC
8
bottom_labelLayer
10
558.0417035
20
64.2921173
40
6.3890814
50
160.8926496
51
171.2334323
0
ARC
8
bottom_labelLayer
10
562.5924374
20
63.5579771
40
10.9985877
50
171.0667843
51
177.8456798
0
ARC
8
bottom_labelLayer
10
567.3251856
20
63.31727
40
15.7371638
50
177.6176649
51
180.042518
0
ARC
8
bottom_labelLayer
10
565.0933022
20
63.2528558
40
13.5053789
50
179.7762701
51
185.7075196
0
ARC
8
bottom_labelLayer
10
559.768586
20
62.7042219
40
8.1525143
50
185.5924767
51
194.2050781
0
ARC
8
bottom_labelLayer
10
556.3576634
20
61.8189674
40
4.6286984
50
193.9430385
51
208.021839
0
ARC
8
bottom_labelLayer
10
554.977586
20
61.116884
40
3.0806977
50
208.5536539
51
217.5605416
0
ARC
8
bottom_labelLayer
10
554.8651493
20
61.0701187
40
2.9632271
50
218.1690446
51
253.8047156
0
ARC
8
bottom_labelLayer
10
555.4147726
20
62.7646677
40
4.7441482
50
253.1382567
51
266.8482941
0
ARC
8
bottom_labelLayer
10
555.5688931
20
64.5822046
40
6.5676311
50
266.3775495
51
270.051052
0
ARC
8
bottom_labelLayer
10
555.6183157
20
62.0862064
40
4.0718633
50
269.3868989
51
285.8630583
0
ARC
8
bottom_labelLayer
10
555.9208296
20
60.9928774
40
2.9374924
50
286.0162897
51
326.8497353
0
ARC
8
bottom_labelLayer
10
554.4607362
20
61.9601349
40
4.6888857
50
326.7105148
51
343.6661642
0
ARC
8
bottom_labelLayer
10
551.7275311
20
62.7953102
40
7.5467275
50
343.4171535
51
353.6369111
0
ARC
8
bottom_labelLayer
10
547.5993218
20
63.285152
40
11.7038304
50
353.4934736
51
0.2205379
0
ARC
8
bottom_labelLayer
10
547.2354103
20
63.3790468
40
12.0677539
50
359.7680883
51
6.3095183
0
ARC
8
bottom_labelLayer
10
551.7811039
20
63.9006923
40
7.4922902
50
6.1648571
51
16.0396366
0
ARC
8
bottom_labelLayer
10
554.7093498
20
64.7636447
40
4.4396491
50
15.7779469
51
32.0151341
0
ARC
8
bottom_labelLayer
10
555.6225455
20
65.2866107
40
3.3883407
50
32.7033322
51
35.5242312
0
ARC
8
bottom_labelLayer
10
555.956449
20
65.5239336
40
2.9786909
50
35.5408444
51
79.8011226
0
ARC
8
bottom_labelLayer
10
555.5564406
20
63.8234166
40
4.7240733
50
78.6781351
51
90.3749457
0
ARC
8
bottom_labelLayer
10
566.0775595
20
63.2344637
40
10.5507456
50
349.1761844
51
0.3862638
0
ARC
8
bottom_labelLayer
10
569.6297407
20
62.5263284
40
6.9288384
50
330.250707
51
349.4116449
0
ARC
8
bottom_labelLayer
10
570.7229211
20
61.9581366
40
5.6980056
50
318.1439869
51
329.7566233
0
ARC
8
bottom_labelLayer
10
570.9202304
20
61.8000143
40
5.4455536
50
278.8959143
51
317.9979109
0
ARC
8
bottom_labelLayer
10
570.4118532
20
64.2356838
40
7.9315345
50
269.7502793
51
279.803334
0
ARC
8
bottom_labelLayer
10
570.3294039
20
62.8633446
40
6.5592947
50
253.5436967
51
270.41824
0
ARC
8
bottom_labelLayer
10
570.1110562
20
62.0187237
40
5.6874969
50
238.8115572
51
253.2428422
0
ARC
8
bottom_labelLayer
10
570.0405902
20
61.8770156
40
5.5297942
50
207.7947067
51
238.675796
0
ARC
8
bottom_labelLayer
10
571.0518091
20
62.4963368
40
6.7135692
50
205.6560658
51
208.4461472
0
ARC
8
bottom_labelLayer
10
571.8305935
20
62.8208195
40
7.5561953
50
188.9102401
51
205.317143
0
ARC
8
bottom_labelLayer
10
574.4553615
20
63.2653717
40
10.2181957
50
179.7744758
51
189.0932889
0
ARC
8
bottom_labelLayer
10
574.8425492
20
63.3774251
40
10.6055475
50
169.2442976
51
180.3880774
0
ARC
8
bottom_labelLayer
10
571.2409876
20
64.0893226
40
6.9344566
50
150.7111445
51
169.4695396
0
ARC
8
bottom_labelLayer
10
570.0912488
20
64.6797584
40
5.6430467
50
138.1759338
51
150.2287553
0
ARC
8
bottom_labelLayer
10
569.900009
20
64.8265123
40
5.4027039
50
99.1759345
51
137.9832726
0
ARC
8
bottom_labelLayer
10
570.4263966
20
62.34927
40
7.9331658
50
89.732627
51
100.0759748
0
ARC
8
bottom_labelLayer
10
570.5316045
20
63.4191079
40
6.8635804
50
73.522274
51
90.5692256
0
ARC
8
bottom_labelLayer
10
570.9341122
20
64.8815265
40
5.3471327
50
41.1445685
51
73.2133799
0
ARC
8
bottom_labelLayer
10
570.165758
20
64.2211365
40
6.3602596
50
13.5014326
51
41.0703446
0
ARC
8
bottom_labelLayer
10
567.1972293
20
63.444311
40
9.4283213
50
1.1277143
51
13.8800058
0
ARC
8
bottom_labelLayer
10
564.6399255
20
63.3072866
40
11.9881399
50
359.9919002
51
1.5419342
0
ARC
8
bottom_labelLayer
10
576.6970927
20
63.252511
40
10.3435776
50
179.7059702
51
187.916084
0
ARC
8
bottom_labelLayer
10
572.9033825
20
62.7075468
40
6.5109875
50
187.7639207
51
200.0976951
0
ARC
8
bottom_labelLayer
10
570.8134533
20
61.9417929
40
4.2851884
50
200.0845893
51
216.9131639
0
ARC
8
bottom_labelLayer
10
570.0502838
20
61.396854
40
3.347783
50
217.3009564
51
261.7099047
0
ARC
8
bottom_labelLayer
10
570.4045735
20
63.0874841
40
5.0729554
50
260.5033082
51
270.2476788
0
ARC
8
bottom_labelLayer
10
570.472197
20
62.7587415
40
4.7443854
50
269.4481635
51
284.7255664
0
ARC
8
bottom_labelLayer
10
570.8477825
20
61.365817
40
3.301755
50
284.5662245
51
322.6333856
0
ARC
8
bottom_labelLayer
10
569.9696484
20
62.0002305
40
4.3847961
50
323.0089185
51
342.6390582
0
ARC
8
bottom_labelLayer
10
567.4579947
20
62.8211125
40
7.0270544
50
342.3615658
51
353.7537696
0
ARC
8
bottom_labelLayer
10
563.7524513
20
63.2677703
40
10.7592745
50
353.5362991
51
0.2014096
0
ARC
8
bottom_labelLayer
10
564.3202039
20
63.3576105
40
10.1915879
50
359.7075564
51
7.8972722
0
ARC
8
bottom_labelLayer
10
568.0526428
20
63.8926908
40
6.4210517
50
7.7439888
51
20.0690211
0
ARC
8
bottom_labelLayer
10
570.1325057
20
64.6559224
40
4.205575
50
20.0257074
51
37.4350449
0
ARC
8
bottom_labelLayer
10
570.8225912
20
65.1455966
40
3.3601032
50
37.9577597
51
80.400619
0
ARC
8
bottom_labelLayer
10
570.4304388
20
63.3958446
40
5.1516231
50
79.3453589
51
90.3174802
0
ARC
8
bottom_labelLayer
10
570.3578275
20
63.6864869
40
4.8611015
50
89.4806062
51
103.880506
0
ARC
8
bottom_labelLayer
10
569.9493685
20
65.2418967
40
3.2532084
50
103.4685206
51
142.3118966
0
ARC
8
bottom_labelLayer
10
570.7434416
20
64.6834468
40
4.2232385
50
142.9025657
51
162.3749614
0
ARC
8
bottom_labelLayer
10
573.2455913
20
63.8496138
40
6.8605068
50
162.0653301
51
173.1674728
0
ARC
8
bottom_labelLayer
10
577.1470609
20
63.3520046
40
10.7935096
50
173.0086119
51
180.2463764
0
LINE
8
bottom_labelLayer
10
586.4102919
20
58.2360606
11
586.4102919
21
56.6733653
0
LINE
8
bottom_labelLayer
10
580.3563856
20
60.4262949
11
580.3563856
21
68.4489512
0
LINE
8
bottom_labelLayer
10
580.3563856
20
68.4489512
11
578.4245497
21
68.4489512
0
LINE
8
bottom_labelLayer
10
578.4245497
20
68.4489512
11
578.4245497
21
69.4333262
0
LINE
8
bottom_labelLayer
10
578.4245497
20
69.4333262
11
580.3563856
21
70.2823496
0
LINE
8
bottom_labelLayer
10
580.3563856
20
70.2823496
11
581.2177138
21
73.1616465
0
LINE
8
bottom_labelLayer
10
581.2177138
20
73.1616465
11
582.3989638
21
73.1616465
0
LINE
8
bottom_labelLayer
10
582.3989638
20
73.1616465
11
582.3989638
21
70.0362559
0
LINE
8
bottom_labelLayer
10
582.3989638
20
70.0362559
11
586.3118544
21
70.0362559
0
LINE
8
bottom_labelLayer
10
586.3118544
20
70.0362559
11
586.3118544
21
68.4489512
0
LINE
8
bottom_labelLayer
10
586.3118544
20
68.4489512
11
582.3989638
21
68.4489512
0
LINE
8
bottom_labelLayer
10
582.3989638
20
68.4489512
11
582.3989638
21
60.5124278
0
ARC
8
bottom_labelLayer
10
584.5785978
20
64.6980394
40
6.7080872
50
269.8803443
51
278.3028456
0
ARC
8
bottom_labelLayer
10
584.642462
20
64.1763406
40
6.1826462
50
278.4153612
51
279.0079401
0
ARC
8
bottom_labelLayer
10
583.8897639
20
68.98468
40
11.0495375
50
278.9590253
51
280.5104681
0
ARC
8
bottom_labelLayer
10
584.6071492
20
65.1355394
40
7.1341183
50
280.4847105
51
282.6268512
0
ARC
8
bottom_labelLayer
10
585.2361154
20
62.3412099
40
4.2698798
50
282.5877737
51
285.5793908
0
ARC
8
bottom_labelLayer
10
585.5515247
20
61.1810868
40
3.0676798
50
285.7242748
51
286.256641
0
ARC
8
bottom_labelLayer
10
585.5515495
20
58.489651
40
2.0090626
50
287.9887475
51
295.3048483
0
ARC
8
bottom_labelLayer
10
585.0669819
20
59.9556727
40
3.5530795
50
283.3068811
51
288.1198298
0
ARC
8
bottom_labelLayer
10
584.5550643
20
62.0910366
40
5.7489417
50
280.0069655
51
283.3734939
0
ARC
8
bottom_labelLayer
10
584.2120739
20
63.9525864
40
7.6417853
50
279.186462
51
280.1141429
0
ARC
8
bottom_labelLayer
10
584.0023037
20
65.1456615
40
8.8530631
50
275.5260351
51
279.2939451
0
ARC
8
bottom_labelLayer
10
584.2392265
20
62.6709758
40
6.3670636
50
270.893224
51
275.5484033
0
ARC
8
bottom_labelLayer
10
584.2689733
20
61.5401739
40
5.2359495
50
270.0033158
51
270.7606523
0
ARC
8
bottom_labelLayer
10
584.1868514
20
61.6384996
40
5.3349117
50
253.784791
51
270.8852605
0
ARC
8
bottom_labelLayer
10
583.5548068
20
59.4829875
40
3.0886549
50
190.3817712
51
253.8772368
0
ARC
8
bottom_labelLayer
10
586.7763302
20
60.3540309
40
6.4203514
50
179.3550959
51
192.8477659
0
ARC
8
bottom_labelLayer
10
586.5119659
20
60.4867046
40
4.1130826
50
179.6416709
51
189.7505856
0
ARC
8
bottom_labelLayer
10
585.059966
20
60.227724
40
2.6382135
50
189.5479731
51
205.7873654
0
ARC
8
bottom_labelLayer
10
584.4632509
20
59.9525596
40
1.9812524
50
206.1294334
51
221.4084249
0
ARC
8
bottom_labelLayer
10
584.396348
20
59.901794
40
1.897507
50
221.5949174
51
262.3505106
0
ARC
8
bottom_labelLayer
10
584.5554728
20
60.7200678
40
2.7301162
50
261.3265978
51
270.1913125
0
LINE
8
bottom_labelLayer
10
595.306581
20
58.2360606
11
595.306581
21
56.6733653
0
LINE
8
bottom_labelLayer
10
589.2526747
20
60.4262949
11
589.2526747
21
68.4489512
0
LINE
8
bottom_labelLayer
10
589.2526747
20
68.4489512
11
587.3208388
21
68.4489512
0
LINE
8
bottom_labelLayer
10
587.3208388
20
68.4489512
11
587.3208388
21
69.4333262
0
LINE
8
bottom_labelLayer
10
587.3208388
20
69.4333262
11
589.2526747
21
70.2823496
0
LINE
8
bottom_labelLayer
10
589.2526747
20
70.2823496
11
590.1140028
21
73.1616465
0
LINE
8
bottom_labelLayer
10
590.1140028
20
73.1616465
11
591.2952528
21
73.1616465
0
LINE
8
bottom_labelLayer
10
591.2952528
20
73.1616465
11
591.2952528
21
70.0362559
0
LINE
8
bottom_labelLayer
10
591.2952528
20
70.0362559
11
595.2081435
21
70.0362559
0
LINE
8
bottom_labelLayer
10
595.2081435
20
70.0362559
11
595.2081435
21
68.4489512
0
LINE
8
bottom_labelLayer
10
595.2081435
20
68.4489512
11
591.2952528
21
68.4489512
0
LINE
8
bottom_labelLayer
10
591.2952528
20
68.4489512
11
591.2952528
21
60.5124278
0
ARC
8
bottom_labelLayer
10
593.4748869
20
64.6980394
40
6.7080872
50
269.8803443
51
278.3028456
0
ARC
8
bottom_labelLayer
10
593.5387511
20
64.1763406
40
6.1826462
50
278.4153612
51
279.0079401
0
ARC
8
bottom_labelLayer
10
592.7860529
20
68.98468
40
11.0495375
50
278.9590253
51
280.5104681
0
ARC
8
bottom_labelLayer
10
593.5034383
20
65.1355394
40
7.1341183
50
280.4847105
51
282.6268512
0
ARC
8
bottom_labelLayer
10
594.1324044
20
62.3412099
40
4.2698798
50
282.5877737
51
285.5793908
0
ARC
8
bottom_labelLayer
10
594.4478137
20
61.1810868
40
3.0676798
50
285.7242748
51
286.256641
0
ARC
8
bottom_labelLayer
10
594.4478386
20
58.489651
40
2.0090626
50
287.9887475
51
295.3048483
0
ARC
8
bottom_labelLayer
10
593.963271
20
59.9556727
40
3.5530795
50
283.3068811
51
288.1198298
0
ARC
8
bottom_labelLayer
10
593.4513534
20
62.0910366
40
5.7489417
50
280.0069655
51
283.3734939
0
ARC
8
bottom_labelLayer
10
593.108363
20
63.9525864
40
7.6417853
50
279.186462
51
280.1141429
0
ARC
8
bottom_labelLayer
10
592.8985928
20
65.1456615
40
8.8530631
50
275.5260351
51
279.2939451
0
ARC
8
bottom_labelLayer
10
593.1355156
20
62.6709758
40
6.3670636
50
270.893224
51
275.5484033
0
ARC
8
bottom_labelLayer
10
593.1652623
20
61.5401739
40
5.2359495
50
270.0033158
51
270.7606523
0
ARC
8
bottom_labelLayer
10
593.0831404
20
61.6384996
40
5.3349117
50
253.784791
51
270.8852605
0
ARC
8
bottom_labelLayer
10
592.4510958
20
59.4829875
40
3.0886549
50
190.3817712
51
253.8772368
0
ARC
8
bottom_labelLayer
10
595.6726193
20
60.3540309
40
6.4203514
50
179.3550959
51
192.8477659
0
ARC
8
bottom_labelLayer
10
595.408255
20
60.4867046
40
4.1130826
50
179.6416709
51
189.7505856
0
ARC
8
bottom_labelLayer
10
593.9562551
20
60.227724
40
2.6382135
50
189.5479731
51
205.7873654
0
ARC
8
bottom_labelLayer
10
593.3595399
20
59.9525596
40
1.9812524
50
206.1294334
51
221.4084249
0
ARC
8
bottom_labelLayer
10
593.292637
20
59.901794
40
1.897507
50
221.5949174
51
262.3505106
0
ARC
8
bottom_labelLayer
10
593.4517619
20
60.7200678
40
2.7301162
50
261.3265978
51
270.1913125
0
ARC
8
bottom_labelLayer
10
599.0910361
20
63.2344637
40
10.5507456
50
349.1761844
51
0.3862638
0
ARC
8
bottom_labelLayer
10
602.6432173
20
62.5263284
40
6.9288384
50
330.250707
51
349.4116449
0
ARC
8
bottom_labelLayer
10
603.7363977
20
61.9581366
40
5.6980056
50
318.1439869
51
329.7566233
0
ARC
8
bottom_labelLayer
10
603.9337069
20
61.8000143
40
5.4455536
50
278.8959143
51
317.9979109
0
ARC
8
bottom_labelLayer
10
603.4253297
20
64.2356838
40
7.9315345
50
269.7502793
51
279.803334
0
ARC
8
bottom_labelLayer
10
603.3428804
20
62.8633446
40
6.5592947
50
253.5436967
51
270.41824
0
ARC
8
bottom_labelLayer
10
603.1245328
20
62.0187237
40
5.6874969
50
238.8115572
51
253.2428422
0
ARC
8
bottom_labelLayer
10
603.0540668
20
61.8770156
40
5.5297942
50
207.7947067
51
238.675796
0
ARC
8
bottom_labelLayer
10
604.0652856
20
62.4963368
40
6.7135692
50
205.6560658
51
208.4461472
0
ARC
8
bottom_labelLayer
10
604.84407
20
62.8208195
40
7.5561953
50
188.9102401
51
205.317143
0
ARC
8
bottom_labelLayer
10
607.468838
20
63.2653717
40
10.2181957
50
179.7744758
51
189.0932889
0
ARC
8
bottom_labelLayer
10
607.8560258
20
63.3774251
40
10.6055475
50
169.2442976
51
180.3880774
0
ARC
8
bottom_labelLayer
10
604.2544641
20
64.0893226
40
6.9344566
50
150.7111445
51
169.4695396
0
ARC
8
bottom_labelLayer
10
603.1047253
20
64.6797584
40
5.6430467
50
138.1759338
51
150.2287553
0
ARC
8
bottom_labelLayer
10
602.9134855
20
64.8265123
40
5.4027039
50
99.1759345
51
137.9832726
0
ARC
8
bottom_labelLayer
10
603.4398732
20
62.34927
40
7.9331658
50
89.732627
51
100.0759748
0
ARC
8
bottom_labelLayer
10
603.5450811
20
63.4191079
40
6.8635804
50
73.522274
51
90.5692256
0
ARC
8
bottom_labelLayer
10
603.9475888
20
64.8815265
40
5.3471327
50
41.1445685
51
73.2133799
0
ARC
8
bottom_labelLayer
10
603.1792345
20
64.2211365
40
6.3602596
50
13.5014326
51
41.0703446
0
ARC
8
bottom_labelLayer
10
600.2107058
20
63.444311
40
9.4283213
50
1.1277143
51
13.8800058
0
ARC
8
bottom_labelLayer
10
597.653402
20
63.3072866
40
11.9881399
50
359.9919002
51
1.5419342
0
ARC
8
bottom_labelLayer
10
609.7105692
20
63.252511
40
10.3435776
50
179.7059702
51
187.916084
0
ARC
8
bottom_labelLayer
10
605.916859
20
62.7075468
40
6.5109875
50
187.7639207
51
200.0976951
0
ARC
8
bottom_labelLayer
10
603.8269298
20
61.9417929
40
4.2851884
50
200.0845893
51
216.9131639
0
ARC
8
bottom_labelLayer
10
603.0637603
20
61.396854
40
3.347783
50
217.3009564
51
261.7099047
0
ARC
8
bottom_labelLayer
10
603.41805
20
63.0874841
40
5.0729554
50
260.5033082
51
270.2476788
0
ARC
8
bottom_labelLayer
10
603.4856736
20
62.7587415
40
4.7443854
50
269.4481635
51
284.7255664
0
ARC
8
bottom_labelLayer
10
603.8612591
20
61.365817
40
3.301755
50
284.5662245
51
322.6333856
0
ARC
8
bottom_labelLayer
10
602.983125
20
62.0002305
40
4.3847961
50
323.0089185
51
342.6390582
0
ARC
8
bottom_labelLayer
10
600.4714713
20
62.8211125
40
7.0270544
50
342.3615658
51
353.7537696
0
ARC
8
bottom_labelLayer
10
596.7659278
20
63.2677703
40
10.7592745
50
353.5362991
51
0.2014096
0
ARC
8
bottom_labelLayer
10
597.3336805
20
63.3576105
40
10.1915879
50
359.7075564
51
7.8972722
0
ARC
8
bottom_labelLayer
10
601.0661194
20
63.8926908
40
6.4210517
50
7.7439888
51
20.0690211
0
ARC
8
bottom_labelLayer
10
603.1459823
20
64.6559224
40
4.205575
50
20.0257074
51
37.4350449
0
ARC
8
bottom_labelLayer
10
603.8360677
20
65.1455966
40
3.3601032
50
37.9577597
51
80.400619
0
ARC
8
bottom_labelLayer
10
603.4439154
20
63.3958446
40
5.1516231
50
79.3453589
51
90.3174802
0
ARC
8
bottom_labelLayer
10
603.3713041
20
63.6864869
40
4.8611015
50
89.4806062
51
103.880506
0
ARC
8
bottom_labelLayer
10
602.962845
20
65.2418967
40
3.2532084
50
103.4685206
51
142.3118966
0
ARC
8
bottom_labelLayer
10
603.7569181
20
64.6834468
40
4.2232385
50
142.9025657
51
162.3749614
0
ARC
8
bottom_labelLayer
10
606.2590679
20
63.8496138
40
6.8605068
50
162.0653301
51
173.1674728
0
ARC
8
bottom_labelLayer
10
610.1605375
20
63.3520046
40
10.7935096
50
173.0086119
51
180.2463764
0
LINE
8
bottom_labelLayer
10
632.4544325
20
56.5503184
11
630.4118544
21
56.5503184
0
LINE
8
bottom_labelLayer
10
630.4118544
20
56.5503184
11
630.4118544
21
65.3235606
0
LINE
8
bottom_labelLayer
10
623.853456
20
64.0807871
11
623.853456
21
56.5503184
0
LINE
8
bottom_labelLayer
10
623.853456
20
56.5503184
11
621.8108778
21
56.5503184
0
LINE
8
bottom_labelLayer
10
621.8108778
20
56.5503184
11
621.8108778
21
65.3235606
0
LINE
8
bottom_labelLayer
10
615.2647841
20
63.6255137
11
615.2647841
21
56.5503184
0
LINE
8
bottom_labelLayer
10
615.2647841
20
56.5503184
11
613.222206
21
56.5503184
0
LINE
8
bottom_labelLayer
10
613.222206
20
56.5503184
11
613.222206
21
70.0362559
0
LINE
8
bottom_labelLayer
10
613.222206
20
70.0362559
11
614.8833388
21
70.0362559
0
LINE
8
bottom_labelLayer
10
614.8833388
20
70.0362559
11
615.2155653
21
68.1905528
0
LINE
8
bottom_labelLayer
10
615.2155653
20
68.1905528
11
615.3140028
21
68.1905528
0
LINE
8
bottom_labelLayer
10
623.4350966
20
67.9936778
11
623.5335341
21
67.9936778
0
LINE
8
bottom_labelLayer
10
632.4544325
20
65.3481699
11
632.4544325
21
56.5503184
0
ARC
8
bottom_labelLayer
10
624.3861789
20
65.3556549
40
6.025761
50
359.6948306
51
8.1471567
0
ARC
8
bottom_labelLayer
10
626.6056512
20
65.6841126
40
3.7821562
50
7.9864576
51
20.7949533
0
ARC
8
bottom_labelLayer
10
627.8325182
20
66.1540795
40
2.4683641
50
20.707123
51
40.0217691
0
ARC
8
bottom_labelLayer
10
628.1016635
20
66.3301774
40
2.1493478
50
41.0408186
51
73.1792546
0
ARC
8
bottom_labelLayer
10
627.7122116
20
65.152271
40
3.3897065
50
72.6395628
51
86.2568137
0
ARC
8
bottom_labelLayer
10
627.5874472
20
63.8060063
40
4.7413859
50
85.8144313
51
90.0685288
0
ARC
8
bottom_labelLayer
10
627.5416112
20
63.2916556
40
5.2558866
50
89.5621463
51
101.2961559
0
ARC
8
bottom_labelLayer
10
627.1457534
20
65.1867673
40
3.31999
50
101.0032198
51
121.784049
0
ARC
8
bottom_labelLayer
10
626.844805
20
65.7240455
40
2.7049034
50
122.3597213
51
140.2884162
0
ARC
8
bottom_labelLayer
10
627.3862443
20
65.3270426
40
3.3753145
50
140.9765231
51
161.1699419
0
ARC
8
bottom_labelLayer
10
629.4259754
20
64.60115
40
5.5402442
50
160.8731882
51
172.5272389
0
ARC
8
bottom_labelLayer
10
632.8342787
20
64.1304379
40
8.9808492
50
172.3776459
51
180.1829644
0
ARC
8
bottom_labelLayer
10
635.0600234
20
64.0809065
40
11.2065675
50
179.8933868
51
180.00061
0
ARC
8
bottom_labelLayer
10
615.7852023
20
65.3556549
40
6.025761
50
359.6948306
51
8.1471567
0
ARC
8
bottom_labelLayer
10
618.0046747
20
65.6841126
40
3.7821562
50
7.9864576
51
20.7949533
0
ARC
8
bottom_labelLayer
10
619.2315416
20
66.1540795
40
2.4683641
50
20.707123
51
40.0217691
0
ARC
8
bottom_labelLayer
10
619.5062841
20
66.3340457
40
2.1425864
50
41.0610708
51
72.8993576
0
ARC
8
bottom_labelLayer
10
619.1094525
20
65.1526359
40
3.3886046
50
72.3600966
51
85.9561722
0
ARC
8
bottom_labelLayer
10
618.9751168
20
63.7642375
40
4.7831558
50
85.5238331
51
90.0793199
0
ARC
8
bottom_labelLayer
10
618.9293001
20
63.4743617
40
5.0731784
50
89.5573333
51
101.4832232
0
ARC
8
bottom_labelLayer
10
618.5399162
20
65.2987101
40
3.207882
50
101.1546429
51
123.06556
0
ARC
8
bottom_labelLayer
10
618.2752325
20
65.7597772
40
2.6772403
50
123.702043
51
142.3022076
0
ARC
8
bottom_labelLayer
10
618.895238
20
65.339158
40
3.4253382
50
143.0769863
51
161.3913775
0
ARC
8
bottom_labelLayer
10
621.3944333
20
64.4565008
40
6.0756594
50
161.0234558
51
171.4469019
0
ARC
8
bottom_labelLayer
10
625.5317961
20
63.8083979
40
10.2634299
50
171.3042019
51
178.3501546
0
ARC
8
bottom_labelLayer
10
629.4859885
20
63.6317981
40
14.2212058
50
178.0976205
51
180.0253191
0
ARC
8
bottom_labelLayer
10
618.7744068
20
66.1556642
40
4.0143701
50
117.1209569
51
149.5423669
0
ARC
8
bottom_labelLayer
10
619.1841074
20
65.4274732
40
4.8493743
50
93.8343315
51
117.5072144
0
ARC
8
bottom_labelLayer
10
619.2972634
20
64.4251817
40
5.8571688
50
89.9661714
51
94.2831195
0
ARC
8
bottom_labelLayer
10
619.3650668
20
63.5952419
40
6.6874173
50
77.5572309
51
90.5512993
0
ARC
8
bottom_labelLayer
10
619.9855863
20
66.2642132
40
3.9475564
50
52.702699
51
78.0053843
0
ARC
8
bottom_labelLayer
10
620.2066662
20
66.6755363
40
3.4871565
50
22.209788
51
51.4970681
0
ARC
8
bottom_labelLayer
10
627.233754
20
65.873073
40
4.2648086
50
119.4041769
51
150.1828768
0
ARC
8
bottom_labelLayer
10
627.7067057
20
65.1538771
40
5.1238989
50
118.2584281
51
120.063077
0
ARC
8
bottom_labelLayer
10
627.7053948
20
65.1012176
40
5.1697275
50
95.8635191
51
117.9693145
0
ARC
8
bottom_labelLayer
10
627.8803564
20
63.8361394
40
6.4462166
50
89.9196758
51
96.2617781
0
ARC
8
bottom_labelLayer
10
627.9365288
20
63.1823939
40
7.1001122
50
79.9360992
51
90.380371
0
ARC
8
bottom_labelLayer
10
628.4096174
20
65.7445931
40
4.4947022
50
62.9723395
51
80.1664999
0
ARC
8
bottom_labelLayer
10
628.9041734
20
66.7592342
40
3.366199
50
44.2290036
51
62.622905
0
ARC
8
bottom_labelLayer
10
628.757081
20
66.6942544
40
3.5173709
50
19.5612116
51
43.3161204
0
ARC
8
bottom_labelLayer
10
626.62082
20
65.8918743
40
5.7991276
50
7.5041952
51
19.9645251
0
ARC
8
bottom_labelLayer
10
623.0858872
20
65.3954669
40
9.3686646
50
359.7107456
51
7.6907111
0
ENDSEC
0
EOF