0
SECTION
2
HEADER
9
$INSUNITS
70
4
0
ENDSEC
0
SECTION
2
TABLES
0
TABLE
2
LTYPE
0
LTYPE
72
65
70
64
2
CONTINUOUS
3
______
73
0
40
0
0
ENDTAB
0
TABLE
2
LAYER
0
ENDTAB
0
ENDSEC
0
SECTION
2
ENTITIES
0
LINE
8
front_outsideCutPath
10
0
20
21
11
0
21
15.655
0
LINE
8
front_outsideCutPath
10
0
20
15.655
11
3
21
15.655
0
LINE
8
front_outsideCutPath
10
3
20
15.655
11
3
21
8.345
0
LINE
8
front_outsideCutPath
10
3
20
8.345
11
0
21
8.345
0
LINE
8
front_outsideCutPath
10
0
20
8.345
11
0
21
3
0
LINE
8
front_outsideCutPath
10
0
20
3
11
17.765
21
3
0
LINE
8
front_outsideCutPath
10
17.765
20
3
11
17.765
21
6
0
LINE
8
front_outsideCutPath
10
17.765
20
6
11
25.075
21
6
0
LINE
8
front_outsideCutPath
10
25.075
20
6
11
25.075
21
3
0
LINE
8
front_outsideCutPath
10
25.075
20
3
11
32.385
21
3
0
LINE
8
front_outsideCutPath
10
32.385
20
3
11
32.385
21
6
0
LINE
8
front_outsideCutPath
10
32.385
20
6
11
39.695
21
6
0
LINE
8
front_outsideCutPath
10
39.695
20
6
11
39.695
21
3
0
LINE
8
front_outsideCutPath
10
39.695
20
3
11
47.005
21
3
0
LINE
8
front_outsideCutPath
10
47.005
20
3
11
47.005
21
6
0
LINE
8
front_outsideCutPath
10
47.005
20
6
11
54.315
21
6
0
LINE
8
front_outsideCutPath
10
54.315
20
6
11
54.315
21
3
0
LINE
8
front_outsideCutPath
10
54.315
20
3
11
61.625
21
3
0
LINE
8
front_outsideCutPath
10
61.625
20
3
11
61.625
21
6
0
LINE
8
front_outsideCutPath
10
61.625
20
6
11
68.935
21
6
0
LINE
8
front_outsideCutPath
10
68.935
20
6
11
68.935
21
3
0
LINE
8
front_outsideCutPath
10
68.935
20
3
11
76.245
21
3
0
LINE
8
front_outsideCutPath
10
76.245
20
3
11
76.245
21
6
0
LINE
8
front_outsideCutPath
10
76.245
20
6
11
83.555
21
6
0
LINE
8
front_outsideCutPath
10
83.555
20
6
11
83.555
21
3
0
LINE
8
front_outsideCutPath
10
83.555
20
3
11
90.865
21
3
0
LINE
8
front_outsideCutPath
10
90.865
20
3
11
90.865
21
6
0
LINE
8
front_outsideCutPath
10
90.865
20
6
11
98.175
21
6
0
LINE
8
front_outsideCutPath
10
98.175
20
6
11
98.175
21
3
0
LINE
8
front_outsideCutPath
10
98.175
20
3
11
105.485
21
3
0
LINE
8
front_outsideCutPath
10
105.485
20
3
11
105.485
21
6
0
LINE
8
front_outsideCutPath
10
105.485
20
6
11
112.795
21
6
0
LINE
8
front_outsideCutPath
10
112.795
20
6
11
112.795
21
3
0
LINE
8
front_outsideCutPath
10
112.795
20
3
11
120.105
21
3
0
LINE
8
front_outsideCutPath
10
120.105
20
3
11
120.105
21
6
0
LINE
8
front_outsideCutPath
10
120.105
20
6
11
127.415
21
6
0
LINE
8
front_outsideCutPath
10
127.415
20
6
11
127.415
21
3
0
LINE
8
front_outsideCutPath
10
127.415
20
3
11
134.725
21
3
0
LINE
8
front_outsideCutPath
10
134.725
20
3
11
134.725
21
6
0
LINE
8
front_outsideCutPath
10
134.725
20
6
11
142.035
21
6
0
LINE
8
front_outsideCutPath
10
142.035
20
6
11
142.035
21
3
0
LINE
8
front_outsideCutPath
10
142.035
20
3
11
149.345
21
3
0
LINE
8
front_outsideCutPath
10
149.345
20
3
11
149.345
21
6
0
LINE
8
front_outsideCutPath
10
149.345
20
6
11
156.655
21
6
0
LINE
8
front_outsideCutPath
10
156.655
20
6
11
156.655
21
3
0
LINE
8
front_outsideCutPath
10
156.655
20
3
11
163.965
21
3
0
LINE
8
front_outsideCutPath
10
163.965
20
3
11
163.965
21
6
0
LINE
8
front_outsideCutPath
10
163.965
20
6
11
171.275
21
6
0
LINE
8
front_outsideCutPath
10
171.275
20
6
11
171.275
21
3
0
LINE
8
front_outsideCutPath
10
171.275
20
3
11
178.585
21
3
0
LINE
8
front_outsideCutPath
10
178.585
20
3
11
178.585
21
6
0
LINE
8
front_outsideCutPath
10
178.585
20
6
11
185.895
21
6
0
LINE
8
front_outsideCutPath
10
185.895
20
6
11
185.895
21
3
0
LINE
8
front_outsideCutPath
10
185.895
20
3
11
193.205
21
3
0
LINE
8
front_outsideCutPath
10
193.205
20
3
11
193.205
21
6
0
LINE
8
front_outsideCutPath
10
193.205
20
6
11
200.515
21
6
0
LINE
8
front_outsideCutPath
10
200.515
20
6
11
200.515
21
3
0
LINE
8
front_outsideCutPath
10
200.515
20
3
11
207.825
21
3
0
LINE
8
front_outsideCutPath
10
207.825
20
3
11
207.825
21
6
0
LINE
8
front_outsideCutPath
10
207.825
20
6
11
215.135
21
6
0
LINE
8
front_outsideCutPath
10
215.135
20
6
11
215.135
21
3
0
LINE
8
front_outsideCutPath
10
215.135
20
3
11
222.445
21
3
0
LINE
8
front_outsideCutPath
10
222.445
20
3
11
222.445
21
6
0
LINE
8
front_outsideCutPath
10
222.445
20
6
11
229.755
21
6
0
LINE
8
front_outsideCutPath
10
229.755
20
6
11
229.755
21
3
0
LINE
8
front_outsideCutPath
10
229.755
20
3
11
237.065
21
3
0
LINE
8
front_outsideCutPath
10
237.065
20
3
11
237.065
21
6
0
LINE
8
front_outsideCutPath
10
237.065
20
6
11
244.375
21
6
0
LINE
8
front_outsideCutPath
10
244.375
20
6
11
244.375
21
3
0
LINE
8
front_outsideCutPath
10
244.375
20
3
11
251.685
21
3
0
LINE
8
front_outsideCutPath
10
251.685
20
3
11
251.685
21
6
0
LINE
8
front_outsideCutPath
10
251.685
20
6
11
258.995
21
6
0
LINE
8
front_outsideCutPath
10
258.995
20
6
11
258.995
21
3
0
LINE
8
front_outsideCutPath
10
258.995
20
3
11
266.305
21
3
0
LINE
8
front_outsideCutPath
10
266.305
20
3
11
266.305
21
6
0
LINE
8
front_outsideCutPath
10
266.305
20
6
11
273.615
21
6
0
LINE
8
front_outsideCutPath
10
273.615
20
6
11
273.615
21
3
0
LINE
8
front_outsideCutPath
10
273.615
20
3
11
280.925
21
3
0
LINE
8
front_outsideCutPath
10
280.925
20
3
11
280.925
21
6
0
LINE
8
front_outsideCutPath
10
280.925
20
6
11
288.235
21
6
0
LINE
8
front_outsideCutPath
10
288.235
20
6
11
288.235
21
3
0
LINE
8
front_outsideCutPath
10
288.235
20
3
11
295.545
21
3
0
LINE
8
front_outsideCutPath
10
295.545
20
3
11
306
21
3
0
LINE
8
front_outsideCutPath
10
306
20
3
11
306
21
8.345
0
LINE
8
front_outsideCutPath
10
306
20
8.345
11
303
21
8.345
0
LINE
8
front_outsideCutPath
10
303
20
8.345
11
303
21
15.655
0
LINE
8
front_outsideCutPath
10
303
20
15.655
11
306
21
15.655
0
LINE
8
front_outsideCutPath
10
306
20
15.655
11
306
21
21
0
LINE
8
front_outsideCutPath
10
306
20
21
11
0
21
21
0
LINE
8
front_labelLayer
10
150.0178711
20
12.5669326
11
150.0178711
21
12.3401748
0
LINE
8
front_labelLayer
10
150.0178711
20
12.3401748
11
149.5274414
21
12.3401748
0
LINE
8
front_labelLayer
10
149.5274414
20
12.3401748
11
149.5274414
21
10.6403701
0
LINE
8
front_labelLayer
10
149.5274414
20
10.6403701
11
149.2356445
21
10.6403701
0
LINE
8
front_labelLayer
10
149.2356445
20
10.6403701
11
149.2356445
21
12.3401748
0
LINE
8
front_labelLayer
10
149.2356445
20
12.3401748
11
148.8911133
21
12.3401748
0
LINE
8
front_labelLayer
10
148.8911133
20
12.3401748
11
148.8911133
21
12.4720108
0
LINE
8
front_labelLayer
10
148.8911133
20
12.4720108
11
149.2356445
21
12.5774795
0
LINE
8
front_labelLayer
10
149.2356445
20
12.5774795
11
149.2356445
21
12.6847061
0
LINE
8
front_labelLayer
10
150.2147461
20
13.3333389
11
150.1391601
21
13.0995498
0
LINE
8
front_labelLayer
10
149.5274414
20
12.6917373
11
149.5274414
21
12.5669326
0
LINE
8
front_labelLayer
10
149.5274414
20
12.5669326
11
150.0178711
21
12.5669326
0
ARC
8
front_labelLayer
10
150.4181981
20
12.6983005
40
1.1826317
50
167.5775875
51
180.6586312
0
ARC
8
front_labelLayer
10
149.862086
20
12.8279535
40
0.6116886
50
141.7434302
51
168.2321777
0
ARC
8
front_labelLayer
10
149.7715383
20
12.875212
40
0.511676
50
98.2551529
51
139.6203035
0
ARC
8
front_labelLayer
10
149.8510392
20
12.5079476
40
0.8869294
50
89.6696906
51
99.9314245
0
ARC
8
front_labelLayer
10
149.8512623
20
12.4552416
40
0.9396335
50
81.5639945
51
89.7018213
0
ARC
8
front_labelLayer
10
149.7852005
20
11.9943516
40
1.4052302
50
75.9739797
51
81.6564553
0
ARC
8
front_labelLayer
10
149.6718217
20
11.5240834
40
1.8889608
50
73.2964637
51
76.0946061
0
ARC
8
front_labelLayer
10
149.7003983
20
11.7522829
40
1.4169122
50
71.9612215
51
76.5918631
0
ARC
8
front_labelLayer
10
149.8103214
20
12.2185982
40
0.9378183
50
76.5182441
51
83.0217878
0
ARC
8
front_labelLayer
10
149.8486065
20
12.5264992
40
0.6275471
50
83.0760193
51
89.7925274
0
ARC
8
front_labelLayer
10
149.8473481
20
12.7605364
40
0.3935215
50
89.485925
51
103.4196927
0
ARC
8
front_labelLayer
10
149.8118697
20
12.8968431
40
0.2527189
50
102.767768
51
144.3380292
0
ARC
8
front_labelLayer
10
149.8833443
20
12.8508557
40
0.3376282
50
145.0688533
51
162.1801638
0
ARC
8
front_labelLayer
10
150.1284047
20
12.7684044
40
0.5961739
50
161.8436972
51
171.7846637
0
ARC
8
front_labelLayer
10
150.5280813
20
12.7083722
40
1.0003298
50
171.6526544
51
178.4384063
0
ARC
8
front_labelLayer
10
150.9053537
20
12.6922944
40
1.3779123
50
178.1976236
51
180.0231636
0
LINE
8
front_labelLayer
10
151.4786133
20
12.5809951
11
151.4381836
21
12.310292
0
LINE
8
front_labelLayer
10
150.6612305
20
11.6739639
11
150.6612305
21
10.6403701
0
LINE
8
front_labelLayer
10
150.6612305
20
10.6403701
11
150.3694336
21
10.6403701
0
LINE
8
front_labelLayer
10
150.3694336
20
10.6403701
11
150.3694336
21
12.5669326
0
LINE
8
front_labelLayer
10
150.3694336
20
12.5669326
11
150.6102539
21
12.5669326
0
LINE
8
front_labelLayer
10
150.6102539
20
12.5669326
11
150.6436523
21
12.2100967
0
LINE
8
front_labelLayer
10
150.6436523
20
12.2100967
11
150.6577148
21
12.2100967
0
ARC
8
front_labelLayer
10
151.2513371
20
11.2625173
40
1.339575
50
84.9923145
51
90.1281974
0
ARC
8
front_labelLayer
10
151.2835068
20
11.6229419
40
0.977718
50
78.4891839
51
85.0266359
0
ARC
8
front_labelLayer
10
151.1586335
20
11.0549872
40
1.2860554
50
77.4453811
51
81.6359431
0
ARC
8
front_labelLayer
10
151.2146685
20
11.4412128
40
0.895787
50
81.588469
51
87.1916039
0
ARC
8
front_labelLayer
10
151.2268397
20
11.6521726
40
0.6844867
50
87.3439759
51
89.965983
0
ARC
8
front_labelLayer
10
151.2240121
20
11.8310724
40
0.5055971
50
89.6335187
51
137.0881088
0
ARC
8
front_labelLayer
10
151.3481449
20
11.6914929
40
0.6917748
50
135.6211586
51
138.837666
0
ARC
8
front_labelLayer
10
151.3299137
20
11.7092846
40
0.6663407
50
138.9575955
51
174.5422159
0
ARC
8
front_labelLayer
10
151.5468949
20
11.6753302
40
0.8856655
50
173.6906489
51
180.0883904
0
ARC
8
front_labelLayer
10
151.5162429
20
11.7264059
40
0.9854071
50
139.4139247
51
150.6032869
0
ARC
8
front_labelLayer
10
151.3395576
20
11.8778072
40
0.752727
50
124.2321251
51
139.4161325
0
ARC
8
front_labelLayer
10
151.2450873
20
12.02041
40
0.5816878
50
89.6796315
51
124.4405556
0
ARC
8
front_labelLayer
10
151.9946397
20
11.5952481
40
1.50725
50
349.1761888
51
0.3862636
0
ARC
8
front_labelLayer
10
152.502092
20
11.4940867
40
0.9898369
50
330.2507431
51
349.4116254
0
ARC
8
front_labelLayer
10
152.6582589
20
11.4129187
40
0.8140062
50
318.1440342
51
329.7565931
0
ARC
8
front_labelLayer
10
152.6864499
20
11.3903277
40
0.7779373
50
278.895943
51
317.9978851
0
ARC
8
front_labelLayer
10
152.6138249
20
11.738285
40
1.1330819
50
269.7502932
51
279.8032989
0
ARC
8
front_labelLayer
10
152.6020466
20
11.5422296
40
0.9370407
50
253.5436761
51
270.4182451
0
ARC
8
front_labelLayer
10
152.5708527
20
11.4215684
40
0.8124967
50
238.8115505
51
253.2428864
0
ARC
8
front_labelLayer
10
152.5607875
20
11.401327
40
0.7899707
50
207.7947155
51
238.6758039
0
ARC
8
front_labelLayer
10
152.7054226
20
11.4898905
40
0.9592777
50
205.6563344
51
208.4458443
0
ARC
8
front_labelLayer
10
152.8165062
20
11.5361574
40
1.0794605
50
188.910279
51
205.31712
0
ARC
8
front_labelLayer
10
153.1914861
20
11.5996644
40
1.4597591
50
179.7745154
51
189.0932206
0
ARC
8
front_labelLayer
10
153.246782
20
11.6156711
40
1.5150785
50
169.2442997
51
180.3880773
0
ARC
8
front_labelLayer
10
152.7322747
20
11.7173707
40
0.9906384
50
150.7111932
51
169.4695568
0
ARC
8
front_labelLayer
10
152.5680131
20
11.8017264
40
0.8061358
50
138.1758013
51
150.2288276
0
ARC
8
front_labelLayer
10
152.5407051
20
11.8226825
40
0.771816
50
99.1759612
51
137.9832396
0
ARC
8
front_labelLayer
10
152.6159029
20
11.468796
40
1.1333053
50
89.7326309
51
100.0760165
0
ARC
8
front_labelLayer
10
152.6309331
20
11.6216261
40
0.9805112
50
73.5223023
51
90.5692601
0
ARC
8
front_labelLayer
10
152.6884329
20
11.8305416
40
0.7638774
50
41.1445972
51
73.2133527
0
ARC
8
front_labelLayer
10
152.5786686
20
11.7362011
40
0.9086087
50
13.5014407
51
41.0703471
0
ARC
8
front_labelLayer
10
152.15459
20
11.6252255
40
1.3469063
50
1.1277441
51
13.8800046
0
ARC
8
front_labelLayer
10
151.7889484
20
11.6056514
40
1.7129069
50
359.9919003
51
1.5416486
0
ARC
8
front_labelLayer
10
153.5117282
20
11.5978274
40
1.4776656
50
179.7060164
51
187.916065
0
ARC
8
front_labelLayer
10
152.9697651
20
11.5199761
40
0.9301484
50
187.763974
51
200.0976503
0
ARC
8
front_labelLayer
10
152.671203
20
11.4105843
40
0.612177
50
200.0846887
51
216.9130638
0
ARC
8
front_labelLayer
10
152.5621727
20
11.3327327
40
0.4782552
50
217.3009624
51
261.7098678
0
ARC
8
front_labelLayer
10
152.6127863
20
11.574255
40
0.7247121
50
260.5032713
51
270.2475861
0
ARC
8
front_labelLayer
10
152.6224457
20
11.5272843
40
0.677766
50
269.4481612
51
284.7256396
0
ARC
8
front_labelLayer
10
152.6761014
20
11.3282975
40
0.4716782
50
284.5661834
51
322.6334376
0
ARC
8
front_labelLayer
10
152.5506542
20
11.4189289
40
0.6263985
50
323.0088589
51
342.6390322
0
ARC
8
front_labelLayer
10
152.1918599
20
11.5361946
40
1.00385
50
342.3614922
51
353.7538652
0
ARC
8
front_labelLayer
10
151.6624706
20
11.600006
40
1.5370505
50
353.5363535
51
0.2014146
0
ARC
8
front_labelLayer
10
151.7435894
20
11.6128416
40
1.4559413
50
359.7075097
51
7.8972251
0
ARC
8
front_labelLayer
10
152.276788
20
11.6892789
40
0.9173003
50
7.7440297
51
20.0689648
0
ARC
8
front_labelLayer
10
152.5739165
20
11.7983124
40
0.6007985
50
20.025749
51
37.4350244
0
ARC
8
front_labelLayer
10
152.6725016
20
11.8682662
40
0.4800156
50
37.9578112
51
80.4005886
0
ARC
8
front_labelLayer
10
152.6164803
20
11.6183036
40
0.735945
50
79.3453481
51
90.3174866
0
ARC
8
front_labelLayer
10
152.6061071
20
11.6598199
40
0.694446
50
89.4806027
51
103.8804431
0
ARC
8
front_labelLayer
10
152.5477554
20
11.8820247
40
0.4647435
50
103.4684794
51
142.3119106
0
ARC
8
front_labelLayer
10
152.6611963
20
11.8022449
40
0.6033213
50
142.9025867
51
162.3749319
0
ARC
8
front_labelLayer
10
153.0186393
20
11.6831274
40
0.9800669
50
162.0652725
51
173.1674786
0
ARC
8
front_labelLayer
10
153.5759945
20
11.6120384
40
1.541927
50
173.0085517
51
180.2463307
0
LINE
8
front_labelLayer
10
155.6235351
20
10.6403701
11
155.3317383
21
10.6403701
0
LINE
8
front_labelLayer
10
155.3317383
20
10.6403701
11
155.3317383
21
11.8866592
0
LINE
8
front_labelLayer
10
154.3051758
20
11.6511123
11
154.3051758
21
10.6403701
0
LINE
8
front_labelLayer
10
154.3051758
20
10.6403701
11
154.0133789
21
10.6403701
0
LINE
8
front_labelLayer
10
154.0133789
20
10.6403701
11
154.0133789
21
12.5669326
0
LINE
8
front_labelLayer
10
154.0133789
20
12.5669326
11
154.2506836
21
12.5669326
0
LINE
8
front_labelLayer
10
154.2506836
20
12.5669326
11
154.2981445
21
12.3032608
0
LINE
8
front_labelLayer
10
154.2981445
20
12.3032608
11
154.312207
21
12.3032608
0
LINE
8
front_labelLayer
10
155.6235351
20
11.8972061
11
155.6235351
21
10.6403701
0
ARC
8
front_labelLayer
10
154.5069173
20
11.8913896
40
0.8248345
50
359.6714114
51
8.6877443
0
ARC
8
front_labelLayer
10
154.8126249
20
11.9398737
40
0.5153141
50
8.4930702
51
22.6579702
0
ARC
8
front_labelLayer
10
154.9679421
20
12.0044178
40
0.3471198
50
22.702553
51
42.3419474
0
ARC
8
front_labelLayer
10
154.9854027
20
12.0122728
40
0.3289772
50
43.3790909
51
71.5386118
0
ARC
8
front_labelLayer
10
154.9201188
20
11.829858
40
0.5226942
50
71.0826337
51
84.3693101
0
ARC
8
front_labelLayer
10
154.8908091
20
11.5806827
40
0.7735574
50
84.0196894
51
90.151067
0
ARC
8
front_labelLayer
10
154.8825011
20
11.471125
40
0.8831345
50
89.5933148
51
100.3717983
0
ARC
8
front_labelLayer
10
154.8200929
20
11.7985653
40
0.5498143
50
100.1177607
51
118.1601526
0
ARC
8
front_labelLayer
10
154.7571988
20
11.9218989
40
0.4114067
50
118.5440227
51
139.1925845
0
ARC
8
front_labelLayer
10
154.8120394
20
11.8851019
40
0.4770305
50
140.1519794
51
160.31458
0
ARC
8
front_labelLayer
10
155.143206
20
11.7610623
40
0.8306424
50
159.9534836
51
171.380032
0
ARC
8
front_labelLayer
10
155.6841377
20
11.6741096
40
1.378505
50
171.1765482
51
178.3218146
0
ARC
8
front_labelLayer
10
156.1740913
20
11.65189
40
1.8689157
50
178.0808049
51
180.023841
0
ARC
8
front_labelLayer
10
154.8113707
20
11.9871237
40
0.5908528
50
116.9443178
51
147.6525467
0
ARC
8
front_labelLayer
10
154.8730352
20
11.8839337
40
0.7108303
50
115.8076571
51
117.6063157
0
ARC
8
front_labelLayer
10
154.9043115
20
11.8109505
40
0.7901587
50
94.3226974
51
115.5454138
0
ARC
8
front_labelLayer
10
154.923221
20
11.6466828
40
0.9554063
50
89.9577355
51
94.7109627
0
ARC
8
front_labelLayer
10
154.9310413
20
11.4500584
40
1.1520524
50
80.5584946
51
90.3538825
0
ARC
8
front_labelLayer
10
155.0030396
20
11.8670877
40
0.7288664
50
65.1093471
51
80.7639206
0
ARC
8
front_labelLayer
10
155.0871968
20
12.0534925
40
0.5243597
50
46.5584694
51
64.8781958
0
ARC
8
front_labelLayer
10
155.0939355
20
12.0729131
40
0.5056961
50
19.3848475
51
45.5997843
0
ARC
8
front_labelLayer
10
154.8013623
20
11.9631356
40
0.8181452
50
6.9634332
51
19.8362624
0
ARC
8
front_labelLayer
10
154.3501392
20
11.9024701
40
1.2734068
50
359.7631496
51
7.2115111
0
LINE
8
front_labelLayer
10
157.1088867
20
10.8811905
11
157.1088867
21
10.6579483
0
LINE
8
front_labelLayer
10
156.244043
20
11.1940811
11
156.244043
21
12.3401748
0
LINE
8
front_labelLayer
10
156.244043
20
12.3401748
11
155.9680664
21
12.3401748
0
LINE
8
front_labelLayer
10
155.9680664
20
12.3401748
11
155.9680664
21
12.4807998
0
LINE
8
front_labelLayer
10
155.9680664
20
12.4807998
11
156.244043
21
12.6020889
0
LINE
8
front_labelLayer
10
156.244043
20
12.6020889
11
156.3670898
21
13.013417
0
LINE
8
front_labelLayer
10
156.3670898
20
13.013417
11
156.5358398
21
13.013417
0
LINE
8
front_labelLayer
10
156.5358398
20
13.013417
11
156.5358398
21
12.5669326
0
LINE
8
front_labelLayer
10
156.5358398
20
12.5669326
11
157.0948242
21
12.5669326
0
LINE
8
front_labelLayer
10
157.0948242
20
12.5669326
11
157.0948242
21
12.3401748
0
LINE
8
front_labelLayer
10
157.0948242
20
12.3401748
11
156.5358398
21
12.3401748
0
LINE
8
front_labelLayer
10
156.5358398
20
12.3401748
11
156.5358398
21
11.2063858
0
ARC
8
front_labelLayer
10
156.8472146
20
11.8043511
40
0.958319
50
269.8804381
51
278.3027561
0
ARC
8
front_labelLayer
10
156.8567177
20
11.7273163
40
0.880721
50
278.4146904
51
279.008961
0
ARC
8
front_labelLayer
10
156.7489029
20
12.4161639
40
1.5779541
50
278.9588122
51
280.5107969
0
ARC
8
front_labelLayer
10
156.8513588
20
11.8665136
40
1.0188367
50
280.4844192
51
282.6272391
0
ARC
8
front_labelLayer
10
156.9411306
20
11.467708
40
0.6100525
50
282.5879085
51
285.579184
0
ARC
8
front_labelLayer
10
156.9874424
20
11.2975669
40
0.4337257
50
285.7224432
51
286.2603504
0
ARC
8
front_labelLayer
10
156.9862081
20
10.9174187
40
0.2870104
50
287.9888874
51
295.3049527
0
ARC
8
front_labelLayer
10
156.9170094
20
11.126764
40
0.5074942
50
283.3064482
51
288.1202377
0
ARC
8
front_labelLayer
10
156.843829
20
11.4320255
40
0.821404
50
280.0071915
51
283.3732008
0
ARC
8
front_labelLayer
10
156.7950488
20
11.6966972
40
1.0905276
50
279.1860027
51
280.114667
0
ARC
8
front_labelLayer
10
156.7648734
20
11.8683847
40
1.2648327
50
275.5262395
51
279.2938235
0
ARC
8
front_labelLayer
10
156.7987313
20
11.5147995
40
0.9096304
50
270.8933739
51
275.548298
0
ARC
8
front_labelLayer
10
156.8030015
20
11.3518706
40
0.7466566
50
270.0019808
51
270.7606727
0
ARC
8
front_labelLayer
10
156.7912531
20
11.3672559
40
0.7621329
50
253.7847941
51
270.885202
0
ARC
8
front_labelLayer
10
156.7009605
20
11.0593232
40
0.4412368
50
190.3818014
51
253.8772122
0
ARC
8
front_labelLayer
10
157.161179
20
11.1837584
40
0.9171943
50
179.3551456
51
192.8477984
0
ARC
8
front_labelLayer
10
157.1234197
20
11.202712
40
0.5875914
50
179.6417692
51
189.7505434
0
ARC
8
front_labelLayer
10
156.9159819
20
11.1657132
40
0.3768865
50
189.5479093
51
205.7873549
0
ARC
8
front_labelLayer
10
156.8307342
20
11.1264022
40
0.2830316
50
206.1293416
51
221.4085718
0
ARC
8
front_labelLayer
10
156.8211808
20
11.1191525
40
0.2710728
50
221.5948902
51
262.3504397
0
ARC
8
front_labelLayer
10
156.8439138
20
11.2360532
40
0.3900214
50
261.3265203
51
270.1911283
0
LINE
8
left_outsideCutPath
10
312
20
21
11
312
21
15.655
0
LINE
8
left_outsideCutPath
10
312
20
15.655
11
309
21
15.655
0
LINE
8
left_outsideCutPath
10
309
20
15.655
11
309
21
8.345
0
LINE
8
left_outsideCutPath
10
309
20
8.345
11
312
21
8.345
0
LINE
8
left_outsideCutPath
10
312
20
8.345
11
312
21
3
0
LINE
8
left_outsideCutPath
10
312
20
3
11
317.175
21
3
0
LINE
8
left_outsideCutPath
10
317.175
20
3
11
317.175
21
6
0
LINE
8
left_outsideCutPath
10
317.175
20
6
11
324.485
21
6
0
LINE
8
left_outsideCutPath
10
324.485
20
6
11
324.485
21
3
0
LINE
8
left_outsideCutPath
10
324.485
20
3
11
331.795
21
3
0
LINE
8
left_outsideCutPath
10
331.795
20
3
11
331.795
21
6
0
LINE
8
left_outsideCutPath
10
331.795
20
6
11
339.105
21
6
0
LINE
8
left_outsideCutPath
10
339.105
20
6
11
339.105
21
3
0
LINE
8
left_outsideCutPath
10
339.105
20
3
11
346.415
21
3
0
LINE
8
left_outsideCutPath
10
346.415
20
3
11
346.415
21
6
0
LINE
8
left_outsideCutPath
10
346.415
20
6
11
353.725
21
6
0
LINE
8
left_outsideCutPath
10
353.725
20
6
11
353.725
21
3
0
LINE
8
left_outsideCutPath
10
353.725
20
3
11
361.035
21
3
0
LINE
8
left_outsideCutPath
10
361.035
20
3
11
361.035
21
6
0
LINE
8
left_outsideCutPath
10
361.035
20
6
11
368.345
21
6
0
LINE
8
left_outsideCutPath
10
368.345
20
6
11
368.345
21
3
0
LINE
8
left_outsideCutPath
10
368.345
20
3
11
375.655
21
3
0
LINE
8
left_outsideCutPath
10
375.655
20
3
11
375.655
21
6
0
LINE
8
left_outsideCutPath
10
375.655
20
6
11
382.965
21
6
0
LINE
8
left_outsideCutPath
10
382.965
20
6
11
382.965
21
3
0
LINE
8
left_outsideCutPath
10
382.965
20
3
11
390.275
21
3
0
LINE
8
left_outsideCutPath
10
390.275
20
3
11
390.275
21
6
0
LINE
8
left_outsideCutPath
10
390.275
20
6
11
397.585
21
6
0
LINE
8
left_outsideCutPath
10
397.585
20
6
11
397.585
21
3
0
LINE
8
left_outsideCutPath
10
397.585
20
3
11
404.895
21
3
0
LINE
8
left_outsideCutPath
10
404.895
20
3
11
404.895
21
6
0
LINE
8
left_outsideCutPath
10
404.895
20
6
11
412.205
21
6
0
LINE
8
left_outsideCutPath
10
412.205
20
6
11
412.205
21
3
0
LINE
8
left_outsideCutPath
10
412.205
20
3
11
419.515
21
3
0
LINE
8
left_outsideCutPath
10
419.515
20
3
11
419.515
21
6
0
LINE
8
left_outsideCutPath
10
419.515
20
6
11
426.825
21
6
0
LINE
8
left_outsideCutPath
10
426.825
20
6
11
426.825
21
3
0
LINE
8
left_outsideCutPath
10
426.825
20
3
11
432
21
3
0
LINE
8
left_outsideCutPath
10
432
20
3
11
432
21
8.345
0
LINE
8
left_outsideCutPath
10
432
20
8.345
11
435
21
8.345
0
LINE
8
left_outsideCutPath
10
435
20
8.345
11
435
21
15.655
0
LINE
8
left_outsideCutPath
10
435
20
15.655
11
432
21
15.655
0
LINE
8
left_outsideCutPath
10
432
20
15.655
11
432
21
21
0
LINE
8
left_outsideCutPath
10
432
20
21
11
312
21
21
0
LINE
8
left_labelLayer
10
369.7737305
20
13.3755264
11
369.7737305
21
10.6403701
0
LINE
8
left_labelLayer
10
369.7737305
20
10.6403701
11
369.4819336
21
10.6403701
0
LINE
8
left_labelLayer
10
369.4819336
20
10.6403701
11
369.4819336
21
13.3755264
0
LINE
8
left_labelLayer
10
369.4819336
20
13.3755264
11
369.7737305
21
13.3755264
0
LINE
8
left_labelLayer
10
371.9147461
20
11.7354873
11
371.9147461
21
11.550917
0
LINE
8
left_labelLayer
10
371.9147461
20
11.550917
11
370.5875976
21
11.550917
0
LINE
8
left_labelLayer
10
371.8321289
20
10.9901748
11
371.8321289
21
10.7300186
0
LINE
8
left_labelLayer
10
370.5946289
20
11.7882217
11
371.6018555
21
11.7882217
0
ARC
8
left_labelLayer
10
371.1967531
20
11.7390853
40
1.133912
50
256.0088266
51
270.4848109
0
ARC
8
left_labelLayer
10
371.1141821
20
11.4185252
40
0.8029027
50
223.5465793
51
256.1957046
0
ARC
8
left_labelLayer
10
371.1597335
20
11.4516323
40
0.8587597
50
194.0877337
51
223.0537934
0
ARC
8
left_labelLayer
10
371.5771024
20
11.5657663
40
1.2913892
50
181.3574442
51
194.4919561
0
ARC
8
left_labelLayer
10
371.952063
20
11.5875028
40
1.6668091
50
179.9887153
51
181.7990817
0
ARC
8
left_labelLayer
10
371.8174325
20
11.5981102
40
1.5322131
50
168.9539194
51
180.384381
0
ARC
8
left_labelLayer
10
371.3170221
20
11.7000026
40
1.0215594
50
149.4070924
51
169.1853838
0
ARC
8
left_labelLayer
10
371.177616
20
11.7736551
40
0.8641066
50
140.1056932
51
148.9065915
0
ARC
8
left_labelLayer
10
371.0919407
20
11.8526408
40
0.7477362
50
92.4762449
51
140.5386518
0
ARC
8
left_labelLayer
10
371.1301131
20
11.5705165
40
1.0315727
50
89.9639744
51
93.9175755
0
ARC
8
left_labelLayer
10
371.1392185
20
11.7131408
40
0.8889884
50
74.2125413
51
90.5450505
0
ARC
8
left_labelLayer
10
371.1948982
20
11.9182864
40
0.6764362
50
41.2064722
51
74.0232722
0
ARC
8
left_labelLayer
10
371.0894488
20
11.8270284
40
0.8158889
50
11.599448
51
41.1495696
0
ARC
8
left_labelLayer
10
370.7271423
20
11.7434722
40
1.1876308
50
359.6147746
51
12.0337088
0
ARC
8
left_labelLayer
10
371.7585256
20
11.574313
40
1.1711617
50
181.1446569
51
190.8006863
0
ARC
8
left_labelLayer
10
371.3453498
20
11.4928229
40
0.750039
50
190.6005262
51
206.0275856
0
ARC
8
left_labelLayer
10
371.1625536
20
11.4064046
40
0.5478669
50
206.2950652
51
222.5557852
0
ARC
8
left_labelLayer
10
371.1463546
20
11.3979233
40
0.5302194
50
223.0645451
51
258.1401273
0
ARC
8
left_labelLayer
10
371.2108383
20
11.6634449
40
0.803371
50
257.5312361
51
270.431932
0
ARC
8
left_labelLayer
10
371.2115579
20
12.4012292
40
1.5411417
50
270.1984027
51
292.2090218
0
ARC
8
left_labelLayer
10
371.1374577
20
12.6140001
40
1.7661758
50
291.825514
51
293.1612018
0
ARC
8
left_labelLayer
10
371.1339982
20
12.3366746
40
1.7517791
50
287.9023138
51
293.4861075
0
ARC
8
left_labelLayer
10
371.2610753
20
11.9446045
40
1.3396295
50
281.9935798
51
287.8850387
0
ARC
8
left_labelLayer
10
371.2918781
20
11.8338803
40
1.2249423
50
275.9054622
51
281.6604674
0
ARC
8
left_labelLayer
10
371.2302222
20
12.4094175
40
1.8037699
50
271.9119826
51
275.9725848
0
ARC
8
left_labelLayer
10
371.2077256
20
12.9823958
40
2.3771822
50
269.9667879
51
271.9931385
0
ARC
8
left_labelLayer
10
371.1216466
20
11.7825785
40
0.5752018
50
89.4422286
51
106.2088947
0
ARC
8
left_labelLayer
10
371.0870418
20
11.9087548
40
0.4443856
50
106.4656802
51
137.9176704
0
ARC
8
left_labelLayer
10
371.1862577
20
11.8216273
40
0.5764176
50
138.0995454
51
160.5865635
0
ARC
8
left_labelLayer
10
371.4412775
20
11.72781
40
0.8481295
50
160.3353134
51
172.5315325
0
ARC
8
left_labelLayer
10
371.6926853
20
11.6875418
40
1.1026624
50
172.1548859
51
174.7612417
0
ARC
8
left_labelLayer
10
370.6075389
20
11.7938714
40
0.9943327
50
359.6744482
51
8.9224526
0
ARC
8
left_labelLayer
10
370.9628331
20
11.8517611
40
0.6343626
50
8.7342371
51
23.2772312
0
ARC
8
left_labelLayer
10
371.1315151
20
11.9225716
40
0.4514307
50
23.4819633
51
39.7073697
0
ARC
8
left_labelLayer
10
371.1729395
20
11.9535718
40
0.3997657
50
40.0822565
51
80.6243153
0
ARC
8
left_labelLayer
10
371.1302918
20
11.7580804
40
0.5996804
50
79.6467553
51
90.291001
0
LINE
8
left_labelLayer
10
373.2805664
20
12.5669326
11
373.2805664
21
12.3401748
0
LINE
8
left_labelLayer
10
373.2805664
20
12.3401748
11
372.7901367
21
12.3401748
0
LINE
8
left_labelLayer
10
372.7901367
20
12.3401748
11
372.7901367
21
10.6403701
0
LINE
8
left_labelLayer
10
372.7901367
20
10.6403701
11
372.4983398
21
10.6403701
0
LINE
8
left_labelLayer
10
372.4983398
20
10.6403701
11
372.4983398
21
12.3401748
0
LINE
8
left_labelLayer
10
372.4983398
20
12.3401748
11
372.1538086
21
12.3401748
0
LINE
8
left_labelLayer
10
372.1538086
20
12.3401748
11
372.1538086
21
12.4720108
0
LINE
8
left_labelLayer
10
372.1538086
20
12.4720108
11
372.4983398
21
12.5774795
0
LINE
8
left_labelLayer
10
372.4983398
20
12.5774795
11
372.4983398
21
12.6847061
0
LINE
8
left_labelLayer
10
373.4774414
20
13.3333389
11
373.4018555
21
13.0995498
0
LINE
8
left_labelLayer
10
372.7901367
20
12.6917373
11
372.7901367
21
12.5669326
0
LINE
8
left_labelLayer
10
372.7901367
20
12.5669326
11
373.2805664
21
12.5669326
0
ARC
8
left_labelLayer
10
373.6808934
20
12.6983005
40
1.1826317
50
167.5775875
51
180.6586312
0
ARC
8
left_labelLayer
10
373.1247813
20
12.8279535
40
0.6116886
50
141.7434302
51
168.2321777
0
ARC
8
left_labelLayer
10
373.0342337
20
12.875212
40
0.511676
50
98.2551529
51
139.6203035
0
ARC
8
left_labelLayer
10
373.1137345
20
12.5079476
40
0.8869294
50
89.6696906
51
99.9314245
0
ARC
8
left_labelLayer
10
373.1139576
20
12.4552416
40
0.9396335
50
81.5639945
51
89.7018213
0
ARC
8
left_labelLayer
10
373.0478958
20
11.9943516
40
1.4052302
50
75.9739797
51
81.6564553
0
ARC
8
left_labelLayer
10
372.934517
20
11.5240834
40
1.8889608
50
73.2964637
51
76.0946061
0
ARC
8
left_labelLayer
10
372.9630936
20
11.7522829
40
1.4169122
50
71.9612215
51
76.5918631
0
ARC
8
left_labelLayer
10
373.0730167
20
12.2185982
40
0.9378183
50
76.5182441
51
83.0217878
0
ARC
8
left_labelLayer
10
373.1113018
20
12.5264992
40
0.6275471
50
83.0760193
51
89.7925274
0
ARC
8
left_labelLayer
10
373.1100435
20
12.7605364
40
0.3935215
50
89.485925
51
103.4196927
0
ARC
8
left_labelLayer
10
373.074565
20
12.8968431
40
0.2527189
50
102.767768
51
144.3380292
0
ARC
8
left_labelLayer
10
373.1460396
20
12.8508557
40
0.3376282
50
145.0688533
51
162.1801638
0
ARC
8
left_labelLayer
10
373.3911
20
12.7684044
40
0.5961739
50
161.8436972
51
171.7846637
0
ARC
8
left_labelLayer
10
373.7907767
20
12.7083722
40
1.0003298
50
171.6526544
51
178.4384063
0
ARC
8
left_labelLayer
10
374.168049
20
12.6922944
40
1.3779123
50
178.1976236
51
180.0231636
0
LINE
8
left_labelLayer
10
374.5180664
20
10.8811905
11
374.5180664
21
10.6579483
0
LINE
8
left_labelLayer
10
373.6532226
20
11.1940811
11
373.6532226
21
12.3401748
0
LINE
8
left_labelLayer
10
373.6532226
20
12.3401748
11
373.3772461
21
12.3401748
0
LINE
8
left_labelLayer
10
373.3772461
20
12.3401748
11
373.3772461
21
12.4807998
0
LINE
8
left_labelLayer
10
373.3772461
20
12.4807998
11
373.6532226
21
12.6020889
0
LINE
8
left_labelLayer
10
373.6532226
20
12.6020889
11
373.7762695
21
13.013417
0
LINE
8
left_labelLayer
10
373.7762695
20
13.013417
11
373.9450195
21
13.013417
0
LINE
8
left_labelLayer
10
373.9450195
20
13.013417
11
373.9450195
21
12.5669326
0
LINE
8
left_labelLayer
10
373.9450195
20
12.5669326
11
374.5040039
21
12.5669326
0
LINE
8
left_labelLayer
10
374.5040039
20
12.5669326
11
374.5040039
21
12.3401748
0
LINE
8
left_labelLayer
10
374.5040039
20
12.3401748
11
373.9450195
21
12.3401748
0
LINE
8
left_labelLayer
10
373.9450195
20
12.3401748
11
373.9450195
21
11.2063858
0
ARC
8
left_labelLayer
10
374.2563943
20
11.8043511
40
0.958319
50
269.8804381
51
278.3027561
0
ARC
8
left_labelLayer
10
374.2658974
20
11.7273163
40
0.880721
50
278.4146904
51
279.008961
0
ARC
8
left_labelLayer
10
374.1580826
20
12.4161639
40
1.5779541
50
278.9588122
51
280.5107969
0
ARC
8
left_labelLayer
10
374.2605385
20
11.8665136
40
1.0188367
50
280.4844192
51
282.6272391
0
ARC
8
left_labelLayer
10
374.3503103
20
11.467708
40
0.6100525
50
282.5879085
51
285.579184
0
ARC
8
left_labelLayer
10
374.3966221
20
11.2975669
40
0.4337257
50
285.7224432
51
286.2603504
0
ARC
8
left_labelLayer
10
374.3953878
20
10.9174187
40
0.2870104
50
287.9888874
51
295.3049527
0
ARC
8
left_labelLayer
10
374.3261891
20
11.126764
40
0.5074942
50
283.3064482
51
288.1202377
0
ARC
8
left_labelLayer
10
374.2530087
20
11.4320255
40
0.821404
50
280.0071915
51
283.3732008
0
ARC
8
left_labelLayer
10
374.2042284
20
11.6966972
40
1.0905276
50
279.1860027
51
280.114667
0
ARC
8
left_labelLayer
10
374.1740531
20
11.8683847
40
1.2648327
50
275.5262395
51
279.2938235
0
ARC
8
left_labelLayer
10
374.207911
20
11.5147995
40
0.9096304
50
270.8933739
51
275.548298
0
ARC
8
left_labelLayer
10
374.2121812
20
11.3518706
40
0.7466566
50
270.0019808
51
270.7606727
0
ARC
8
left_labelLayer
10
374.2004328
20
11.3672559
40
0.7621329
50
253.7847941
51
270.885202
0
ARC
8
left_labelLayer
10
374.1101402
20
11.0593232
40
0.4412368
50
190.3818014
51
253.8772122
0
ARC
8
left_labelLayer
10
374.5703587
20
11.1837584
40
0.9171943
50
179.3551456
51
192.8477984
0
ARC
8
left_labelLayer
10
374.5325994
20
11.202712
40
0.5875914
50
179.6417692
51
189.7505434
0
ARC
8
left_labelLayer
10
374.3251616
20
11.1657132
40
0.3768865
50
189.5479093
51
205.7873549
0
ARC
8
left_labelLayer
10
374.2399139
20
11.1264022
40
0.2830316
50
206.1293416
51
221.4085718
0
ARC
8
left_labelLayer
10
374.2303605
20
11.1191525
40
0.2710728
50
221.5948902
51
262.3504397
0
ARC
8
left_labelLayer
10
374.2530935
20
11.2360532
40
0.3900214
50
261.3265203
51
270.1911283
0
LINE
8
back_outsideCutPath
10
0
20
42
11
0
21
36.655
0
LINE
8
back_outsideCutPath
10
0
20
36.655
11
3
21
36.655
0
LINE
8
back_outsideCutPath
10
3
20
36.655
11
3
21
29.345
0
LINE
8
back_outsideCutPath
10
3
20
29.345
11
0
21
29.345
0
LINE
8
back_outsideCutPath
10
0
20
29.345
11
0
21
24
0
LINE
8
back_outsideCutPath
10
0
20
24
11
17.765
21
24
0
LINE
8
back_outsideCutPath
10
17.765
20
24
11
17.765
21
27
0
LINE
8
back_outsideCutPath
10
17.765
20
27
11
25.075
21
27
0
LINE
8
back_outsideCutPath
10
25.075
20
27
11
25.075
21
24
0
LINE
8
back_outsideCutPath
10
25.075
20
24
11
32.385
21
24
0
LINE
8
back_outsideCutPath
10
32.385
20
24
11
32.385
21
27
0
LINE
8
back_outsideCutPath
10
32.385
20
27
11
39.695
21
27
0
LINE
8
back_outsideCutPath
10
39.695
20
27
11
39.695
21
24
0
LINE
8
back_outsideCutPath
10
39.695
20
24
11
47.005
21
24
0
LINE
8
back_outsideCutPath
10
47.005
20
24
11
47.005
21
27
0
LINE
8
back_outsideCutPath
10
47.005
20
27
11
54.315
21
27
0
LINE
8
back_outsideCutPath
10
54.315
20
27
11
54.315
21
24
0
LINE
8
back_outsideCutPath
10
54.315
20
24
11
61.625
21
24
0
LINE
8
back_outsideCutPath
10
61.625
20
24
11
61.625
21
27
0
LINE
8
back_outsideCutPath
10
61.625
20
27
11
68.935
21
27
0
LINE
8
back_outsideCutPath
10
68.935
20
27
11
68.935
21
24
0
LINE
8
back_outsideCutPath
10
68.935
20
24
11
76.245
21
24
0
LINE
8
back_outsideCutPath
10
76.245
20
24
11
76.245
21
27
0
LINE
8
back_outsideCutPath
10
76.245
20
27
11
83.555
21
27
0
LINE
8
back_outsideCutPath
10
83.555
20
27
11
83.555
21
24
0
LINE
8
back_outsideCutPath
10
83.555
20
24
11
90.865
21
24
0
LINE
8
back_outsideCutPath
10
90.865
20
24
11
90.865
21
27
0
LINE
8
back_outsideCutPath
10
90.865
20
27
11
98.175
21
27
0
LINE
8
back_outsideCutPath
10
98.175
20
27
11
98.175
21
24
0
LINE
8
back_outsideCutPath
10
98.175
20
24
11
105.485
21
24
0
LINE
8
back_outsideCutPath
10
105.485
20
24
11
105.485
21
27
0
LINE
8
back_outsideCutPath
10
105.485
20
27
11
112.795
21
27
0
LINE
8
back_outsideCutPath
10
112.795
20
27
11
112.795
21
24
0
LINE
8
back_outsideCutPath
10
112.795
20
24
11
120.105
21
24
0
LINE
8
back_outsideCutPath
10
120.105
20
24
11
120.105
21
27
0
LINE
8
back_outsideCutPath
10
120.105
20
27
11
127.415
21
27
0
LINE
8
back_outsideCutPath
10
127.415
20
27
11
127.415
21
24
0
LINE
8
back_outsideCutPath
10
127.415
20
24
11
134.725
21
24
0
LINE
8
back_outsideCutPath
10
134.725
20
24
11
134.725
21
27
0
LINE
8
back_outsideCutPath
10
134.725
20
27
11
142.035
21
27
0
LINE
8
back_outsideCutPath
10
142.035
20
27
11
142.035
21
24
0
LINE
8
back_outsideCutPath
10
142.035
20
24
11
149.345
21
24
0
LINE
8
back_outsideCutPath
10
149.345
20
24
11
149.345
21
27
0
LINE
8
back_outsideCutPath
10
149.345
20
27
11
156.655
21
27
0
LINE
8
back_outsideCutPath
10
156.655
20
27
11
156.655
21
24
0
LINE
8
back_outsideCutPath
10
156.655
20
24
11
163.965
21
24
0
LINE
8
back_outsideCutPath
10
163.965
20
24
11
163.965
21
27
0
LINE
8
back_outsideCutPath
10
163.965
20
27
11
171.275
21
27
0
LINE
8
back_outsideCutPath
10
171.275
20
27
11
171.275
21
24
0
LINE
8
back_outsideCutPath
10
171.275
20
24
11
178.585
21
24
0
LINE
8
back_outsideCutPath
10
178.585
20
24
11
178.585
21
27
0
LINE
8
back_outsideCutPath
10
178.585
20
27
11
185.895
21
27
0
LINE
8
back_outsideCutPath
10
185.895
20
27
11
185.895
21
24
0
LINE
8
back_outsideCutPath
10
185.895
20
24
11
193.205
21
24
0
LINE
8
back_outsideCutPath
10
193.205
20
24
11
193.205
21
27
0
LINE
8
back_outsideCutPath
10
193.205
20
27
11
200.515
21
27
0
LINE
8
back_outsideCutPath
10
200.515
20
27
11
200.515
21
24
0
LINE
8
back_outsideCutPath
10
200.515
20
24
11
207.825
21
24
0
LINE
8
back_outsideCutPath
10
207.825
20
24
11
207.825
21
27
0
LINE
8
back_outsideCutPath
10
207.825
20
27
11
215.135
21
27
0
LINE
8
back_outsideCutPath
10
215.135
20
27
11
215.135
21
24
0
LINE
8
back_outsideCutPath
10
215.135
20
24
11
222.445
21
24
0
LINE
8
back_outsideCutPath
10
222.445
20
24
11
222.445
21
27
0
LINE
8
back_outsideCutPath
10
222.445
20
27
11
229.755
21
27
0
LINE
8
back_outsideCutPath
10
229.755
20
27
11
229.755
21
24
0
LINE
8
back_outsideCutPath
10
229.755
20
24
11
237.065
21
24
0
LINE
8
back_outsideCutPath
10
237.065
20
24
11
237.065
21
27
0
LINE
8
back_outsideCutPath
10
237.065
20
27
11
244.375
21
27
0
LINE
8
back_outsideCutPath
10
244.375
20
27
11
244.375
21
24
0
LINE
8
back_outsideCutPath
10
244.375
20
24
11
251.685
21
24
0
LINE
8
back_outsideCutPath
10
251.685
20
24
11
251.685
21
27
0
LINE
8
back_outsideCutPath
10
251.685
20
27
11
258.995
21
27
0
LINE
8
back_outsideCutPath
10
258.995
20
27
11
258.995
21
24
0
LINE
8
back_outsideCutPath
10
258.995
20
24
11
266.305
21
24
0
LINE
8
back_outsideCutPath
10
266.305
20
24
11
266.305
21
27
0
LINE
8
back_outsideCutPath
10
266.305
20
27
11
273.615
21
27
0
LINE
8
back_outsideCutPath
10
273.615
20
27
11
273.615
21
24
0
LINE
8
back_outsideCutPath
10
273.615
20
24
11
280.925
21
24
0
LINE
8
back_outsideCutPath
10
280.925
20
24
11
280.925
21
27
0
LINE
8
back_outsideCutPath
10
280.925
20
27
11
288.235
21
27
0
LINE
8
back_outsideCutPath
10
288.235
20
27
11
288.235
21
24
0
LINE
8
back_outsideCutPath
10
288.235
20
24
11
295.545
21
24
0
LINE
8
back_outsideCutPath
10
295.545
20
24
11
306
21
24
0
LINE
8
back_outsideCutPath
10
306
20
24
11
306
21
29.345
0
LINE
8
back_outsideCutPath
10
306
20
29.345
11
303
21
29.345
0
LINE
8
back_outsideCutPath
10
303
20
29.345
11
303
21
36.655
0
LINE
8
back_outsideCutPath
10
303
20
36.655
11
306
21
36.655
0
LINE
8
back_outsideCutPath
10
306
20
36.655
11
306
21
42
0
LINE
8
back_outsideCutPath
10
306
20
42
11
0
21
42
0
LINE
8
back_labelLayer
10
149.5599609
20
31.8978714
11
149.5388672
21
31.8978714
0
LINE
8
back_labelLayer
10
149.5388672
20
31.8978714
11
149.4773438
21
31.6500199
0
LINE
8
back_labelLayer
10
149.4773438
20
31.6500199
11
149.2681641
21
31.6500199
0
LINE
8
back_labelLayer
10
149.2681641
20
31.6500199
11
149.2681641
21
34.3851761
0
LINE
8
back_labelLayer
10
149.2681641
20
34.3851761
11
149.5599609
21
34.3851761
0
LINE
8
back_labelLayer
10
149.5599609
20
34.3851761
11
149.5599609
21
33.720723
0
LINE
8
back_labelLayer
10
149.5458984
20
33.3199417
11
149.5599609
21
33.3199417
0
ARC
8
back_labelLayer
10
150.1734026
20
32.7164394
40
0.8918265
50
74.2392663
51
90.5624229
0
ARC
8
back_labelLayer
10
150.2323719
20
32.9327694
40
0.6676154
50
38.5631808
51
74.0669881
0
ARC
8
back_labelLayer
10
150.080615
20
32.8147698
40
0.8598388
50
16.4709397
51
38.4075609
0
ARC
8
back_labelLayer
10
149.6434261
20
32.677679
40
1.3179776
50
5.1338402
51
16.7973923
0
ARC
8
back_labelLayer
10
149.0914951
20
32.6190494
40
1.8729622
50
359.8779267
51
5.4093486
0
ARC
8
back_labelLayer
10
149.2536158
20
32.6049642
40
1.7108671
50
350.6562829
51
0.3380676
0
ARC
8
back_labelLayer
10
149.8500506
20
32.5035174
40
1.1058799
50
335.8305527
51
350.8254741
0
ARC
8
back_labelLayer
10
150.1124129
20
32.3902767
40
0.8201622
50
321.3161335
51
335.5436507
0
ARC
8
back_labelLayer
10
150.2127134
20
32.3085468
40
0.6907848
50
274.0640172
51
321.4080957
0
ARC
8
back_labelLayer
10
150.1659878
20
32.6045058
40
0.989643
50
269.9224561
51
275.5482252
0
ARC
8
back_labelLayer
10
150.1597277
20
32.4999372
40
0.8850873
50
255.7756019
51
270.3185415
0
ARC
8
back_labelLayer
10
150.1344716
20
32.387718
40
0.7701087
50
245.9801265
51
255.5455041
0
ARC
8
back_labelLayer
10
150.0855489
20
32.2739482
40
0.6462789
50
215.5850611
51
245.8361365
0
ARC
8
back_labelLayer
10
143.4759801
20
33.7155798
40
6.083983
50
358.1123969
51
0.0484356
0
ARC
8
back_labelLayer
10
145.1693678
20
33.6587375
40
4.3896419
50
355.7238801
51
358.1258817
0
ARC
8
back_labelLayer
10
145.9493711
20
33.6048574
40
3.6077951
50
355.4705074
51
355.6535367
0
ARC
8
back_labelLayer
10
150.1041491
20
32.9404647
40
0.6634332
50
95.1834942
51
145.1109023
0
ARC
8
back_labelLayer
10
150.1624643
20
32.611615
40
0.9966104
50
89.8744323
51
96.8145242
0
ARC
8
back_labelLayer
10
150.116353
20
32.5439259
40
0.8199839
50
89.5732097
51
100.7323623
0
ARC
8
back_labelLayer
10
150.0556522
20
32.8506157
40
0.5073613
50
100.4470171
51
119.6700456
0
ARC
8
back_labelLayer
10
149.9993627
20
32.9558556
40
0.3880689
50
120.140275
51
142.424904
0
ARC
8
back_labelLayer
10
150.0924863
20
32.894251
40
0.4995045
50
143.3382032
51
161.2559846
0
ARC
8
back_labelLayer
10
150.4819176
20
32.7559903
40
0.9127288
50
160.8926555
51
171.2334052
0
ARC
8
back_labelLayer
10
151.1320168
20
32.6511145
40
1.5712238
50
171.0667882
51
177.8456965
0
ARC
8
back_labelLayer
10
151.8081938
20
32.6167279
40
2.2482334
50
177.6177527
51
180.0425333
0
ARC
8
back_labelLayer
10
151.4892746
20
32.6075233
40
1.9293284
50
179.7762128
51
185.707498
0
ARC
8
back_labelLayer
10
150.7286391
20
32.5291538
40
1.164672
50
185.5925872
51
194.2049878
0
ARC
8
back_labelLayer
10
150.2413384
20
32.4026843
40
0.6612434
50
193.9430495
51
208.0218335
0
ARC
8
back_labelLayer
10
150.0441881
20
32.3023888
40
0.4401047
50
208.553664
51
217.5604493
0
ARC
8
back_labelLayer
10
150.0281211
20
32.2957053
40
0.4233178
50
218.1690378
51
253.8047404
0
ARC
8
back_labelLayer
10
150.1066401
20
32.537792
40
0.6777434
50
253.1383614
51
266.8482374
0
ARC
8
back_labelLayer
10
150.1286593
20
32.7975173
40
0.9383182
50
266.3776895
51
270.0508585
0
ARC
8
back_labelLayer
10
150.135716
20
32.4408639
40
0.5816976
50
269.3869611
51
285.8630384
0
ARC
8
back_labelLayer
10
150.1789333
20
32.2846703
40
0.4196408
50
286.0162663
51
326.8498023
0
ARC
8
back_labelLayer
10
149.9703467
20
32.4228514
40
0.6698423
50
326.710537
51
343.6661489
0
ARC
8
back_labelLayer
10
149.5799045
20
32.5421586
40
1.0780894
50
343.417086
51
353.6369819
0
ARC
8
back_labelLayer
10
148.9901361
20
32.6121387
40
1.6719856
50
353.4935205
51
0.2205449
0
ARC
8
back_labelLayer
10
148.9381595
20
32.6255511
40
1.723964
50
359.7681347
51
6.3095678
0
ARC
8
back_labelLayer
10
149.5875548
20
32.7000752
40
1.0703157
50
6.1648218
51
16.0397071
0
ARC
8
back_labelLayer
10
150.0058628
20
32.8233516
40
0.6342372
50
15.7779618
51
32.015109
0
ARC
8
back_labelLayer
10
150.1363021
20
32.8980473
40
0.4840722
50
32.7035584
51
35.5243202
0
ARC
8
back_labelLayer
10
150.1840217
20
32.9319656
40
0.4255266
50
35.5407976
51
79.8011529
0
ARC
8
back_labelLayer
10
150.1268784
20
32.6890454
40
0.6748561
50
78.6780346
51
90.3750454
0
LINE
8
back_labelLayer
10
152.8751953
20
31.6500199
11
152.6589844
21
31.6500199
0
LINE
8
back_labelLayer
10
152.6589844
20
31.6500199
11
152.6009766
21
31.9242386
0
LINE
8
back_labelLayer
10
152.6009766
20
31.9242386
11
152.5869141
21
31.9242386
0
LINE
8
back_labelLayer
10
152.2634766
20
32.7943558
11
152.5904297
21
32.8049027
0
LINE
8
back_labelLayer
10
152.5904297
20
32.8049027
11
152.5904297
21
32.9244339
0
LINE
8
back_labelLayer
10
151.6359375
20
33.2197464
11
151.5462891
21
33.4429886
0
LINE
8
back_labelLayer
10
152.8751953
20
32.9648636
11
152.8751953
21
31.6500199
0
LINE
8
back_labelLayer
10
152.5833984
20
32.4234574
11
152.5833984
21
32.5974808
0
LINE
8
back_labelLayer
10
152.5833984
20
32.5974808
11
152.2916016
21
32.5851761
0
ARC
8
back_labelLayer
10
151.6375295
20
32.6738245
40
1.2096321
50
314.7444333
51
321.7071692
0
ARC
8
back_labelLayer
10
151.9347251
20
32.3718458
40
0.7859426
50
304.8484359
51
314.8532236
0
ARC
8
back_labelLayer
10
152.0774802
20
32.1686447
40
0.5376119
50
294.393168
51
304.7372074
0
ARC
8
back_labelLayer
10
152.0287026
20
32.2950246
40
0.6729001
50
281.297957
51
293.7314718
0
ARC
8
back_labelLayer
10
151.9642287
20
32.607486
40
0.9919396
50
272.9333667
51
281.4140445
0
ARC
8
back_labelLayer
10
151.9428532
20
32.9280813
40
1.313218
50
269.9539115
51
273.148952
0
ARC
8
back_labelLayer
10
151.935472
20
32.5103302
40
0.8954889
50
258.6719613
51
270.4046839
0
ARC
8
back_labelLayer
10
151.8732703
20
32.2127816
40
0.5915245
50
238.3273716
51
258.9183432
0
ARC
8
back_labelLayer
10
151.8304074
20
32.1345812
40
0.5024862
50
227.7689957
51
237.8049803
0
ARC
8
back_labelLayer
10
151.8169968
20
32.1158607
40
0.4796185
50
192.0827469
51
227.4521094
0
ARC
8
back_labelLayer
10
152.0642659
20
32.1768158
40
0.7342109
50
179.5457232
51
192.6949867
0
ARC
8
back_labelLayer
10
151.8345558
20
32.2034
40
0.5049048
50
115.4904732
51
182.3568112
0
ARC
8
back_labelLayer
10
152.0874185
20
31.7395978
40
1.0327785
50
101.356857
51
117.0798741
0
ARC
8
back_labelLayer
10
152.2904879
20
30.7906366
40
2.0031843
50
92.4696085
51
101.706511
0
ARC
8
back_labelLayer
10
152.3489151
20
29.9437711
40
2.8518648
50
91.7167717
51
92.9092355
0
ARC
8
back_labelLayer
10
151.7523232
20
32.9289186
40
0.8381185
50
359.6934174
51
8.0035831
0
ARC
8
back_labelLayer
10
152.0693737
20
32.9751071
40
0.5177278
50
7.827163
51
20.6041195
0
ARC
8
back_labelLayer
10
152.2487776
20
33.0437369
40
0.3256499
50
20.4095378
51
41.4479015
0
ARC
8
back_labelLayer
10
152.2752885
20
33.0583105
40
0.2962057
50
42.7294723
51
71.038123
0
ARC
8
back_labelLayer
10
152.2128799
20
32.8886194
40
0.4769834
50
70.5717105
51
83.992905
0
ARC
8
back_labelLayer
10
152.1830637
20
32.6464185
40
0.7209876
50
83.6507327
51
90.1751751
0
ARC
8
back_labelLayer
10
152.1882943
20
32.417407
40
0.9500248
50
90.4484041
51
103.7665252
0
ARC
8
back_labelLayer
10
152.3000139
20
31.9462844
40
1.4342035
50
103.6226723
51
112.4320196
0
ARC
8
back_labelLayer
10
152.4914929
20
31.4628098
40
1.9541753
50
112.2121998
51
115.9641644
0
ARC
8
back_labelLayer
10
152.1848433
20
32.2587966
40
1.3453855
50
106.3568676
51
118.3349693
0
ARC
8
back_labelLayer
10
152.2422286
20
32.0815025
40
1.5316733
50
104.5165179
51
106.5488889
0
ARC
8
back_labelLayer
10
152.2001234
20
32.2568756
40
1.3513485
50
90.0714793
51
104.6521022
0
ARC
8
back_labelLayer
10
152.205426
20
32.3758486
40
1.2323942
50
81.5680108
51
90.3249059
0
ARC
8
back_labelLayer
10
152.2766827
20
32.8400662
40
0.7627495
50
68.2272818
51
81.74948
0
ARC
8
back_labelLayer
10
152.3759268
20
33.0869928
40
0.4966262
50
47.8683084
51
68.2933661
0
ARC
8
back_labelLayer
10
152.3920351
20
33.1191556
40
0.4620685
50
19.233123
51
46.6741232
0
ARC
8
back_labelLayer
10
152.1237052
20
33.0193365
40
0.7483264
50
6.3378799
51
19.6815348
0
ARC
8
back_labelLayer
10
151.7270318
20
32.9688162
40
1.1481704
50
359.8027561
51
6.6583589
0
ARC
8
back_labelLayer
10
152.0057059
20
32.6590527
40
0.8033904
50
269.5791337
51
282.0414627
0
ARC
8
back_labelLayer
10
152.0643076
20
32.399127
40
0.5369674
50
281.7121043
51
306.4594349
0
ARC
8
back_labelLayer
10
152.0903075
20
32.3563764
40
0.4871543
50
306.9879423
51
313.8560781
0
ARC
8
back_labelLayer
10
152.0872009
20
32.3555083
40
0.488689
50
314.189247
51
347.4270026
0
ARC
8
back_labelLayer
10
151.8424036
20
32.4168537
40
0.7409992
50
346.9177442
51
0.2824237
0
ARC
8
back_labelLayer
10
151.6773397
20
32.4234556
40
0.9060589
50
359.8134958
51
0.0001136
0
ARC
8
back_labelLayer
10
152.3610108
20
30.4437495
40
2.1425512
50
91.8564567
51
96.4478064
0
ARC
8
back_labelLayer
10
152.2643876
20
31.2798572
40
1.3008833
50
96.3544902
51
102.9952764
0
ARC
8
back_labelLayer
10
152.1332309
20
31.8371073
40
0.728416
50
102.7995424
51
113.2432901
0
ARC
8
back_labelLayer
10
152.0250959
20
32.095718
40
0.4481288
50
113.5883322
51
121.6805937
0
ARC
8
back_labelLayer
10
151.9499866
20
32.2101052
40
0.311364
50
120.9734144
51
172.417966
0
ARC
8
back_labelLayer
10
152.0967949
20
32.1807782
40
0.4608604
50
171.2119574
51
180.2059814
0
ARC
8
back_labelLayer
10
152.0529375
20
32.1756759
40
0.4170143
50
179.5265959
51
192.7786366
0
ARC
8
back_labelLayer
10
151.9118678
20
32.1414812
40
0.2718836
50
192.3265451
51
222.0579755
0
ARC
8
back_labelLayer
10
151.9013727
20
32.1352054
40
0.2598982
50
222.5806602
51
229.254873
0
ARC
8
back_labelLayer
10
151.9368324
20
32.1808571
40
0.3176429
50
229.7836792
51
254.2723177
0
ARC
8
back_labelLayer
10
151.9840581
20
32.3382361
40
0.481939
50
253.9397286
51
266.4532191
0
ARC
8
back_labelLayer
10
151.9991259
20
32.5119496
40
0.6562659
50
266.0784646
51
270.0592639
0
LINE
8
back_labelLayer
10
154.7613281
20
33.5115433
11
154.6716797
21
33.2636917
0
LINE
8
back_labelLayer
10
154.7332031
20
31.9734574
11
154.7332031
21
31.7150589
0
ARC
8
back_labelLayer
10
154.236982
20
32.7053844
40
1.0905605
50
256.4243558
51
270.488982
0
ARC
8
back_labelLayer
10
154.1498355
20
32.3652616
40
0.7395007
50
221.7976357
51
256.8020707
0
ARC
8
back_labelLayer
10
154.2342247
20
32.4276139
40
0.8440274
50
196.0166274
51
221.1349611
0
ARC
8
back_labelLayer
10
154.6583741
20
32.5572552
40
1.2875045
50
183.5913792
51
196.3539107
0
ARC
8
back_labelLayer
10
155.1335371
20
32.5991162
40
1.7643976
50
179.9389434
51
183.9815304
0
ARC
8
back_labelLayer
10
154.9791189
20
32.6113634
40
1.6100116
50
169.8978236
51
180.3689329
0
ARC
8
back_labelLayer
10
154.4186458
20
32.7150432
40
1.0400487
50
153.0875606
51
170.1051346
0
ARC
8
back_labelLayer
10
154.2059843
20
32.8166586
40
0.8044443
50
138.6550745
51
152.6854073
0
ARC
8
back_labelLayer
10
154.1662925
20
32.8455816
40
0.7555527
50
101.4913003
51
138.3133568
0
ARC
8
back_labelLayer
10
154.2574132
20
32.4663502
40
1.145418
50
89.5892272
51
102.1788179
0
ARC
8
back_labelLayer
10
154.2644183
20
32.2949424
40
1.3167967
50
77.7702078
51
89.9474962
0
ARC
8
back_labelLayer
10
154.2394996
20
32.157452
40
1.4564536
50
74.6797525
51
77.957928
0
ARC
8
back_labelLayer
10
154.3741244
20
32.6451828
40
0.9504853
50
70.0945062
51
74.7385571
0
ARC
8
back_labelLayer
10
154.5021743
20
32.9961064
40
0.5769312
50
63.5035011
51
70.1859479
0
ARC
8
back_labelLayer
10
154.556618
20
33.1109831
40
0.4498384
50
62.930254
51
63.1817009
0
ARC
8
back_labelLayer
10
154.192333
20
32.0573422
40
1.2980957
50
68.3294478
51
74.8831412
0
ARC
8
back_labelLayer
10
154.1238421
20
31.8144837
40
1.5504145
50
74.7801825
51
77.4496909
0
ARC
8
back_labelLayer
10
154.1957519
20
32.1520092
40
1.2053322
50
77.2998729
51
81.7345425
0
ARC
8
back_labelLayer
10
154.2481947
20
32.5174387
40
0.8361597
50
81.69097
51
87.5080291
0
ARC
8
back_labelLayer
10
154.2583046
20
32.7064742
40
0.6468662
50
87.6746532
51
89.9743883
0
ARC
8
back_labelLayer
10
154.2441281
20
32.7062555
40
0.6472464
50
88.7193627
51
112.5667997
0
ARC
8
back_labelLayer
10
154.1981371
20
32.8583129
40
0.4894398
50
114.4265673
51
161.663281
0
ARC
8
back_labelLayer
10
154.6550212
20
32.6794846
40
0.9797301
50
160.1418918
51
175.1367794
0
ARC
8
back_labelLayer
10
155.2838088
20
32.6088744
40
1.6123304
50
174.5309124
51
180.1550223
0
ARC
8
back_labelLayer
10
155.0846282
20
32.5972147
40
1.4131626
50
179.7041337
51
188.0743637
0
ARC
8
back_labelLayer
10
154.5756233
20
32.5227423
40
0.8987462
50
187.9315481
51
200.3885697
0
ARC
8
back_labelLayer
10
154.3004006
20
32.4207863
40
0.605246
50
200.4183737
51
216.6393104
0
ARC
8
back_labelLayer
10
154.1850215
20
32.3383045
40
0.4634496
50
216.9695731
51
261.3102641
0
ARC
8
back_labelLayer
10
154.2359417
20
32.5756995
40
0.705961
50
260.135867
51
270.2691395
0
ARC
8
back_labelLayer
10
154.2335896
20
33.0912298
40
1.2214966
50
270.2658733
51
286.2891762
0
ARC
8
back_labelLayer
10
154.1593333
20
33.3681637
40
1.5081554
50
286.046021
51
292.3653434
0
ARC
8
back_labelLayer
10
154.3570898
20
32.4549639
40
0.8300124
50
282.0344928
51
296.9454369
0
ARC
8
back_labelLayer
10
154.2717308
20
32.839653
40
1.2240486
50
272.5980316
51
282.1877983
0
ARC
8
back_labelLayer
10
154.2472485
20
33.215105
40
1.6002419
50
269.9656488
51
272.8643607
0
LINE
8
back_labelLayer
10
155.4644531
20
32.6361527
11
155.4785156
21
32.6361527
0
LINE
8
back_labelLayer
10
155.7087891
20
32.9174027
11
156.3310547
21
33.5765824
0
LINE
8
back_labelLayer
10
156.3310547
20
33.5765824
11
156.6773438
21
33.5765824
0
LINE
8
back_labelLayer
10
156.6773438
20
33.5765824
11
155.896875
21
32.7556839
0
LINE
8
back_labelLayer
10
155.896875
20
32.7556839
11
156.7318359
21
31.6500199
0
LINE
8
back_labelLayer
10
156.7318359
20
31.6500199
11
156.3785156
21
31.6500199
0
LINE
8
back_labelLayer
10
156.3785156
20
31.6500199
11
155.6982422
21
32.5605667
0
LINE
8
back_labelLayer
10
155.6982422
20
32.5605667
11
155.4785156
21
32.370723
0
LINE
8
back_labelLayer
10
155.4785156
20
32.370723
11
155.4785156
21
31.6500199
0
LINE
8
back_labelLayer
10
155.4785156
20
31.6500199
11
155.1902344
21
31.6500199
0
LINE
8
back_labelLayer
10
155.1902344
20
31.6500199
11
155.1902344
21
34.3851761
0
LINE
8
back_labelLayer
10
155.1902344
20
34.3851761
11
155.4785156
21
34.3851761
0
LINE
8
back_labelLayer
10
155.4785156
20
34.3851761
11
155.4785156
21
32.9349808
0
ARC
8
back_labelLayer
10
156.8883218
20
31.6382387
40
1.727248
50
142.3233387
51
144.7077008
0
ARC
8
back_labelLayer
10
157.8084192
20
30.928546
40
2.8892474
50
140.4331636
51
142.3365375
0
ARC
8
back_labelLayer
10
159.0069234
20
29.9419717
40
4.4415797
50
139.2799236
51
140.4704217
0
ARC
8
back_labelLayer
10
160.3927662
20
28.750244
40
6.2693582
50
138.34171
51
139.2877517
0
ARC
8
back_labelLayer
10
153.5337247
20
32.9386279
40
1.9447943
50
358.2739443
51
359.8925518
0
ARC
8
back_labelLayer
10
152.0213153
20
32.9807794
40
3.4577889
50
357.504079
51
358.3306574
0
ARC
8
back_labelLayer
10
149.7577567
20
33.0807431
40
5.7235536
50
356.6325141
51
357.4911169
0
ARC
8
back_labelLayer
10
145.9980499
20
33.2999989
40
9.4896478
50
356.0327575
51
356.6443938
0
ARC
8
back_labelLayer
10
144.2792876
20
33.4145075
40
11.212215
50
356.0193107
51
356.0566743
0
LINE
8
right_outsideCutPath
10
312
20
42
11
312
21
36.655
0
LINE
8
right_outsideCutPath
10
312
20
36.655
11
309
21
36.655
0
LINE
8
right_outsideCutPath
10
309
20
36.655
11
309
21
29.345
0
LINE
8
right_outsideCutPath
10
309
20
29.345
11
312
21
29.345
0
LINE
8
right_outsideCutPath
10
312
20
29.345
11
312
21
24
0
LINE
8
right_outsideCutPath
10
312
20
24
11
317.175
21
24
0
LINE
8
right_outsideCutPath
10
317.175
20
24
11
317.175
21
27
0
LINE
8
right_outsideCutPath
10
317.175
20
27
11
324.485
21
27
0
LINE
8
right_outsideCutPath
10
324.485
20
27
11
324.485
21
24
0
LINE
8
right_outsideCutPath
10
324.485
20
24
11
331.795
21
24
0
LINE
8
right_outsideCutPath
10
331.795
20
24
11
331.795
21
27
0
LINE
8
right_outsideCutPath
10
331.795
20
27
11
339.105
21
27
0
LINE
8
right_outsideCutPath
10
339.105
20
27
11
339.105
21
24
0
LINE
8
right_outsideCutPath
10
339.105
20
24
11
346.415
21
24
0
LINE
8
right_outsideCutPath
10
346.415
20
24
11
346.415
21
27
0
LINE
8
right_outsideCutPath
10
346.415
20
27
11
353.725
21
27
0
LINE
8
right_outsideCutPath
10
353.725
20
27
11
353.725
21
24
0
LINE
8
right_outsideCutPath
10
353.725
20
24
11
361.035
21
24
0
LINE
8
right_outsideCutPath
10
361.035
20
24
11
361.035
21
27
0
LINE
8
right_outsideCutPath
10
361.035
20
27
11
368.345
21
27
0
LINE
8
right_outsideCutPath
10
368.345
20
27
11
368.345
21
24
0
LINE
8
right_outsideCutPath
10
368.345
20
24
11
375.655
21
24
0
LINE
8
right_outsideCutPath
10
375.655
20
24
11
375.655
21
27
0
LINE
8
right_outsideCutPath
10
375.655
20
27
11
382.965
21
27
0
LINE
8
right_outsideCutPath
10
382.965
20
27
11
382.965
21
24
0
LINE
8
right_outsideCutPath
10
382.965
20
24
11
390.275
21
24
0
LINE
8
right_outsideCutPath
10
390.275
20
24
11
390.275
21
27
0
LINE
8
right_outsideCutPath
10
390.275
20
27
11
397.585
21
27
0
LINE
8
right_outsideCutPath
10
397.585
20
27
11
397.585
21
24
0
LINE
8
right_outsideCutPath
10
397.585
20
24
11
404.895
21
24
0
LINE
8
right_outsideCutPath
10
404.895
20
24
11
404.895
21
27
0
LINE
8
right_outsideCutPath
10
404.895
20
27
11
412.205
21
27
0
LINE
8
right_outsideCutPath
10
412.205
20
27
11
412.205
21
24
0
LINE
8
right_outsideCutPath
10
412.205
20
24
11
419.515
21
24
0
LINE
8
right_outsideCutPath
10
419.515
20
24
11
419.515
21
27
0
LINE
8
right_outsideCutPath
10
419.515
20
27
11
426.825
21
27
0
LINE
8
right_outsideCutPath
10
426.825
20
27
11
426.825
21
24
0
LINE
8
right_outsideCutPath
10
426.825
20
24
11
432
21
24
0
LINE
8
right_outsideCutPath
10
432
20
24
11
432
21
29.345
0
LINE
8
right_outsideCutPath
10
432
20
29.345
11
435
21
29.345
0
LINE
8
right_outsideCutPath
10
435
20
29.345
11
435
21
36.655
0
LINE
8
right_outsideCutPath
10
435
20
36.655
11
432
21
36.655
0
LINE
8
right_outsideCutPath
10
432
20
36.655
11
432
21
42
0
LINE
8
right_outsideCutPath
10
432
20
42
11
312
21
42
0
LINE
8
right_labelLayer
10
369.3852539
20
34.0054793
11
369.3448242
21
33.7347762
0
LINE
8
right_labelLayer
10
368.5678711
20
33.0984481
11
368.5678711
21
32.0648543
0
LINE
8
right_labelLayer
10
368.5678711
20
32.0648543
11
368.2760742
21
32.0648543
0
LINE
8
right_labelLayer
10
368.2760742
20
32.0648543
11
368.2760742
21
33.9914168
0
LINE
8
right_labelLayer
10
368.2760742
20
33.9914168
11
368.5168945
21
33.9914168
0
LINE
8
right_labelLayer
10
368.5168945
20
33.9914168
11
368.550293
21
33.6345809
0
LINE
8
right_labelLayer
10
368.550293
20
33.6345809
11
368.5643555
21
33.6345809
0
ARC
8
right_labelLayer
10
369.1579777
20
32.6870014
40
1.339575
50
84.9923145
51
90.1281974
0
ARC
8
right_labelLayer
10
369.1901474
20
33.0474261
40
0.977718
50
78.4891839
51
85.0266359
0
ARC
8
right_labelLayer
10
369.0652741
20
32.4794714
40
1.2860554
50
77.4453811
51
81.6359431
0
ARC
8
right_labelLayer
10
369.1213092
20
32.865697
40
0.895787
50
81.588469
51
87.1916039
0
ARC
8
right_labelLayer
10
369.1334803
20
33.0766568
40
0.6844867
50
87.3439759
51
89.965983
0
ARC
8
right_labelLayer
10
369.1306528
20
33.2555566
40
0.5055971
50
89.6335187
51
137.0881088
0
ARC
8
right_labelLayer
10
369.2547855
20
33.1159771
40
0.6917748
50
135.6211586
51
138.837666
0
ARC
8
right_labelLayer
10
369.2365544
20
33.1337688
40
0.6663407
50
138.9575955
51
174.5422159
0
ARC
8
right_labelLayer
10
369.4535356
20
33.0998144
40
0.8856655
50
173.6906489
51
180.0883904
0
ARC
8
right_labelLayer
10
369.4228835
20
33.1508901
40
0.9854071
50
139.4139247
51
150.6032869
0
ARC
8
right_labelLayer
10
369.2461982
20
33.3022914
40
0.752727
50
124.2321251
51
139.4161325
0
ARC
8
right_labelLayer
10
369.151728
20
33.4448942
40
0.5816878
50
89.6796315
51
124.4405556
0
LINE
8
right_labelLayer
10
370.0374023
20
33.9914168
11
370.0374023
21
32.0648543
0
LINE
8
right_labelLayer
10
370.0374023
20
32.0648543
11
369.7456055
21
32.0648543
0
LINE
8
right_labelLayer
10
369.7456055
20
32.0648543
11
369.7456055
21
33.9914168
0
LINE
8
right_labelLayer
10
369.7456055
20
33.9914168
11
370.0374023
21
33.9914168
0
ARC
8
right_labelLayer
10
370.0443466
20
34.5154866
40
0.3233567
50
170.8453116
51
180.3542831
0
ARC
8
right_labelLayer
10
369.9232886
20
34.5357271
40
0.2006218
50
155.9678896
51
171.0516008
0
ARC
8
right_labelLayer
10
369.8646579
20
34.5617382
40
0.1364804
50
133.787827
51
155.9171568
0
ARC
8
right_labelLayer
10
369.8863045
20
34.5378085
40
0.1687373
50
92.6444731
51
133.4712405
0
ARC
8
right_labelLayer
10
369.8931451
20
34.4840684
40
0.2227783
50
89.9700061
51
93.7642976
0
ARC
8
right_labelLayer
10
369.8959261
20
34.5349447
40
0.1719225
50
46.3707567
51
90.8879954
0
ARC
8
right_labelLayer
10
369.9130375
20
34.5526092
40
0.14733
50
17.7250538
51
46.4474652
0
ARC
8
right_labelLayer
10
369.8332549
20
34.5251337
40
0.2316977
50
4.942493
51
18.1903045
0
ARC
8
right_labelLayer
10
369.7317937
20
34.5141604
40
0.3337344
50
359.8844201
51
5.3186582
0
ARC
8
right_labelLayer
10
369.7636267
20
34.511436
40
0.3019076
50
349.8346703
51
0.3892743
0
ARC
8
right_labelLayer
10
369.8735332
20
34.4909351
40
0.1901096
50
332.632418
51
350.070272
0
ARC
8
right_labelLayer
10
369.9163166
20
34.4698095
40
0.1424062
50
313.6156389
51
332.2677905
0
ARC
8
right_labelLayer
10
369.8957012
20
34.488582
40
0.1702294
50
269.1789019
51
314.2806178
0
ARC
8
right_labelLayer
10
369.8913276
20
34.5037129
40
0.185353
50
250.4998928
51
270.5978708
0
ARC
8
right_labelLayer
10
369.8857175
20
34.4827381
40
0.1637177
50
225.1300794
51
249.9003107
0
ARC
8
right_labelLayer
10
369.8769351
20
34.473037
40
0.1506476
50
197.7933025
51
224.8942713
0
ARC
8
right_labelLayer
10
369.9591371
20
34.5012067
40
0.2375318
50
184.9926356
51
198.2040066
0
ARC
8
right_labelLayer
10
370.0655404
20
34.5127689
40
0.3445449
50
179.8805552
51
185.368173
0
LINE
8
right_labelLayer
10
371.5666992
20
33.9914168
11
372.2329101
21
33.9914168
0
LINE
8
right_labelLayer
10
372.2329101
20
33.9914168
11
372.2329101
21
33.8068465
0
LINE
8
right_labelLayer
10
372.2329101
20
33.8068465
11
371.8760742
21
33.764659
0
LINE
8
right_labelLayer
10
371.2186523
20
32.3707137
11
371.559668
21
32.3707137
0
LINE
8
right_labelLayer
10
371.4665039
20
32.1087996
11
371.1166992
21
32.1087996
0
ARC
8
right_labelLayer
10
371.5042194
20
33.4703771
40
0.4742129
50
29.4585815
51
38.3577156
0
ARC
8
right_labelLayer
10
371.3104351
20
33.3597572
40
0.6973459
50
23.1844951
51
29.5420564
0
ARC
8
right_labelLayer
10
371.125468
20
33.2777319
40
0.8996721
50
21.2508104
51
23.3488542
0
ARC
8
right_labelLayer
10
371.4398361
20
33.4027587
40
0.56137
50
6.8503867
51
20.9872611
0
ARC
8
right_labelLayer
10
371.2816926
20
33.3813186
40
0.7209459
50
359.8712094
51
7.0430366
0
ARC
8
right_labelLayer
10
371.3337454
20
33.372742
40
0.6689275
50
342.5649487
51
0.5958221
0
ARC
8
right_labelLayer
10
371.4571125
20
33.3386754
40
0.5410393
50
310.6098262
51
342.0923832
0
ARC
8
right_labelLayer
10
371.387931
20
33.4191476
40
0.647161
50
284.9315799
51
310.6222296
0
ARC
8
right_labelLayer
10
371.3013585
20
33.722507
40
0.9625997
50
272.5334847
51
285.2580076
0
ARC
8
right_labelLayer
10
371.2791033
20
34.026532
40
1.2673418
50
269.9690175
51
272.9310856
0
ARC
8
right_labelLayer
10
371.2763352
20
33.6969482
40
0.9377603
50
263.4835831
51
270.1272511
0
ARC
8
right_labelLayer
10
371.2610669
20
33.5519109
40
0.7919283
50
259.4963035
51
263.3902295
0
ARC
8
right_labelLayer
10
371.355597
20
32.3122413
40
0.5192338
50
117.3933566
51
128.4095337
0
ARC
8
right_labelLayer
10
371.2219293
20
32.4780654
40
0.3062556
50
128.0881546
51
147.1398986
0
ARC
8
right_labelLayer
10
371.1499128
20
32.5263948
40
0.2195438
50
147.5369035
51
180.2593153
0
ARC
8
right_labelLayer
10
371.0815953
20
32.5235327
40
0.1512357
50
179.2921103
51
198.3581623
0
ARC
8
right_labelLayer
10
371.0532781
20
32.5160903
40
0.1220299
50
199.2291398
51
239.5692022
0
ARC
8
right_labelLayer
10
371.0770421
20
32.5490135
40
0.1624989
50
238.2240229
51
239.8441695
0
ARC
8
right_labelLayer
10
371.095489
20
32.5870669
40
0.2046938
50
240.7303984
51
254.5024495
0
ARC
8
right_labelLayer
10
371.1513566
20
32.7795916
40
0.4051533
50
254.163844
51
262.2120551
0
ARC
8
right_labelLayer
10
371.1955964
20
33.0885788
40
0.7172879
50
262.0553535
51
267.2086041
0
ARC
8
right_labelLayer
10
371.2169763
20
33.4805844
40
1.109872
50
267.0917265
51
270.0865207
0
ARC
8
right_labelLayer
10
371.5660477
20
31.1762982
40
1.1944325
50
81.5743733
51
90.3060331
0
ARC
8
right_labelLayer
10
371.6315648
20
31.6035798
40
0.7621659
50
68.3671453
51
81.7399311
0
ARC
8
right_labelLayer
10
371.7171362
20
31.8222707
40
0.527333
50
52.1879877
51
68.2500315
0
ARC
8
right_labelLayer
10
371.7770161
20
31.9029546
40
0.4268853
50
8.6200757
51
51.8982928
0
ARC
8
right_labelLayer
10
371.5671415
20
31.8585487
40
0.6411657
50
359.7431656
51
9.7325142
0
ARC
8
right_labelLayer
10
371.5765544
20
31.8477342
40
0.6317963
50
340.5268541
51
0.7201147
0
ARC
8
right_labelLayer
10
371.6693811
20
31.824621
40
0.5366525
50
302.9903586
51
339.5494687
0
ARC
8
right_labelLayer
10
371.5720805
20
31.9482309
40
0.6934594
50
303.1868471
51
304.1725091
0
ARC
8
right_labelLayer
10
371.4811213
20
32.1056835
40
0.8750762
50
286.2542916
51
302.5280097
0
ARC
8
right_labelLayer
10
371.3158591
20
32.6507942
40
1.4446679
50
276.4939581
51
286.4954079
0
ARC
8
right_labelLayer
10
371.2127429
20
33.5127782
40
2.3127888
50
269.7544717
51
276.6169703
0
ARC
8
right_labelLayer
10
371.1951311
20
32.8348689
40
1.6348765
50
262.5635416
51
270.2698876
0
ARC
8
right_labelLayer
10
371.1150581
20
32.2413574
40
1.0359965
50
251.2101927
51
262.7064126
0
ARC
8
right_labelLayer
10
370.9996486
20
31.9026126
40
0.6781315
50
235.9668606
51
251.2228803
0
ARC
8
right_labelLayer
10
370.8773223
20
31.7280997
40
0.4650623
50
208.9036826
51
236.4231269
0
ARC
8
right_labelLayer
10
370.8885524
20
31.7233912
40
0.4727141
50
182.2079775
51
207.7460933
0
ARC
8
right_labelLayer
10
371.031476
20
31.7376657
40
0.6161438
50
179.9780958
51
183.0223725
0
ARC
8
right_labelLayer
10
370.8614351
20
31.7457289
40
0.4461717
50
138.3916282
51
181.0052587
0
ARC
8
right_labelLayer
10
370.9085495
20
31.7033873
40
0.5095157
50
113.8120525
51
138.3496586
0
ARC
8
right_labelLayer
10
370.9979276
20
31.5103828
40
0.7221863
50
102.2871466
51
114.1172254
0
ARC
8
right_labelLayer
10
370.969842
20
32.4915985
40
0.3028471
50
216.5861551
51
245.4968698
0
ARC
8
right_labelLayer
10
371.0132139
20
32.528391
40
0.3596215
50
215.4648911
51
217.1743774
0
ARC
8
right_labelLayer
10
370.9409844
20
32.4762217
40
0.2705245
50
182.1768152
51
215.3415162
0
ARC
8
right_labelLayer
10
371.0052039
20
32.4831143
40
0.3349889
50
179.9830057
51
182.9376742
0
ARC
8
right_labelLayer
10
371.0038897
20
32.4860338
40
0.3336868
50
161.7225201
51
180.4842297
0
ARC
8
right_labelLayer
10
370.9671986
20
32.4960467
40
0.2957135
50
144.4962759
51
161.3351402
0
ARC
8
right_labelLayer
10
371.0649978
20
32.4231591
40
0.4176672
50
132.7258758
51
144.1480178
0
ARC
8
right_labelLayer
10
371.2217513
20
32.2557627
40
0.6469958
50
125.2212463
51
132.8653831
0
ARC
8
right_labelLayer
10
371.3793524
20
32.0369071
40
0.9166835
50
121.2352008
51
125.379227
0
ARC
8
right_labelLayer
10
371.0999721
20
33.2932332
40
0.5115449
50
215.1641189
51
247.4747276
0
ARC
8
right_labelLayer
10
371.1954591
20
33.3702943
40
0.6340377
50
212.4713619
51
215.8875204
0
ARC
8
right_labelLayer
10
371.1703498
20
33.3523307
40
0.6032121
50
183.016111
51
212.3123075
0
ARC
8
right_labelLayer
10
371.3028293
20
33.3670874
40
0.7363254
50
179.9761889
51
183.6203884
0
ARC
8
right_labelLayer
10
371.4095287
20
33.3745139
40
0.8430549
50
166.8196443
51
180.4839327
0
ARC
8
right_labelLayer
10
371.1298501
20
33.445126
40
0.5546653
50
132.3287503
51
167.3341248
0
ARC
8
right_labelLayer
10
371.1672678
20
33.3913411
40
0.6196836
50
106.2188888
51
131.5377054
0
ARC
8
right_labelLayer
10
371.2619394
20
33.0848021
40
0.9404804
50
93.6330272
51
106.5408735
0
ARC
8
right_labelLayer
10
371.2928444
20
32.7378579
40
1.288716
50
89.9380274
51
94.0268721
0
ARC
8
right_labelLayer
10
371.2978473
20
32.9080859
40
1.118493
50
82.5852724
51
90.1848742
0
ARC
8
right_labelLayer
10
371.3320237
20
33.1725292
40
0.8518505
50
74.008839
51
82.5694048
0
ARC
8
right_labelLayer
10
370.9896154
20
31.7374312
40
0.2930605
50
179.2207448
51
200.9356181
0
ARC
8
right_labelLayer
10
370.9547653
20
31.7293614
40
0.2576746
50
202.0286919
51
236.1458135
0
ARC
8
right_labelLayer
10
371.007294
20
31.7960548
40
0.3423846
50
235.0631657
51
238.5037981
0
ARC
8
right_labelLayer
10
371.0683526
20
31.9051188
40
0.4673061
50
239.1066115
51
254.4862433
0
ARC
8
right_labelLayer
10
371.1497666
20
32.1858304
40
0.7595734
50
254.2323496
51
263.493669
0
ARC
8
right_labelLayer
10
371.2009062
20
32.6189727
40
1.195722
50
263.4107898
51
270.1457107
0
ARC
8
right_labelLayer
10
371.205747
20
32.4515405
40
1.0282873
50
269.8997124
51
270.0334693
0
ARC
8
right_labelLayer
10
371.2133408
20
33.3848369
40
1.9615966
50
269.7957384
51
275.3991396
0
ARC
8
right_labelLayer
10
371.2867564
20
32.6311621
40
1.2043596
50
275.2957082
51
283.3515561
0
ARC
8
right_labelLayer
10
371.4063699
20
32.1384948
40
0.6973915
50
283.1370307
51
295.8573001
0
ARC
8
right_labelLayer
10
371.4949781
20
31.9450445
40
0.4846861
50
296.4049535
51
301.8006083
0
ARC
8
right_labelLayer
10
371.5297445
20
31.8971143
40
0.4256517
50
301.2231342
51
318.6237669
0
ARC
8
right_labelLayer
10
371.6081208
20
31.8247147
40
0.3189931
50
319.0765507
51
1.1407342
0
ARC
8
right_labelLayer
10
371.5322639
20
31.834192
40
0.3947992
50
359.5462274
51
10.9904236
0
ARC
8
right_labelLayer
10
371.6847684
20
31.8652111
40
0.2391822
50
10.6608067
51
30.9364015
0
ARC
8
right_labelLayer
10
371.7331146
20
31.8920417
40
0.1839298
50
31.5097323
51
58.0776674
0
ARC
8
right_labelLayer
10
371.6877998
20
31.8109041
40
0.2767935
50
58.9970873
51
73.8586007
0
ARC
8
right_labelLayer
10
371.5962008
20
31.5110307
40
0.5903287
50
73.4101291
51
81.5906205
0
ARC
8
right_labelLayer
10
371.5185935
20
31.0088136
40
1.0985009
50
81.4171353
51
86.5755456
0
ARC
8
right_labelLayer
10
371.471035
20
30.2521324
40
1.856673
50
86.5053335
51
90.1398272
0
ARC
8
right_labelLayer
10
371.1125269
20
31.4380416
40
0.6707711
50
89.6436081
51
100.0207715
0
ARC
8
right_labelLayer
10
371.0703661
20
31.6673981
40
0.4375802
50
99.810173
51
116.8230217
0
ARC
8
right_labelLayer
10
371.0293034
20
31.7539942
40
0.341781
50
117.2305048
51
130.5022422
0
ARC
8
right_labelLayer
10
371.0082168
20
31.7810968
40
0.3074814
50
130.7945593
51
169.0413438
0
ARC
8
right_labelLayer
10
371.1634794
20
31.744531
40
0.4669078
50
168.2579842
51
180.3821512
0
ARC
8
right_labelLayer
10
371.4243492
20
33.3700689
40
0.5695807
50
179.5618386
51
191.6529691
0
ARC
8
right_labelLayer
10
371.226312
20
33.3272812
40
0.3669879
50
191.3554642
51
213.3660088
0
ARC
8
right_labelLayer
10
371.1787432
20
33.2998118
40
0.3121685
50
213.9570993
51
227.7974628
0
ARC
8
right_labelLayer
10
371.220132
20
33.350007
40
0.3771673
50
228.2621594
51
254.7340234
0
ARC
8
right_labelLayer
10
371.2729931
20
33.5312211
40
0.5659149
50
254.4017247
51
267.4348089
0
ARC
8
right_labelLayer
10
371.2867872
20
33.7162799
40
0.7514257
50
267.0156075
51
270.0320136
0
ARC
8
right_labelLayer
10
371.2957971
20
33.6004942
40
0.6356979
50
269.2257507
51
284.3772968
0
ARC
8
right_labelLayer
10
371.3824419
20
33.2986213
40
0.32189
50
282.7796659
51
346.4828664
0
ARC
8
right_labelLayer
10
371.1234035
20
33.3719971
40
0.5910022
50
345.4361062
51
0.7466051
0
ARC
8
right_labelLayer
10
371.0869843
20
33.3886705
40
0.6274354
50
359.1806329
51
15.0431331
0
ARC
8
right_labelLayer
10
371.3712873
20
33.4716042
40
0.3314099
50
13.9535786
51
77.6673928
0
ARC
8
right_labelLayer
10
371.2897183
20
33.1792965
40
0.634629
50
76.1094858
51
90.702838
0
ARC
8
right_labelLayer
10
371.2775088
20
33.2016235
40
0.6122703
50
89.5859284
51
101.3334396
0
ARC
8
right_labelLayer
10
371.2337538
20
33.4103135
40
0.3990555
50
101.0620318
51
121.9738814
0
ARC
8
right_labelLayer
10
371.2030023
20
33.4656339
40
0.3358591
50
122.5211138
51
134.9967817
0
ARC
8
right_labelLayer
10
371.2156619
20
33.4580476
40
0.3501934
50
135.5838491
51
163.0016637
0
ARC
8
right_labelLayer
10
371.4005892
20
33.3974342
40
0.5447757
50
162.5911705
51
175.7344135
0
ARC
8
right_labelLayer
10
371.6224434
20
33.3755798
40
0.7676592
50
175.3394037
51
180.0862193
0
LINE
8
right_labelLayer
10
374.2385742
20
32.0648543
11
373.9467773
21
32.0648543
0
LINE
8
right_labelLayer
10
373.9467773
20
32.0648543
11
373.9467773
21
33.3111434
0
LINE
8
right_labelLayer
10
372.9202148
20
33.0720809
11
372.9202148
21
32.0648543
0
LINE
8
right_labelLayer
10
372.9202148
20
32.0648543
11
372.628418
21
32.0648543
0
LINE
8
right_labelLayer
10
372.628418
20
32.0648543
11
372.628418
21
34.8000106
0
LINE
8
right_labelLayer
10
372.628418
20
34.8000106
11
372.9202148
21
34.8000106
0
LINE
8
right_labelLayer
10
372.9202148
20
34.8000106
11
372.9202148
21
33.9720809
0
LINE
8
right_labelLayer
10
372.9061523
20
33.7242293
11
372.9237305
21
33.7242293
0
LINE
8
right_labelLayer
10
374.2385742
20
33.3216903
11
374.2385742
21
32.0648543
0
ARC
8
right_labelLayer
10
373.1219564
20
33.3158738
40
0.8248345
50
359.6714114
51
8.6877443
0
ARC
8
right_labelLayer
10
373.427664
20
33.3643579
40
0.5153141
50
8.4930702
51
22.6579702
0
ARC
8
right_labelLayer
10
373.5829812
20
33.428902
40
0.3471198
50
22.702553
51
42.3419474
0
ARC
8
right_labelLayer
10
373.6004418
20
33.436757
40
0.3289772
50
43.3790909
51
71.5386118
0
ARC
8
right_labelLayer
10
373.5351579
20
33.2543422
40
0.5226942
50
71.0826337
51
84.3693101
0
ARC
8
right_labelLayer
10
373.5058482
20
33.0051669
40
0.7735574
50
84.0196894
51
90.151067
0
ARC
8
right_labelLayer
10
373.4975199
20
32.8957299
40
0.883014
50
89.5919436
51
100.3595812
0
ARC
8
right_labelLayer
10
373.4349939
20
33.2243073
40
0.5485546
50
100.1067919
51
118.0847814
0
ARC
8
right_labelLayer
10
373.3714014
20
33.3490911
40
0.4085346
50
118.4551565
51
139.6705527
0
ARC
8
right_labelLayer
10
373.435245
20
33.3054539
40
0.4855127
50
140.6208415
51
160.504895
0
ARC
8
right_labelLayer
10
373.7717587
20
33.1808754
40
0.8443249
50
160.1565752
51
171.5313512
0
ARC
8
right_labelLayer
10
374.3162812
20
33.0946026
40
1.3956248
50
171.3202822
51
178.3407387
0
ARC
8
right_labelLayer
10
374.8030635
20
33.0728414
40
1.8828489
50
178.1077313
51
180.0231435
0
ARC
8
right_labelLayer
10
370.2955929
20
33.9689471
40
2.6246238
50
357.8672774
51
0.0684116
0
ARC
8
right_labelLayer
10
371.1869665
20
33.9349322
40
1.732602
50
354.9829539
51
357.8943712
0
ARC
8
right_labelLayer
10
371.7759965
20
33.883641
40
1.1413433
50
351.971238
51
354.9620133
0
ARC
8
right_labelLayer
10
373.4179855
20
33.4150556
40
0.5829892
50
119.831622
51
147.9725885
0
ARC
8
right_labelLayer
10
373.4885554
20
33.30665
40
0.7121726
50
116.6655505
51
120.4182977
0
ARC
8
right_labelLayer
10
373.5017595
20
33.2719882
40
0.7490831
50
96.6652401
51
116.3782723
0
ARC
8
right_labelLayer
10
373.530159
20
33.0760551
40
0.947004
50
89.8926365
51
96.9959447
0
ARC
8
right_labelLayer
10
373.5392432
20
32.8392304
40
1.1838496
50
80.6862606
51
90.3537739
0
ARC
8
right_labelLayer
10
373.6129578
20
33.2728007
40
0.7440696
50
65.6022703
51
80.8844326
0
ARC
8
right_labelLayer
10
373.7014772
20
33.4721643
40
0.5259474
50
46.7400228
51
65.41313
0
ARC
8
right_labelLayer
10
373.7074889
20
33.4911555
40
0.5080705
50
19.2205189
51
45.7659993
0
ARC
8
right_labelLayer
10
373.4145406
20
33.3825575
40
0.8204631
50
6.4733289
51
19.6468254
0
ARC
8
right_labelLayer
10
372.976767
20
33.3262138
40
1.2618154
50
359.7945987
51
6.7743635
0
LINE
8
right_labelLayer
10
375.7239258
20
32.3056746
11
375.7239258
21
32.0824325
0
LINE
8
right_labelLayer
10
374.859082
20
32.6185653
11
374.859082
21
33.764659
0
LINE
8
right_labelLayer
10
374.859082
20
33.764659
11
374.5831055
21
33.764659
0
LINE
8
right_labelLayer
10
374.5831055
20
33.764659
11
374.5831055
21
33.905284
0
LINE
8
right_labelLayer
10
374.5831055
20
33.905284
11
374.859082
21
34.0265731
0
LINE
8
right_labelLayer
10
374.859082
20
34.0265731
11
374.9821289
21
34.4379012
0
LINE
8
right_labelLayer
10
374.9821289
20
34.4379012
11
375.1508789
21
34.4379012
0
LINE
8
right_labelLayer
10
375.1508789
20
34.4379012
11
375.1508789
21
33.9914168
0
LINE
8
right_labelLayer
10
375.1508789
20
33.9914168
11
375.7098633
21
33.9914168
0
LINE
8
right_labelLayer
10
375.7098633
20
33.9914168
11
375.7098633
21
33.764659
0
LINE
8
right_labelLayer
10
375.7098633
20
33.764659
11
375.1508789
21
33.764659
0
LINE
8
right_labelLayer
10
375.1508789
20
33.764659
11
375.1508789
21
32.63087
0
ARC
8
right_labelLayer
10
375.4622537
20
33.2288353
40
0.958319
50
269.8804381
51
278.3027561
0
ARC
8
right_labelLayer
10
375.4717568
20
33.1518005
40
0.880721
50
278.4146904
51
279.008961
0
ARC
8
right_labelLayer
10
375.363942
20
33.8406481
40
1.5779541
50
278.9588122
51
280.5107969
0
ARC
8
right_labelLayer
10
375.4663978
20
33.2909978
40
1.0188367
50
280.4844192
51
282.6272391
0
ARC
8
right_labelLayer
10
375.5561697
20
32.8921922
40
0.6100525
50
282.5879085
51
285.579184
0
ARC
8
right_labelLayer
10
375.6024815
20
32.7220511
40
0.4337257
50
285.7224432
51
286.2603504
0
ARC
8
right_labelLayer
10
375.6012472
20
32.3419029
40
0.2870104
50
287.9888874
51
295.3049527
0
ARC
8
right_labelLayer
10
375.5320485
20
32.5512482
40
0.5074942
50
283.3064482
51
288.1202377
0
ARC
8
right_labelLayer
10
375.4588681
20
32.8565097
40
0.821404
50
280.0071915
51
283.3732008
0
ARC
8
right_labelLayer
10
375.4100878
20
33.1211814
40
1.0905276
50
279.1860027
51
280.114667
0
ARC
8
right_labelLayer
10
375.3799124
20
33.2928689
40
1.2648327
50
275.5262395
51
279.2938235
0
ARC
8
right_labelLayer
10
375.4137704
20
32.9392837
40
0.9096304
50
270.8933739
51
275.548298
0
ARC
8
right_labelLayer
10
375.4180406
20
32.7763547
40
0.7466566
50
270.0019808
51
270.7606727
0
ARC
8
right_labelLayer
10
375.4062921
20
32.79174
40
0.7621329
50
253.7847941
51
270.885202
0
ARC
8
right_labelLayer
10
375.3159996
20
32.4838074
40
0.4412368
50
190.3818014
51
253.8772122
0
ARC
8
right_labelLayer
10
375.7762181
20
32.6082426
40
0.9171943
50
179.3551456
51
192.8477984
0
ARC
8
right_labelLayer
10
375.7384588
20
32.6271962
40
0.5875914
50
179.6417692
51
189.7505434
0
ARC
8
right_labelLayer
10
375.531021
20
32.5901974
40
0.3768865
50
189.5479093
51
205.7873549
0
ARC
8
right_labelLayer
10
375.4457733
20
32.5508864
40
0.2830316
50
206.1293416
51
221.4085718
0
ARC
8
right_labelLayer
10
375.4362198
20
32.5436367
40
0.2710728
50
221.5948902
51
262.3504397
0
ARC
8
right_labelLayer
10
375.4589529
20
32.6605374
40
0.3900214
50
261.3265203
51
270.1911283
0
LINE
8
bottom_outsideCutPath
10
441
20
126
11
441
21
120.825
0
LINE
8
bottom_outsideCutPath
10
441
20
120.825
11
438
21
120.825
0
LINE
8
bottom_outsideCutPath
10
438
20
120.825
11
438
21
113.515
0
LINE
8
bottom_outsideCutPath
10
438
20
113.515
11
441
21
113.515
0
LINE
8
bottom_outsideCutPath
10
441
20
113.515
11
441
21
106.205
0
LINE
8
bottom_outsideCutPath
10
441
20
106.205
11
438
21
106.205
0
LINE
8
bottom_outsideCutPath
10
438
20
106.205
11
438
21
98.895
0
LINE
8
bottom_outsideCutPath
10
438
20
98.895
11
441
21
98.895
0
LINE
8
bottom_outsideCutPath
10
441
20
98.895
11
441
21
91.585
0
LINE
8
bottom_outsideCutPath
10
441
20
91.585
11
438
21
91.585
0
LINE
8
bottom_outsideCutPath
10
438
20
91.585
11
438
21
84.275
0
LINE
8
bottom_outsideCutPath
10
438
20
84.275
11
441
21
84.275
0
LINE
8
bottom_outsideCutPath
10
441
20
84.275
11
441
21
76.965
0
LINE
8
bottom_outsideCutPath
10
441
20
76.965
11
438
21
76.965
0
LINE
8
bottom_outsideCutPath
10
438
20
76.965
11
438
21
69.655
0
LINE
8
bottom_outsideCutPath
10
438
20
69.655
11
441
21
69.655
0
LINE
8
bottom_outsideCutPath
10
441
20
69.655
11
441
21
62.345
0
LINE
8
bottom_outsideCutPath
10
441
20
62.345
11
438
21
62.345
0
LINE
8
bottom_outsideCutPath
10
438
20
62.345
11
438
21
55.035
0
LINE
8
bottom_outsideCutPath
10
438
20
55.035
11
441
21
55.035
0
LINE
8
bottom_outsideCutPath
10
441
20
55.035
11
441
21
47.725
0
LINE
8
bottom_outsideCutPath
10
441
20
47.725
11
438
21
47.725
0
LINE
8
bottom_outsideCutPath
10
438
20
47.725
11
438
21
40.415
0
LINE
8
bottom_outsideCutPath
10
438
20
40.415
11
441
21
40.415
0
LINE
8
bottom_outsideCutPath
10
441
20
40.415
11
441
21
33.105
0
LINE
8
bottom_outsideCutPath
10
441
20
33.105
11
438
21
33.105
0
LINE
8
bottom_outsideCutPath
10
438
20
33.105
11
438
21
25.795
0
LINE
8
bottom_outsideCutPath
10
438
20
25.795
11
441
21
25.795
0
LINE
8
bottom_outsideCutPath
10
441
20
25.795
11
441
21
18.485
0
LINE
8
bottom_outsideCutPath
10
441
20
18.485
11
438
21
18.485
0
LINE
8
bottom_outsideCutPath
10
438
20
18.485
11
438
21
11.175
0
LINE
8
bottom_outsideCutPath
10
438
20
11.175
11
441
21
11.175
0
LINE
8
bottom_outsideCutPath
10
441
20
11.175
11
441
21
6
0
LINE
8
bottom_outsideCutPath
10
441
20
6
11
455.765
21
6
0
LINE
8
bottom_outsideCutPath
10
455.765
20
6
11
455.765
21
3
0
LINE
8
bottom_outsideCutPath
10
455.765
20
3
11
463.075
21
3
0
LINE
8
bottom_outsideCutPath
10
463.075
20
3
11
463.075
21
6
0
LINE
8
bottom_outsideCutPath
10
463.075
20
6
11
470.385
21
6
0
LINE
8
bottom_outsideCutPath
10
470.385
20
6
11
470.385
21
3
0
LINE
8
bottom_outsideCutPath
10
470.385
20
3
11
477.695
21
3
0
LINE
8
bottom_outsideCutPath
10
477.695
20
3
11
477.695
21
6
0
LINE
8
bottom_outsideCutPath
10
477.695
20
6
11
485.005
21
6
0
LINE
8
bottom_outsideCutPath
10
485.005
20
6
11
485.005
21
3
0
LINE
8
bottom_outsideCutPath
10
485.005
20
3
11
492.315
21
3
0
LINE
8
bottom_outsideCutPath
10
492.315
20
3
11
492.315
21
6
0
LINE
8
bottom_outsideCutPath
10
492.315
20
6
11
499.625
21
6
0
LINE
8
bottom_outsideCutPath
10
499.625
20
6
11
499.625
21
3
0
LINE
8
bottom_outsideCutPath
10
499.625
20
3
11
506.935
21
3
0
LINE
8
bottom_outsideCutPath
10
506.935
20
3
11
506.935
21
6
0
LINE
8
bottom_outsideCutPath
10
506.935
20
6
11
514.245
21
6
0
LINE
8
bottom_outsideCutPath
10
514.245
20
6
11
514.245
21
3
0
LINE
8
bottom_outsideCutPath
10
514.245
20
3
11
521.555
21
3
0
LINE
8
bottom_outsideCutPath
10
521.555
20
3
11
521.555
21
6
0
LINE
8
bottom_outsideCutPath
10
521.555
20
6
11
528.865
21
6
0
LINE
8
bottom_outsideCutPath
10
528.865
20
6
11
528.865
21
3
0
LINE
8
bottom_outsideCutPath
10
528.865
20
3
11
536.175
21
3
0
LINE
8
bottom_outsideCutPath
10
536.175
20
3
11
536.175
21
6
0
LINE
8
bottom_outsideCutPath
10
536.175
20
6
11
543.485
21
6
0
LINE
8
bottom_outsideCutPath
10
543.485
20
6
11
543.485
21
3
0
LINE
8
bottom_outsideCutPath
10
543.485
20
3
11
550.795
21
3
0
LINE
8
bottom_outsideCutPath
10
550.795
20
3
11
550.795
21
6
0
LINE
8
bottom_outsideCutPath
10
550.795
20
6
11
558.105
21
6
0
LINE
8
bottom_outsideCutPath
10
558.105
20
6
11
558.105
21
3
0
LINE
8
bottom_outsideCutPath
10
558.105
20
3
11
565.415
21
3
0
LINE
8
bottom_outsideCutPath
10
565.415
20
3
11
565.415
21
6
0
LINE
8
bottom_outsideCutPath
10
565.415
20
6
11
572.725
21
6
0
LINE
8
bottom_outsideCutPath
10
572.725
20
6
11
572.725
21
3
0
LINE
8
bottom_outsideCutPath
10
572.725
20
3
11
580.035
21
3
0
LINE
8
bottom_outsideCutPath
10
580.035
20
3
11
580.035
21
6
0
LINE
8
bottom_outsideCutPath
10
580.035
20
6
11
587.345
21
6
0
LINE
8
bottom_outsideCutPath
10
587.345
20
6
11
587.345
21
3
0
LINE
8
bottom_outsideCutPath
10
587.345
20
3
11
594.655
21
3
0
LINE
8
bottom_outsideCutPath
10
594.655
20
3
11
594.655
21
6
0
LINE
8
bottom_outsideCutPath
10
594.655
20
6
11
601.965
21
6
0
LINE
8
bottom_outsideCutPath
10
601.965
20
6
11
601.965
21
3
0
LINE
8
bottom_outsideCutPath
10
601.965
20
3
11
609.275
21
3
0
LINE
8
bottom_outsideCutPath
10
609.275
20
3
11
609.275
21
6
0
LINE
8
bottom_outsideCutPath
10
609.275
20
6
11
616.585
21
6
0
LINE
8
bottom_outsideCutPath
10
616.585
20
6
11
616.585
21
3
0
LINE
8
bottom_outsideCutPath
10
616.585
20
3
11
623.895
21
3
0
LINE
8
bottom_outsideCutPath
10
623.895
20
3
11
623.895
21
6
0
LINE
8
bottom_outsideCutPath
10
623.895
20
6
11
631.205
21
6
0
LINE
8
bottom_outsideCutPath
10
631.205
20
6
11
631.205
21
3
0
LINE
8
bottom_outsideCutPath
10
631.205
20
3
11
638.515
21
3
0
LINE
8
bottom_outsideCutPath
10
638.515
20
3
11
638.515
21
6
0
LINE
8
bottom_outsideCutPath
10
638.515
20
6
11
645.825
21
6
0
LINE
8
bottom_outsideCutPath
10
645.825
20
6
11
645.825
21
3
0
LINE
8
bottom_outsideCutPath
10
645.825
20
3
11
653.135
21
3
0
LINE
8
bottom_outsideCutPath
10
653.135
20
3
11
653.135
21
6
0
LINE
8
bottom_outsideCutPath
10
653.135
20
6
11
660.445
21
6
0
LINE
8
bottom_outsideCutPath
10
660.445
20
6
11
660.445
21
3
0
LINE
8
bottom_outsideCutPath
10
660.445
20
3
11
667.755
21
3
0
LINE
8
bottom_outsideCutPath
10
667.755
20
3
11
667.755
21
6
0
LINE
8
bottom_outsideCutPath
10
667.755
20
6
11
675.065
21
6
0
LINE
8
bottom_outsideCutPath
10
675.065
20
6
11
675.065
21
3
0
LINE
8
bottom_outsideCutPath
10
675.065
20
3
11
682.375
21
3
0
LINE
8
bottom_outsideCutPath
10
682.375
20
3
11
682.375
21
6
0
LINE
8
bottom_outsideCutPath
10
682.375
20
6
11
689.685
21
6
0
LINE
8
bottom_outsideCutPath
10
689.685
20
6
11
689.685
21
3
0
LINE
8
bottom_outsideCutPath
10
689.685
20
3
11
696.995
21
3
0
LINE
8
bottom_outsideCutPath
10
696.995
20
3
11
696.995
21
6
0
LINE
8
bottom_outsideCutPath
10
696.995
20
6
11
704.305
21
6
0
LINE
8
bottom_outsideCutPath
10
704.305
20
6
11
704.305
21
3
0
LINE
8
bottom_outsideCutPath
10
704.305
20
3
11
711.615
21
3
0
LINE
8
bottom_outsideCutPath
10
711.615
20
3
11
711.615
21
6
0
LINE
8
bottom_outsideCutPath
10
711.615
20
6
11
718.925
21
6
0
LINE
8
bottom_outsideCutPath
10
718.925
20
6
11
718.925
21
3
0
LINE
8
bottom_outsideCutPath
10
718.925
20
3
11
726.235
21
3
0
LINE
8
bottom_outsideCutPath
10
726.235
20
3
11
726.235
21
6
0
LINE
8
bottom_outsideCutPath
10
726.235
20
6
11
733.545
21
6
0
LINE
8
bottom_outsideCutPath
10
733.545
20
6
11
741
21
6
0
LINE
8
bottom_outsideCutPath
10
741
20
6
11
741
21
11.175
0
LINE
8
bottom_outsideCutPath
10
741
20
11.175
11
744
21
11.175
0
LINE
8
bottom_outsideCutPath
10
744
20
11.175
11
744
21
18.485
0
LINE
8
bottom_outsideCutPath
10
744
20
18.485
11
741
21
18.485
0
LINE
8
bottom_outsideCutPath
10
741
20
18.485
11
741
21
25.795
0
LINE
8
bottom_outsideCutPath
10
741
20
25.795
11
744
21
25.795
0
LINE
8
bottom_outsideCutPath
10
744
20
25.795
11
744
21
33.105
0
LINE
8
bottom_outsideCutPath
10
744
20
33.105
11
741
21
33.105
0
LINE
8
bottom_outsideCutPath
10
741
20
33.105
11
741
21
40.415
0
LINE
8
bottom_outsideCutPath
10
741
20
40.415
11
744
21
40.415
0
LINE
8
bottom_outsideCutPath
10
744
20
40.415
11
744
21
47.725
0
LINE
8
bottom_outsideCutPath
10
744
20
47.725
11
741
21
47.725
0
LINE
8
bottom_outsideCutPath
10
741
20
47.725
11
741
21
55.035
0
LINE
8
bottom_outsideCutPath
10
741
20
55.035
11
744
21
55.035
0
LINE
8
bottom_outsideCutPath
10
744
20
55.035
11
744
21
62.345
0
LINE
8
bottom_outsideCutPath
10
744
20
62.345
11
741
21
62.345
0
LINE
8
bottom_outsideCutPath
10
741
20
62.345
11
741
21
69.655
0
LINE
8
bottom_outsideCutPath
10
741
20
69.655
11
744
21
69.655
0
LINE
8
bottom_outsideCutPath
10
744
20
69.655
11
744
21
76.965
0
LINE
8
bottom_outsideCutPath
10
744
20
76.965
11
741
21
76.965
0
LINE
8
bottom_outsideCutPath
10
741
20
76.965
11
741
21
84.275
0
LINE
8
bottom_outsideCutPath
10
741
20
84.275
11
744
21
84.275
0
LINE
8
bottom_outsideCutPath
10
744
20
84.275
11
744
21
91.585
0
LINE
8
bottom_outsideCutPath
10
744
20
91.585
11
741
21
91.585
0
LINE
8
bottom_outsideCutPath
10
741
20
91.585
11
741
21
98.895
0
LINE
8
bottom_outsideCutPath
10
741
20
98.895
11
744
21
98.895
0
LINE
8
bottom_outsideCutPath
10
744
20
98.895
11
744
21
106.205
0
LINE
8
bottom_outsideCutPath
10
744
20
106.205
11
741
21
106.205
0
LINE
8
bottom_outsideCutPath
10
741
20
106.205
11
741
21
113.515
0
LINE
8
bottom_outsideCutPath
10
741
20
113.515
11
744
21
113.515
0
LINE
8
bottom_outsideCutPath
10
744
20
113.515
11
744
21
120.825
0
LINE
8
bottom_outsideCutPath
10
744
20
120.825
11
741
21
120.825
0
LINE
8
bottom_outsideCutPath
10
741
20
120.825
11
741
21
126
0
LINE
8
bottom_outsideCutPath
10
741
20
126
11
726.235
21
126
0
LINE
8
bottom_outsideCutPath
10
726.235
20
126
11
726.235
21
129
0
LINE
8
bottom_outsideCutPath
10
726.235
20
129
11
718.925
21
129
0
LINE
8
bottom_outsideCutPath
10
718.925
20
129
11
718.925
21
126
0
LINE
8
bottom_outsideCutPath
10
718.925
20
126
11
711.615
21
126
0
LINE
8
bottom_outsideCutPath
10
711.615
20
126
11
711.615
21
129
0
LINE
8
bottom_outsideCutPath
10
711.615
20
129
11
704.305
21
129
0
LINE
8
bottom_outsideCutPath
10
704.305
20
129
11
704.305
21
126
0
LINE
8
bottom_outsideCutPath
10
704.305
20
126
11
696.995
21
126
0
LINE
8
bottom_outsideCutPath
10
696.995
20
126
11
696.995
21
129
0
LINE
8
bottom_outsideCutPath
10
696.995
20
129
11
689.685
21
129
0
LINE
8
bottom_outsideCutPath
10
689.685
20
129
11
689.685
21
126
0
LINE
8
bottom_outsideCutPath
10
689.685
20
126
11
682.375
21
126
0
LINE
8
bottom_outsideCutPath
10
682.375
20
126
11
682.375
21
129
0
LINE
8
bottom_outsideCutPath
10
682.375
20
129
11
675.065
21
129
0
LINE
8
bottom_outsideCutPath
10
675.065
20
129
11
675.065
21
126
0
LINE
8
bottom_outsideCutPath
10
675.065
20
126
11
667.755
21
126
0
LINE
8
bottom_outsideCutPath
10
667.755
20
126
11
667.755
21
129
0
LINE
8
bottom_outsideCutPath
10
667.755
20
129
11
660.445
21
129
0
LINE
8
bottom_outsideCutPath
10
660.445
20
129
11
660.445
21
126
0
LINE
8
bottom_outsideCutPath
10
660.445
20
126
11
653.135
21
126
0
LINE
8
bottom_outsideCutPath
10
653.135
20
126
11
653.135
21
129
0
LINE
8
bottom_outsideCutPath
10
653.135
20
129
11
645.825
21
129
0
LINE
8
bottom_outsideCutPath
10
645.825
20
129
11
645.825
21
126
0
LINE
8
bottom_outsideCutPath
10
645.825
20
126
11
638.515
21
126
0
LINE
8
bottom_outsideCutPath
10
638.515
20
126
11
638.515
21
129
0
LINE
8
bottom_outsideCutPath
10
638.515
20
129
11
631.205
21
129
0
LINE
8
bottom_outsideCutPath
10
631.205
20
129
11
631.205
21
126
0
LINE
8
bottom_outsideCutPath
10
631.205
20
126
11
623.895
21
126
0
LINE
8
bottom_outsideCutPath
10
623.895
20
126
11
623.895
21
129
0
LINE
8
bottom_outsideCutPath
10
623.895
20
129
11
616.585
21
129
0
LINE
8
bottom_outsideCutPath
10
616.585
20
129
11
616.585
21
126
0
LINE
8
bottom_outsideCutPath
10
616.585
20
126
11
609.275
21
126
0
LINE
8
bottom_outsideCutPath
10
609.275
20
126
11
609.275
21
129
0
LINE
8
bottom_outsideCutPath
10
609.275
20
129
11
601.965
21
129
0
LINE
8
bottom_outsideCutPath
10
601.965
20
129
11
601.965
21
126
0
LINE
8
bottom_outsideCutPath
10
601.965
20
126
11
594.655
21
126
0
LINE
8
bottom_outsideCutPath
10
594.655
20
126
11
594.655
21
129
0
LINE
8
bottom_outsideCutPath
10
594.655
20
129
11
587.345
21
129
0
LINE
8
bottom_outsideCutPath
10
587.345
20
129
11
587.345
21
126
0
LINE
8
bottom_outsideCutPath
10
587.345
20
126
11
580.035
21
126
0
LINE
8
bottom_outsideCutPath
10
580.035
20
126
11
580.035
21
129
0
LINE
8
bottom_outsideCutPath
10
580.035
20
129
11
572.725
21
129
0
LINE
8
bottom_outsideCutPath
10
572.725
20
129
11
572.725
21
126
0
LINE
8
bottom_outsideCutPath
10
572.725
20
126
11
565.415
21
126
0
LINE
8
bottom_outsideCutPath
10
565.415
20
126
11
565.415
21
129
0
LINE
8
bottom_outsideCutPath
10
565.415
20
129
11
558.105
21
129
0
LINE
8
bottom_outsideCutPath
10
558.105
20
129
11
558.105
21
126
0
LINE
8
bottom_outsideCutPath
10
558.105
20
126
11
550.795
21
126
0
LINE
8
bottom_outsideCutPath
10
550.795
20
126
11
550.795
21
129
0
LINE
8
bottom_outsideCutPath
10
550.795
20
129
11
543.485
21
129
0
LINE
8
bottom_outsideCutPath
10
543.485
20
129
11
543.485
21
126
0
LINE
8
bottom_outsideCutPath
10
543.485
20
126
11
536.175
21
126
0
LINE
8
bottom_outsideCutPath
10
536.175
20
126
11
536.175
21
129
0
LINE
8
bottom_outsideCutPath
10
536.175
20
129
11
528.865
21
129
0
LINE
8
bottom_outsideCutPath
10
528.865
20
129
11
528.865
21
126
0
LINE
8
bottom_outsideCutPath
10
528.865
20
126
11
521.555
21
126
0
LINE
8
bottom_outsideCutPath
10
521.555
20
126
11
521.555
21
129
0
LINE
8
bottom_outsideCutPath
10
521.555
20
129
11
514.245
21
129
0
LINE
8
bottom_outsideCutPath
10
514.245
20
129
11
514.245
21
126
0
LINE
8
bottom_outsideCutPath
10
514.245
20
126
11
506.935
21
126
0
LINE
8
bottom_outsideCutPath
10
506.935
20
126
11
506.935
21
129
0
LINE
8
bottom_outsideCutPath
10
506.935
20
129
11
499.625
21
129
0
LINE
8
bottom_outsideCutPath
10
499.625
20
129
11
499.625
21
126
0
LINE
8
bottom_outsideCutPath
10
499.625
20
126
11
492.315
21
126
0
LINE
8
bottom_outsideCutPath
10
492.315
20
126
11
492.315
21
129
0
LINE
8
bottom_outsideCutPath
10
492.315
20
129
11
485.005
21
129
0
LINE
8
bottom_outsideCutPath
10
485.005
20
129
11
485.005
21
126
0
LINE
8
bottom_outsideCutPath
10
485.005
20
126
11
477.695
21
126
0
LINE
8
bottom_outsideCutPath
10
477.695
20
126
11
477.695
21
129
0
LINE
8
bottom_outsideCutPath
10
477.695
20
129
11
470.385
21
129
0
LINE
8
bottom_outsideCutPath
10
470.385
20
129
11
470.385
21
126
0
LINE
8
bottom_outsideCutPath
10
470.385
20
126
11
463.075
21
126
0
LINE
8
bottom_outsideCutPath
10
463.075
20
126
11
463.075
21
129
0
LINE
8
bottom_outsideCutPath
10
463.075
20
129
11
455.765
21
129
0
LINE
8
bottom_outsideCutPath
10
455.765
20
129
11
455.765
21
126
0
LINE
8
bottom_outsideCutPath
10
455.765
20
126
11
448.455
21
126
0
LINE
8
bottom_outsideCutPath
10
448.455
20
126
11
441
21
126
0
LINE
8
bottom_labelLayer
10
551.5880263
20
58.2852793
11
551.44037
21
58.2852793
0
LINE
8
bottom_labelLayer
10
551.44037
20
58.2852793
11
551.009706
21
56.5503184
0
LINE
8
bottom_labelLayer
10
551.009706
20
56.5503184
11
549.5454481
21
56.5503184
0
LINE
8
bottom_labelLayer
10
549.5454481
20
56.5503184
11
549.5454481
21
75.6964121
0
LINE
8
bottom_labelLayer
10
549.5454481
20
75.6964121
11
551.5880263
21
75.6964121
0
LINE
8
bottom_labelLayer
10
551.5880263
20
75.6964121
11
551.5880263
21
71.0452403
0
LINE
8
bottom_labelLayer
10
551.4895888
20
68.2397715
11
551.5880263
21
68.2397715
0
ARC
8
bottom_labelLayer
10
555.882114
20
64.0152136
40
6.2428274
50
74.239337
51
90.5623847
0
ARC
8
bottom_labelLayer
10
556.2949093
20
65.5295747
40
4.6732968
50
38.5631374
51
74.0670308
0
ARC
8
bottom_labelLayer
10
555.2326006
20
64.7035684
40
6.0188742
50
16.4709233
51
38.4075326
0
ARC
8
bottom_labelLayer
10
552.1722424
20
63.7439283
40
9.2258821
50
5.1338416
51
16.7973435
0
ARC
8
bottom_labelLayer
10
548.3088307
20
63.3335266
40
13.1106706
50
359.8779205
51
5.4093698
0
ARC
8
bottom_labelLayer
10
549.4435691
20
63.2349347
40
11.9761109
50
350.6562866
51
0.338038
0
ARC
8
bottom_labelLayer
10
553.6186408
20
62.5248019
40
7.7411722
50
335.8305874
51
350.8254839
0
ARC
8
bottom_labelLayer
10
555.4551767
20
61.7321254
40
5.741151
50
321.3161431
51
335.5436213
0
ARC
8
bottom_labelLayer
10
556.1572948
20
61.1600051
40
4.8354911
50
274.0640023
51
321.4081046
0
ARC
8
bottom_labelLayer
10
555.8302003
20
63.2319708
40
6.9277524
50
269.9225758
51
275.5481408
0
ARC
8
bottom_labelLayer
10
555.7863936
20
62.4997081
40
6.1955792
50
255.775532
51
270.3185455
0
ARC
8
bottom_labelLayer
10
555.6095845
20
61.7141747
40
5.3907276
50
245.980154
51
255.5455918
0
ARC
8
bottom_labelLayer
10
555.2671351
20
60.9178082
40
4.523942
50
215.5850234
51
245.8361706
0
ARC
8
bottom_labelLayer
10
509.0016406
20
71.009238
40
42.5864009
50
358.1123315
51
0.0484375
0
ARC
8
bottom_labelLayer
10
520.8538742
20
70.6113418
40
30.7274932
50
355.7238801
51
358.1258817
0
ARC
8
bottom_labelLayer
10
526.1084654
20
70.2500576
40
25.4606102
50
355.4714
51
355.6529481
0
ARC
8
bottom_labelLayer
10
555.3973453
20
65.5834306
40
4.6440348
50
95.1835118
51
145.1108965
0
ARC
8
bottom_labelLayer
10
555.80554
20
63.2815978
40
6.9761594
50
89.8743496
51
96.8145544
0
ARC
8
bottom_labelLayer
10
555.4827638
20
62.8077276
40
5.7398204
50
89.5731348
51
100.7324176
0
ARC
8
bottom_labelLayer
10
555.0578581
20
64.9545043
40
3.551513
50
100.4469484
51
119.6700675
0
ARC
8
bottom_labelLayer
10
554.6638395
20
65.6911683
40
2.7164832
50
120.1402813
51
142.4249045
0
ARC
8
bottom_labelLayer
10
555.3157054
20
65.259937
40
3.4965319
50
143.3382244
51
161.2560016
0
ARC
8
bottom_labelLayer
10
558.0417035
20
64.2921173
40
6.3890814
50
160.8926496
51
171.2334323
0
ARC
8
bottom_labelLayer
10
562.5924374
20
63.5579771
40
10.9985877
50
171.0667843
51
177.8456798
0
ARC
8
bottom_labelLayer
10
567.3251856
20
63.31727
40
15.7371638
50
177.6176649
51
180.042518
0
ARC
8
bottom_labelLayer
10
565.0933022
20
63.2528558
40
13.5053789
50
179.7762701
51
185.7075196
0
ARC
8
bottom_labelLayer
10
559.768586
20
62.7042219
40
8.1525143
50
185.5924767
51
194.2050781
0
ARC
8
bottom_labelLayer
10
556.3576634
20
61.8189674
40
4.6286984
50
193.9430385
51
208.021839
0
ARC
8
bottom_labelLayer
10
554.977586
20
61.116884
40
3.0806977
50
208.5536539
51
217.5605416
0
ARC
8
bottom_labelLayer
10
554.8651493
20
61.0701187
40
2.9632271
50
218.1690446
51
253.8047156
0
ARC
8
bottom_labelLayer
10
555.4147726
20
62.7646677
40
4.7441482
50
253.1382567
51
266.8482941
0
ARC
8
bottom_labelLayer
10
555.5688931
20
64.5822046
40
6.5676311
50
266.3775495
51
270.051052
0
ARC
8
bottom_labelLayer
10
555.6183157
20
62.0862064
40
4.0718633
50
269.3868989
51
285.8630583
0
ARC
8
bottom_labelLayer
10
555.9208296
20
60.9928774
40
2.9374924
50
286.0162897
51
326.8497353
0
ARC
8
bottom_labelLayer
10
554.4607362
20
61.9601349
40
4.6888857
50
326.7105148
51
343.6661642
0
ARC
8
bottom_labelLayer
10
551.7275311
20
62.7953102
40
7.5467275
50
343.4171535
51
353.6369111
0
ARC
8
bottom_labelLayer
10
547.5993218
20
63.285152
40
11.7038304
50
353.4934736
51
0.2205379
0
ARC
8
bottom_labelLayer
10
547.2354103
20
63.3790468
40
12.0677539
50
359.7680883
51
6.3095183
0
ARC
8
bottom_labelLayer
10
551.7811039
20
63.9006923
40
7.4922902
50
6.1648571
51
16.0396366
0
ARC
8
bottom_labelLayer
10
554.7093498
20
64.7636447
40
4.4396491
50
15.7779469
51
32.0151341
0
ARC
8
bottom_labelLayer
10
555.6225455
20
65.2866107
40
3.3883407
50
32.7033322
51
35.5242312
0
ARC
8
bottom_labelLayer
10
555.956449
20
65.5239336
40
2.9786909
50
35.5408444
51
79.8011226
0
ARC
8
bottom_labelLayer
10
555.5564406
20
63.8234166
40
4.7240733
50
78.6781351
51
90.3749457
0
ARC
8
bottom_labelLayer
10
566.0775595
20
63.2344637
40
10.5507456
50
349.1761844
51
0.3862638
0
ARC
8
bottom_labelLayer
10
569.6297407
20
62.5263284
40
6.9288384
50
330.250707
51
349.4116449
0
ARC
8
bottom_labelLayer
10
570.7229211
20
61.9581366
40
5.6980056
50
318.1439869
51
329.7566233
0
ARC
8
bottom_labelLayer
10
570.9202304
20
61.8000143
40
5.4455536
50
278.8959143
51
317.9979109
0
ARC
8
bottom_labelLayer
10
570.4118532
20
64.2356838
40
7.9315345
50
269.7502793
51
279.803334
0
ARC
8
bottom_labelLayer
10
570.3294039
20
62.8633446
40
6.5592947
50
253.5436967
51
270.41824
0
ARC
8
bottom_labelLayer
10
570.1110562
20
62.0187237
40
5.6874969
50
238.8115572
51
253.2428422
0
ARC
8
bottom_labelLayer
10
570.0405902
20
61.8770156
40
5.5297942
50
207.7947067
51
238.675796
0
ARC
8
bottom_labelLayer
10
571.0518091
20
62.4963368
40
6.7135692
50
205.6560658
51
208.4461472
0
ARC
8
bottom_labelLayer
10
571.8305935
20
62.8208195
40
7.5561953
50
188.9102401
51
205.317143
0
ARC
8
bottom_labelLayer
10
574.4553615
20
63.2653717
40
10.2181957
50
179.7744758
51
189.0932889
0
ARC
8
bottom_labelLayer
10
574.8425492
20
63.3774251
40
10.6055475
50
169.2442976
51
180.3880774
0
ARC
8
bottom_labelLayer
10
571.2409876
20
64.0893226
40
6.9344566
50
150.7111445
51
169.4695396
0
ARC
8
bottom_labelLayer
10
570.0912488
20
64.6797584
40
5.6430467
50
138.1759338
51
150.2287553
0
ARC
8
bottom_labelLayer
10
569.900009
20
64.8265123
40
5.4027039
50
99.1759345
51
137.9832726
0
ARC
8
bottom_labelLayer
10
570.4263966
20
62.34927
40
7.9331658
50
89.732627
51
100.0759748
0
ARC
8
bottom_labelLayer
10
570.5316045
20
63.4191079
40
6.8635804
50
73.522274
51
90.5692256
0
ARC
8
bottom_labelLayer
10
570.9341122
20
64.8815265
40
5.3471327
50
41.1445685
51
73.2133799
0
ARC
8
bottom_labelLayer
10
570.165758
20
64.2211365
40
6.3602596
50
13.5014326
51
41.0703446
0
ARC
8
bottom_labelLayer
10
567.1972293
20
63.444311
40
9.4283213
50
1.1277143
51
13.8800058
0
ARC
8
bottom_labelLayer
10
564.6399255
20
63.3072866
40
11.9881399
50
359.9919002
51
1.5419342
0
ARC
8
bottom_labelLayer
10
576.6970927
20
63.252511
40
10.3435776
50
179.7059702
51
187.916084
0
ARC
8
bottom_labelLayer
10
572.9033825
20
62.7075468
40
6.5109875
50
187.7639207
51
200.0976951
0
ARC
8
bottom_labelLayer
10
570.8134533
20
61.9417929
40
4.2851884
50
200.0845893
51
216.9131639
0
ARC
8
bottom_labelLayer
10
570.0502838
20
61.396854
40
3.347783
50
217.3009564
51
261.7099047
0
ARC
8
bottom_labelLayer
10
570.4045735
20
63.0874841
40
5.0729554
50
260.5033082
51
270.2476788
0
ARC
8
bottom_labelLayer
10
570.472197
20
62.7587415
40
4.7443854
50
269.4481635
51
284.7255664
0
ARC
8
bottom_labelLayer
10
570.8477825
20
61.365817
40
3.301755
50
284.5662245
51
322.6333856
0
ARC
8
bottom_labelLayer
10
569.9696484
20
62.0002305
40
4.3847961
50
323.0089185
51
342.6390582
0
ARC
8
bottom_labelLayer
10
567.4579947
20
62.8211125
40
7.0270544
50
342.3615658
51
353.7537696
0
ARC
8
bottom_labelLayer
10
563.7524513
20
63.2677703
40
10.7592745
50
353.5362991
51
0.2014096
0
ARC
8
bottom_labelLayer
10
564.3202039
20
63.3576105
40
10.1915879
50
359.7075564
51
7.8972722
0
ARC
8
bottom_labelLayer
10
568.0526428
20
63.8926908
40
6.4210517
50
7.7439888
51
20.0690211
0
ARC
8
bottom_labelLayer
10
570.1325057
20
64.6559224
40
4.205575
50
20.0257074
51
37.4350449
0
ARC
8
bottom_labelLayer
10
570.8225912
20
65.1455966
40
3.3601032
50
37.9577597
51
80.400619
0
ARC
8
bottom_labelLayer
10
570.4304388
20
63.3958446
40
5.1516231
50
79.3453589
51
90.3174802
0
ARC
8
bottom_labelLayer
10
570.3578275
20
63.6864869
40
4.8611015
50
89.4806062
51
103.880506
0
ARC
8
bottom_labelLayer
10
569.9493685
20
65.2418967
40
3.2532084
50
103.4685206
51
142.3118966
0
ARC
8
bottom_labelLayer
10
570.7434416
20
64.6834468
40
4.2232385
50
142.9025657
51
162.3749614
0
ARC
8
bottom_labelLayer
10
573.2455913
20
63.8496138
40
6.8605068
50
162.0653301
51
173.1674728
0
ARC
8
bottom_labelLayer
10
577.1470609
20
63.3520046
40
10.7935096
50
173.0086119
51
180.2463764
0
LINE
8
bottom_labelLayer
10
586.4102919
20
58.2360606
11
586.4102919
21
56.6733653
0
LINE
8
bottom_labelLayer
10
580.3563856
20
60.4262949
11
580.3563856
21
68.4489512
0
LINE
8
bottom_labelLayer
10
580.3563856
20
68.4489512
11
578.4245497
21
68.4489512
0
LINE
8
bottom_labelLayer
10
578.4245497
20
68.4489512
11
578.4245497
21
69.4333262
0
LINE
8
bottom_labelLayer
10
578.4245497
20
69.4333262
11
580.3563856
21
70.2823496
0
LINE
8
bottom_labelLayer
10
580.3563856
20
70.2823496
11
581.2177138
21
73.1616465
0
LINE
8
bottom_labelLayer
10
581.2177138
20
73.1616465
11
582.3989638
21
73.1616465
0
LINE
8
bottom_labelLayer
10
582.3989638
20
73.1616465
11
582.3989638
21
70.0362559
0
LINE
8
bottom_labelLayer
10
582.3989638
20
70.0362559
11
586.3118544
21
70.0362559
0
LINE
8
bottom_labelLayer
10
586.3118544
20
70.0362559
11
586.3118544
21
68.4489512
0
LINE
8
bottom_labelLayer
10
586.3118544
20
68.4489512
11
582.3989638
21
68.4489512
0
LINE
8
bottom_labelLayer
10
582.3989638
20
68.4489512
11
582.3989638
21
60.5124278
0
ARC
8
bottom_labelLayer
10
584.5785978
20
64.6980394
40
6.7080872
50
269.8803443
51
278.3028456
0
ARC
8
bottom_labelLayer
10
584.642462
20
64.1763406
40
6.1826462
50
278.4153612
51
279.0079401
0
ARC
8
bottom_labelLayer
10
583.8897639
20
68.98468
40
11.0495375
50
278.9590253
51
280.5104681
0
ARC
8
bottom_labelLayer
10
584.6071492
20
65.1355394
40
7.1341183
50
280.4847105
51
282.6268512
0
ARC
8
bottom_labelLayer
10
585.2361154
20
62.3412099
40
4.2698798
50
282.5877737
51
285.5793908
0
ARC
8
bottom_labelLayer
10
585.5515247
20
61.1810868
40
3.0676798
50
285.7242748
51
286.256641
0
ARC
8
bottom_labelLayer
10
585.5515495
20
58.489651
40
2.0090626
50
287.9887475
51
295.3048483
0
ARC
8
bottom_labelLayer
10
585.0669819
20
59.9556727
40
3.5530795
50
283.3068811
51
288.1198298
0
ARC
8
bottom_labelLayer
10
584.5550643
20
62.0910366
40
5.7489417
50
280.0069655
51
283.3734939
0
ARC
8
bottom_labelLayer
10
584.2120739
20
63.9525864
40
7.6417853
50
279.186462
51
280.1141429
0
ARC
8
bottom_labelLayer
10
584.0023037
20
65.1456615
40
8.8530631
50
275.5260351
51
279.2939451
0
ARC
8
bottom_labelLayer
10
584.2392265
20
62.6709758
40
6.3670636
50
270.893224
51
275.5484033
0
ARC
8
bottom_labelLayer
10
584.2689733
20
61.5401739
40
5.2359495
50
270.0033158
51
270.7606523
0
ARC
8
bottom_labelLayer
10
584.1868514
20
61.6384996
40
5.3349117
50
253.784791
51
270.8852605
0
ARC
8
bottom_labelLayer
10
583.5548068
20
59.4829875
40
3.0886549
50
190.3817712
51
253.8772368
0
ARC
8
bottom_labelLayer
10
586.7763302
20
60.3540309
40
6.4203514
50
179.3550959
51
192.8477659
0
ARC
8
bottom_labelLayer
10
586.5119659
20
60.4867046
40
4.1130826
50
179.6416709
51
189.7505856
0
ARC
8
bottom_labelLayer
10
585.059966
20
60.227724
40
2.6382135
50
189.5479731
51
205.7873654
0
ARC
8
bottom_labelLayer
10
584.4632509
20
59.9525596
40
1.9812524
50
206.1294334
51
221.4084249
0
ARC
8
bottom_labelLayer
10
584.396348
20
59.901794
40
1.897507
50
221.5949174
51
262.3505106
0
ARC
8
bottom_labelLayer
10
584.5554728
20
60.7200678
40
2.7301162
50
261.3265978
51
270.1913125
0
LINE
8
bottom_labelLayer
10
595.306581
20
58.2360606
11
595.306581
21
56.6733653
0
LINE
8
bottom_labelLayer
10
589.2526747
20
60.4262949
11
589.2526747
21
68.4489512
0
LINE
8
bottom_labelLayer
10
589.2526747
20
68.4489512
11
587.3208388
21
68.4489512
0
LINE
8
bottom_labelLayer
10
587.3208388
20
68.4489512
11
587.3208388
21
69.4333262
0
LINE
8
bottom_labelLayer
10
587.3208388
20
69.4333262
11
589.2526747
21
70.2823496
0
LINE
8
bottom_labelLayer
10
589.2526747
20
70.2823496
11
590.1140028
21
73.1616465
0
LINE
8
bottom_labelLayer
10
590.1140028
20
73.1616465
11
591.2952528
21
73.1616465
0
LINE
8
bottom_labelLayer
10
591.2952528
20
73.1616465
11
591.2952528
21
70.0362559
0
LINE
8
bottom_labelLayer
10
591.2952528
20
70.0362559
11
595.2081435
21
70.0362559
0
LINE
8
bottom_labelLayer
10
595.2081435
20
70.0362559
11
595.2081435
21
68.4489512
0
LINE
8
bottom_labelLayer
10
595.2081435
20
68.4489512
11
591.2952528
21
68.4489512
0
LINE
8
bottom_labelLayer
10
591.2952528
20
68.4489512
11
591.2952528
21
60.5124278
0
ARC
8
bottom_labelLayer
10
593.4748869
20
64.6980394
40
6.7080872
50
269.8803443
51
278.3028456
0
ARC
8
bottom_labelLayer
10
593.5387511
20
64.1763406
40
6.1826462
50
278.4153612
51
279.0079401
0
ARC
8
bottom_labelLayer
10
592.7860529
20
68.98468
40
11.0495375
50
278.9590253
51
280.5104681
0
ARC
8
bottom_labelLayer
10
593.5034383
20
65.1355394
40
7.1341183
50
280.4847105
51
282.6268512
0
ARC
8
bottom_labelLayer
10
594.1324044
20
62.3412099
40
4.2698798
50
282.5877737
51
285.5793908
0
ARC
8
bottom_labelLayer
10
594.4478137
20
61.1810868
40
3.0676798
50
285.7242748
51
286.256641
0
ARC
8
bottom_labelLayer
10
594.4478386
20
58.489651
40
2.0090626
50
287.9887475
51
295.3048483
0
ARC
8
bottom_labelLayer
10
593.963271
20
59.9556727
40
3.5530795
50
283.3068811
51
288.1198298
0
ARC
8
bottom_labelLayer
10
593.4513534
20
62.0910366
40
5.7489417
50
280.0069655
51
283.3734939
0
ARC
8
bottom_labelLayer
10
593.108363
20
63.9525864
40
7.6417853
50
279.186462
51
280.1141429
0
ARC
8
bottom_labelLayer
10
592.8985928
20
65.1456615
40
8.8530631
50
275.5260351
51
279.2939451
0
ARC
8
bottom_labelLayer
10
593.1355156
20
62.6709758
40
6.3670636
50
270.893224
51
275.5484033
0
ARC
8
bottom_labelLayer
10
593.1652623
20
61.5401739
40
5.2359495
50
270.0033158
51
270.7606523
0
ARC
8
bottom_labelLayer
10
593.0831404
20
61.6384996
40
5.3349117
50
253.784791
51
270.8852605
0
ARC
8
bottom_labelLayer
10
592.4510958
20
59.4829875
40
3.0886549
50
190.3817712
51
253.8772368
0
ARC
8
bottom_labelLayer
10
595.6726193
20
60.3540309
40
6.4203514
50
179.3550959
51
192.8477659
0
ARC
8
bottom_labelLayer
10
595.408255
20
60.4867046
40
4.1130826
50
179.6416709
51
189.7505856
0
ARC
8
bottom_labelLayer
10
593.9562551
20
60.227724
40
2.6382135
50
189.5479731
51
205.7873654
0
ARC
8
bottom_labelLayer
10
593.3595399
20
59.9525596
40
1.9812524
50
206.1294334
51
221.4084249
0
ARC
8
bottom_labelLayer
10
593.292637
20
59.901794
40
1.897507
50
221.5949174
51
262.3505106
0
ARC
8
bottom_labelLayer
10
593.4517619
20
60.7200678
40
2.7301162
50
261.3265978
51
270.1913125
0
ARC
8
bottom_labelLayer
10
599.0910361
20
63.2344637
40
10.5507456
50
349.1761844
51
0.3862638
0
ARC
8
bottom_labelLayer
10
602.6432173
20
62.5263284
40
6.9288384
50
330.250707
51
349.4116449
0
ARC
8
bottom_labelLayer
10
603.7363977
20
61.9581366
40
5.6980056
50
318.1439869
51
329.7566233
0
ARC
8
bottom_labelLayer
10
603.9337069
20
61.8000143
40
5.4455536
50
278.8959143
51
317.9979109
0
ARC
8
bottom_labelLayer
10
603.4253297
20
64.2356838
40
7.9315345
50
269.7502793
51
279.803334
0
ARC
8
bottom_labelLayer
10
603.3428804
20
62.8633446
40
6.5592947
50
253.5436967
51
270.41824
0
ARC
8
bottom_labelLayer
10
603.1245328
20
62.0187237
40
5.6874969
50
238.8115572
51
253.2428422
0
ARC
8
bottom_labelLayer
10
603.0540668
20
61.8770156
40
5.5297942
50
207.7947067
51
238.675796
0
ARC
8
bottom_labelLayer
10
604.0652856
20
62.4963368
40
6.7135692
50
205.6560658
51
208.4461472
0
ARC
8
bottom_labelLayer
10
604.84407
20
62.8208195
40
7.5561953
50
188.9102401
51
205.317143
0
ARC
8
bottom_labelLayer
10
607.468838
20
63.2653717
40
10.2181957
50
179.7744758
51
189.0932889
0
ARC
8
bottom_labelLayer
10
607.8560258
20
63.3774251
40
10.6055475
50
169.2442976
51
180.3880774
0
ARC
8
bottom_labelLayer
10
604.2544641
20
64.0893226
40
6.9344566
50
150.7111445
51
169.4695396
0
ARC
8
bottom_labelLayer
10
603.1047253
20
64.6797584
40
5.6430467
50
138.1759338
51
150.2287553
0
ARC
8
bottom_labelLayer
10
602.9134855
20
64.8265123
40
5.4027039
50
99.1759345
51
137.9832726
0
ARC
8
bottom_labelLayer
10
603.4398732
20
62.34927
40
7.9331658
50
89.732627
51
100.0759748
0
ARC
8
bottom_labelLayer
10
603.5450811
20
63.4191079
40
6.8635804
50
73.522274
51
90.5692256
0
ARC
8
bottom_labelLayer
10
603.9475888
20
64.8815265
40
5.3471327
50
41.1445685
51
73.2133799
0
ARC
8
bottom_labelLayer
10
603.1792345
20
64.2211365
40
6.3602596
50
13.5014326
51
41.0703446
0
ARC
8
bottom_labelLayer
10
600.2107058
20
63.444311
40
9.4283213
50
1.1277143
51
13.8800058
0
ARC
8
bottom_labelLayer
10
597.653402
20
63.3072866
40
11.9881399
50
359.9919002
51
1.5419342
0
ARC
8
bottom_labelLayer
10
609.7105692
20
63.252511
40
10.3435776
50
179.7059702
51
187.916084
0
ARC
8
bottom_labelLayer
10
605.916859
20
62.7075468
40
6.5109875
50
187.7639207
51
200.0976951
0
ARC
8
bottom_labelLayer
10
603.8269298
20
61.9417929
40
4.2851884
50
200.0845893
51
216.9131639
0
ARC
8
bottom_labelLayer
10
603.0637603
20
61.396854
40
3.347783
50
217.3009564
51
261.7099047
0
ARC
8
bottom_labelLayer
10
603.41805
20
63.0874841
40
5.0729554
50
260.5033082
51
270.2476788
0
ARC
8
bottom_labelLayer
10
603.4856736
20
62.7587415
40
4.7443854
50
269.4481635
51
284.7255664
0
ARC
8
bottom_labelLayer
10
603.8612591
20
61.365817
40
3.301755
50
284.5662245
51
322.6333856
0
ARC
8
bottom_labelLayer
10
602.983125
20
62.0002305
40
4.3847961
50
323.0089185
51
342.6390582
0
ARC
8
bottom_labelLayer
10
600.4714713
20
62.8211125
40
7.0270544
50
342.3615658
51
353.7537696
0
ARC
8
bottom_labelLayer
10
596.7659278
20
63.2677703
40
10.7592745
50
353.5362991
51
0.2014096
0
ARC
8
bottom_labelLayer
10
597.3336805
20
63.3576105
40
10.1915879
50
359.7075564
51
7.8972722
0
ARC
8
bottom_labelLayer
10
601.0661194
20
63.8926908
40
6.4210517
50
7.7439888
51
20.0690211
0
ARC
8
bottom_labelLayer
10
603.1459823
20
64.6559224
40
4.205575
50
20.0257074
51
37.4350449
0
ARC
8
bottom_labelLayer
10
603.8360677
20
65.1455966
40
3.3601032
50
37.9577597
51
80.400619
0
ARC
8
bottom_labelLayer
10
603.4439154
20
63.3958446
40
5.1516231
50
79.3453589
51
90.3174802
0
ARC
8
bottom_labelLayer
10
603.3713041
20
63.6864869
40
4.8611015
50
89.4806062
51
103.880506
0
ARC
8
bottom_labelLayer
10
602.962845
20
65.2418967
40
3.2532084
50
103.4685206
51
142.3118966
0
ARC
8
bottom_labelLayer
10
603.7569181
20
64.6834468
40
4.2232385
50
142.9025657
51
162.3749614
0
ARC
8
bottom_labelLayer
10
606.2590679
20
63.8496138
40
6.8605068
50
162.0653301
51
173.1674728
0
ARC
8
bottom_labelLayer
10
610.1605375
20
63.3520046
40
10.7935096
50
173.0086119
51
180.2463764
0
LINE
8
bottom_labelLayer
10
632.4544325
20
56.5503184
11
630.4118544
21
56.5503184
0
LINE
8
bottom_labelLayer
10
630.4118544
20
56.5503184
11
630.4118544
21
65.3235606
0
LINE
8
bottom_labelLayer
10
623.853456
20
64.0807871
11
623.853456
21
56.5503184
0
LINE
8
bottom_labelLayer
10
623.853456
20
56.5503184
11
621.8108778
21
56.5503184
0
LINE
8
bottom_labelLayer
10
621.8108778
20
56.5503184
11
621.8108778
21
65.3235606
0
LINE
8
bottom_labelLayer
10
615.2647841
20
63.6255137
11
615.2647841
21
56.5503184
0
LINE
8
bottom_labelLayer
10
615.2647841
20
56.5503184
11
613.222206
21
56.5503184
0
LINE
8
bottom_labelLayer
10
613.222206
20
56.5503184
11
613.222206
21
70.0362559
0
LINE
8
bottom_labelLayer
10
613.222206
20
70.0362559
11
614.8833388
21
70.0362559
0
LINE
8
bottom_labelLayer
10
614.8833388
20
70.0362559
11
615.2155653
21
68.1905528
0
LINE
8
bottom_labelLayer
10
615.2155653
20
68.1905528
11
615.3140028
21
68.1905528
0
LINE
8
bottom_labelLayer
10
623.4350966
20
67.9936778
11
623.5335341
21
67.9936778
0
LINE
8
bottom_labelLayer
10
632.4544325
20
65.3481699
11
632.4544325
21
56.5503184
0
ARC
8
bottom_labelLayer
10
624.3861789
20
65.3556549
40
6.025761
50
359.6948306
51
8.1471567
0
ARC
8
bottom_labelLayer
10
626.6056512
20
65.6841126
40
3.7821562
50
7.9864576
51
20.7949533
0
ARC
8
bottom_labelLayer
10
627.8325182
20
66.1540795
40
2.4683641
50
20.707123
51
40.0217691
0
ARC
8
bottom_labelLayer
10
628.1016635
20
66.3301774
40
2.1493478
50
41.0408186
51
73.1792546
0
ARC
8
bottom_labelLayer
10
627.7122116
20
65.152271
40
3.3897065
50
72.6395628
51
86.2568137
0
ARC
8
bottom_labelLayer
10
627.5874472
20
63.8060063
40
4.7413859
50
85.8144313
51
90.0685288
0
ARC
8
bottom_labelLayer
10
627.5416112
20
63.2916556
40
5.2558866
50
89.5621463
51
101.2961559
0
ARC
8
bottom_labelLayer
10
627.1457534
20
65.1867673
40
3.31999
50
101.0032198
51
121.784049
0
ARC
8
bottom_labelLayer
10
626.844805
20
65.7240455
40
2.7049034
50
122.3597213
51
140.2884162
0
ARC
8
bottom_labelLayer
10
627.3862443
20
65.3270426
40
3.3753145
50
140.9765231
51
161.1699419
0
ARC
8
bottom_labelLayer
10
629.4259754
20
64.60115
40
5.5402442
50
160.8731882
51
172.5272389
0
ARC
8
bottom_labelLayer
10
632.8342787
20
64.1304379
40
8.9808492
50
172.3776459
51
180.1829644
0
ARC
8
bottom_labelLayer
10
635.0600234
20
64.0809065
40
11.2065675
50
179.8933868
51
180.00061
0
ARC
8
bottom_labelLayer
10
615.7852023
20
65.3556549
40
6.025761
50
359.6948306
51
8.1471567
0
ARC
8
bottom_labelLayer
10
618.0046747
20
65.6841126
40
3.7821562
50
7.9864576
51
20.7949533
0
ARC
8
bottom_labelLayer
10
619.2315416
20
66.1540795
40
2.4683641
50
20.707123
51
40.0217691
0
ARC
8
bottom_labelLayer
10
619.5062841
20
66.3340457
40
2.1425864
50
41.0610708
51
72.8993576
0
ARC
8
bottom_labelLayer
10
619.1094525
20
65.1526359
40
3.3886046
50
72.3600966
51
85.9561722
0
ARC
8
bottom_labelLayer
10
618.9751168
20
63.7642375
40
4.7831558
50
85.5238331
51
90.0793199
0
ARC
8
bottom_labelLayer
10
618.9293001
20
63.4743617
40
5.0731784
50
89.5573333
51
101.4832232
0
ARC
8
bottom_labelLayer
10
618.5399162
20
65.2987101
40
3.207882
50
101.1546429
51
123.06556
0
ARC
8
bottom_labelLayer
10
618.2752325
20
65.7597772
40
2.6772403
50
123.702043
51
142.3022076
0
ARC
8
bottom_labelLayer
10
618.895238
20
65.339158
40
3.4253382
50
143.0769863
51
161.3913775
0
ARC
8
bottom_labelLayer
10
621.3944333
20
64.4565008
40
6.0756594
50
161.0234558
51
171.4469019
0
ARC
8
bottom_labelLayer
10
625.5317961
20
63.8083979
40
10.2634299
50
171.3042019
51
178.3501546
0
ARC
8
bottom_labelLayer
10
629.4859885
20
63.6317981
40
14.2212058
50
178.0976205
51
180.0253191
0
ARC
8
bottom_labelLayer
10
618.7744068
20
66.1556642
40
4.0143701
50
117.1209569
51
149.5423669
0
ARC
8
bottom_labelLayer
10
619.1841074
20
65.4274732
40
4.8493743
50
93.8343315
51
117.5072144
0
ARC
8
bottom_labelLayer
10
619.2972634
20
64.4251817
40
5.8571688
50
89.9661714
51
94.2831195
0
ARC
8
bottom_labelLayer
10
619.3650668
20
63.5952419
40
6.6874173
50
77.5572309
51
90.5512993
0
ARC
8
bottom_labelLayer
10
619.9855863
20
66.2642132
40
3.9475564
50
52.702699
51
78.0053843
0
ARC
8
bottom_labelLayer
10
620.2066662
20
66.6755363
40
3.4871565
50
22.209788
51
51.4970681
0
ARC
8
bottom_labelLayer
10
627.233754
20
65.873073
40
4.2648086
50
119.4041769
51
150.1828768
0
ARC
8
bottom_labelLayer
10
627.7067057
20
65.1538771
40
5.1238989
50
118.2584281
51
120.063077
0
ARC
8
bottom_labelLayer
10
627.7053948
20
65.1012176
40
5.1697275
50
95.8635191
51
117.9693145
0
ARC
8
bottom_labelLayer
10
627.8803564
20
63.8361394
40
6.4462166
50
89.9196758
51
96.2617781
0
ARC
8
bottom_labelLayer
10
627.9365288
20
63.1823939
40
7.1001122
50
79.9360992
51
90.380371
0
ARC
8
bottom_labelLayer
10
628.4096174
20
65.7445931
40
4.4947022
50
62.9723395
51
80.1664999
0
ARC
8
bottom_labelLayer
10
628.9041734
20
66.7592342
40
3.366199
50
44.2290036
51
62.622905
0
ARC
8
bottom_labelLayer
10
628.757081
20
66.6942544
40
3.5173709
50
19.5612116
51
43.3161204
0
ARC
8
bottom_labelLayer
10
626.62082
20
65.8918743
40
5.7991276
50
7.5041952
51
19.9645251
0
ARC
8
bottom_labelLayer
10
623.0858872
20
65.3954669
40
9.3686646
50
359.7107456
51
7.6907111
0
ENDSEC
0
EOF