<svg width="744mm" height="126mm" viewBox="0 0 744 126" xmlns="http://www.w3.org/2000/svg" version="1.1" preserveAspectRatio="xMidYMid meet"><g id="svgGroup" stroke-linecap="round" fill-rule="evenodd" font-size="9pt" stroke="#000" stroke-width="0.25mm" fill="none" style="stroke:#000;stroke-width:0.25mm;fill:none"><path d="M 0 108 L 0 113.345 L 3 113.345 L 3 120.655 L 0 120.655 L 0 126 L 17.765 126 L 17.765 123 L 25.075 123 L 25.075 126 L 32.385 126 L 32.385 123 L 39.695 123 L 39.695 126 L 47.005 126 L 47.005 123 L 54.315 123 L 54.315 126 L 61.625 126 L 61.625 123 L 68.935 123 L 68.935 126 L 76.245 126 L 76.245 123 L 83.555 123 L 83.555 126 L 90.865 126 L 90.865 123 L 98.175 123 L 98.175 126 L 105.485 126 L 105.485 123 L 112.795 123 L 112.795 126 L 120.105 126 L 120.105 123 L 127.415 123 L 127.415 126 L 134.725 126 L 134.725 123 L 142.035 123 L 142.035 126 L 149.345 126 L 149.345 123 L 156.655 123 L 156.655 126 L 163.965 126 L 163.965 123 L 171.275 123 L 171.275 126 L 178.585 126 L 178.585 123 L 185.895 123 L 185.895 126 L 193.205 126 L 193.205 123 L 200.515 123 L 200.515 126 L 207.825 126 L 207.825 123 L 215.135 123 L 215.135 126 L 222.445 126 L 222.445 123 L 229.755 123 L 229.755 126 L 237.065 126 L 237.065 123 L 244.375 123 L 244.375 126 L 251.685 126 L 251.685 123 L 258.995 123 L 258.995 126 L 266.305 126 L 266.305 123 L 273.615 123 L 273.615 126 L 280.925 126 L 280.925 123 L 288.235 123 L 288.235 126 L 295.545 126 L 306 126 L 306 120.655 L 303 120.655 L 303 113.345 L 306 113.345 L 306 108 L 0 108 Z" id="front_outsideCutPath" stroke="#FF0000" stroke-width="0.1" style="stroke:#FF0000;stroke-width:0.1" vector-effect="non-scaling-stroke"/><path d="M 155.624 118.36 L 155.332 118.36 L 155.332 117.113 Q 155.332 116.963 155.288 116.862 A 0.347 0.347 0 0 0 155.225 116.762 Q 155.138 116.668 154.971 116.65 A 0.774 0.774 0 0 0 154.889 116.646 Q 154.69 116.646 154.561 116.717 A 0.411 0.411 0 0 0 154.446 116.809 Q 154.317 116.959 154.306 117.286 A 1.869 1.869 0 0 0 154.305 117.349 L 154.305 118.36 L 154.013 118.36 L 154.013 116.433 L 154.251 116.433 L 154.298 116.697 L 154.312 116.697 Q 154.402 116.554 154.564 116.476 A 0.79 0.79 0 0 1 154.845 116.401 A 0.955 0.955 0 0 1 154.924 116.398 A 1.152 1.152 0 0 1 155.12 116.413 Q 155.326 116.449 155.448 116.566 A 0.506 0.506 0 0 1 155.571 116.759 Q 155.601 116.839 155.613 116.938 A 1.273 1.273 0 0 1 155.624 117.103 L 155.624 118.36 Z M 150.018 116.433 L 150.018 116.66 L 149.527 116.66 L 149.527 118.36 L 149.236 118.36 L 149.236 116.66 L 148.891 116.66 L 148.891 116.528 L 149.236 116.423 L 149.236 116.315 A 1.183 1.183 0 0 1 149.263 116.047 Q 149.367 115.605 149.856 115.605 A 0.94 0.94 0 0 1 149.989 115.615 Q 150.054 115.625 150.126 115.642 A 1.889 1.889 0 0 1 150.215 115.667 L 150.139 115.9 A 1.417 1.417 0 0 0 150.029 115.869 Q 149.973 115.856 149.924 115.851 A 0.628 0.628 0 0 0 149.851 115.846 Q 149.686 115.846 149.607 115.956 Q 149.535 116.055 149.528 116.264 A 1.378 1.378 0 0 0 149.527 116.308 L 149.527 116.433 L 150.018 116.433 Z M 157.109 118.119 L 157.109 118.342 A 0.287 0.287 0 0 1 157.075 118.356 Q 157.033 118.37 156.969 118.38 Q 156.883 118.394 156.813 118.395 A 0.747 0.747 0 0 1 156.803 118.395 A 0.762 0.762 0 0 1 156.578 118.365 Q 156.332 118.288 156.267 118.02 A 0.917 0.917 0 0 1 156.244 117.806 L 156.244 116.66 L 155.968 116.66 L 155.968 116.519 L 156.244 116.398 L 156.367 115.987 L 156.536 115.987 L 156.536 116.433 L 157.095 116.433 L 157.095 116.66 L 156.536 116.66 L 156.536 117.794 Q 156.536 117.916 156.577 117.998 A 0.283 0.283 0 0 0 156.618 118.061 A 0.271 0.271 0 0 0 156.785 118.15 A 0.39 0.39 0 0 0 156.845 118.154 Q 156.923 118.154 156.995 118.143 A 1.578 1.578 0 0 0 157.037 118.135 Q 157.077 118.128 157.105 118.12 A 0.434 0.434 0 0 0 157.109 118.119 Z M 151.479 116.419 L 151.438 116.69 Q 151.339 116.668 151.259 116.664 A 0.684 0.684 0 0 0 151.227 116.663 A 0.506 0.506 0 0 0 150.854 116.825 A 0.692 0.692 0 0 0 150.827 116.853 A 0.666 0.666 0 0 0 150.667 117.227 A 0.886 0.886 0 0 0 150.661 117.326 L 150.661 118.36 L 150.369 118.36 L 150.369 116.433 L 150.61 116.433 L 150.644 116.79 L 150.658 116.79 Q 150.765 116.602 150.916 116.5 A 0.582 0.582 0 0 1 151.248 116.398 A 1.34 1.34 0 0 1 151.368 116.403 A 0.978 0.978 0 0 1 151.479 116.419 Z M 153.475 117.688 A 1.507 1.507 0 0 0 153.502 117.395 A 1.713 1.713 0 0 0 153.501 117.348 Q 153.49 116.922 153.264 116.667 A 0.764 0.764 0 0 0 152.909 116.438 A 0.981 0.981 0 0 0 152.621 116.398 A 1.133 1.133 0 0 0 152.418 116.415 A 0.772 0.772 0 0 0 151.967 116.661 A 0.806 0.806 0 0 0 151.868 116.798 Q 151.732 117.036 151.732 117.395 Q 151.732 117.699 151.841 117.925 A 0.959 0.959 0 0 0 151.862 117.967 A 0.79 0.79 0 0 0 152.15 118.273 A 0.812 0.812 0 0 0 152.337 118.356 A 0.937 0.937 0 0 0 152.609 118.395 Q 153.027 118.395 153.265 118.13 A 0.814 0.814 0 0 0 153.361 117.997 Q 153.441 117.862 153.475 117.688 Z M 152.034 117.395 A 1.478 1.478 0 0 0 152.048 117.606 Q 152.08 117.823 152.182 117.957 A 0.478 0.478 0 0 0 152.493 118.141 A 0.725 0.725 0 0 0 152.616 118.15 A 0.678 0.678 0 0 0 152.795 118.128 A 0.472 0.472 0 0 0 153.051 117.958 A 0.626 0.626 0 0 0 153.149 117.768 Q 153.177 117.68 153.19 117.573 A 1.537 1.537 0 0 0 153.2 117.395 A 1.456 1.456 0 0 0 153.186 117.187 Q 153.154 116.969 153.051 116.836 Q 152.902 116.646 152.612 116.646 A 0.694 0.694 0 0 0 152.44 116.666 A 0.465 0.465 0 0 0 152.18 116.834 Q 152.075 116.969 152.046 117.2 A 1.542 1.542 0 0 0 152.034 117.395 Z" id="front_labelLayer" stroke="#777777" fill="#777777" style="stroke:#777777;fill:#777777" vector-effect="non-scaling-stroke"/><path d="M 312 108 L 312 113.345 L 309 113.345 L 309 120.655 L 312 120.655 L 312 126 L 317.175 126 L 317.175 123 L 324.485 123 L 324.485 126 L 331.795 126 L 331.795 123 L 339.105 123 L 339.105 126 L 346.415 126 L 346.415 123 L 353.725 123 L 353.725 126 L 361.035 126 L 361.035 123 L 368.345 123 L 368.345 126 L 375.655 126 L 375.655 123 L 382.965 123 L 382.965 126 L 390.275 126 L 390.275 123 L 397.585 123 L 397.585 126 L 404.895 126 L 404.895 123 L 412.205 123 L 412.205 126 L 419.515 126 L 419.515 123 L 426.825 123 L 426.825 126 L 432 126 L 432 120.655 L 435 120.655 L 435 113.345 L 432 113.345 L 432 108 L 312 108 Z" id="left_outsideCutPath" stroke="#FF0000" stroke-width="0.1" style="stroke:#FF0000;stroke-width:0.1" vector-effect="non-scaling-stroke"/><path d="M 373.281 116.433 L 373.281 116.66 L 372.79 116.66 L 372.79 118.36 L 372.498 118.36 L 372.498 116.66 L 372.154 116.66 L 372.154 116.528 L 372.498 116.423 L 372.498 116.315 A 1.183 1.183 0 0 1 372.526 116.047 Q 372.629 115.605 373.119 115.605 A 0.94 0.94 0 0 1 373.252 115.615 Q 373.317 115.625 373.388 115.642 A 1.889 1.889 0 0 1 373.477 115.667 L 373.402 115.9 A 1.417 1.417 0 0 0 373.292 115.869 Q 373.236 115.856 373.187 115.851 A 0.628 0.628 0 0 0 373.114 115.846 Q 372.948 115.846 372.869 115.956 Q 372.797 116.055 372.791 116.264 A 1.378 1.378 0 0 0 372.79 116.308 L 372.79 116.433 L 373.281 116.433 Z M 371.915 117.265 L 371.915 117.449 L 370.588 117.449 A 1.171 1.171 0 0 0 370.608 117.645 Q 370.647 117.843 370.759 117.964 Q 370.922 118.14 371.217 118.14 A 1.541 1.541 0 0 0 371.794 118.026 A 1.766 1.766 0 0 0 371.832 118.01 L 371.832 118.27 A 1.752 1.752 0 0 1 371.672 118.33 A 1.34 1.34 0 0 1 371.539 118.366 A 1.225 1.225 0 0 1 371.418 118.385 Q 371.358 118.391 371.29 118.393 A 2.377 2.377 0 0 1 371.206 118.395 A 1.134 1.134 0 0 1 370.923 118.361 A 0.803 0.803 0 0 1 370.532 118.135 A 0.859 0.859 0 0 1 370.327 117.757 Q 370.285 117.602 370.285 117.412 A 1.532 1.532 0 0 1 370.314 117.108 Q 370.366 116.85 370.515 116.672 A 0.748 0.748 0 0 1 371.06 116.4 A 1.032 1.032 0 0 1 371.131 116.398 Q 371.493 116.398 371.704 116.636 A 0.816 0.816 0 0 1 371.889 117.009 A 1.188 1.188 0 0 1 371.915 117.265 Z M 374.518 118.119 L 374.518 118.342 A 0.287 0.287 0 0 1 374.484 118.356 Q 374.442 118.37 374.378 118.38 Q 374.292 118.394 374.222 118.395 A 0.747 0.747 0 0 1 374.212 118.395 A 0.762 0.762 0 0 1 373.988 118.365 Q 373.741 118.288 373.676 118.02 A 0.917 0.917 0 0 1 373.653 117.806 L 373.653 116.66 L 373.377 116.66 L 373.377 116.519 L 373.653 116.398 L 373.776 115.987 L 373.945 115.987 L 373.945 116.433 L 374.504 116.433 L 374.504 116.66 L 373.945 116.66 L 373.945 117.794 Q 373.945 117.916 373.986 117.998 A 0.283 0.283 0 0 0 374.028 118.061 A 0.271 0.271 0 0 0 374.194 118.15 A 0.39 0.39 0 0 0 374.254 118.154 Q 374.332 118.154 374.404 118.143 A 1.578 1.578 0 0 0 374.446 118.135 Q 374.486 118.128 374.514 118.12 A 0.434 0.434 0 0 0 374.518 118.119 Z M 369.774 115.624 L 369.774 118.36 L 369.482 118.36 L 369.482 115.624 L 369.774 115.624 Z M 370.595 117.212 L 371.602 117.212 A 0.994 0.994 0 0 0 371.59 117.052 Q 371.576 116.966 371.546 116.898 A 0.451 0.451 0 0 0 371.479 116.789 A 0.4 0.4 0 0 0 371.238 116.652 A 0.6 0.6 0 0 0 371.127 116.642 A 0.575 0.575 0 0 0 370.961 116.665 A 0.444 0.444 0 0 0 370.757 116.793 Q 370.632 116.93 370.6 117.162 A 1.103 1.103 0 0 0 370.595 117.212 Z" id="left_labelLayer" stroke="#777777" fill="#777777" style="stroke:#777777;fill:#777777" vector-effect="non-scaling-stroke"/><path d="M 0 87 L 0 92.345 L 3 92.345 L 3 99.655 L 0 99.655 L 0 105 L 17.765 105 L 17.765 102 L 25.075 102 L 25.075 105 L 32.385 105 L 32.385 102 L 39.695 102 L 39.695 105 L 47.005 105 L 47.005 102 L 54.315 102 L 54.315 105 L 61.625 105 L 61.625 102 L 68.935 102 L 68.935 105 L 76.245 105 L 76.245 102 L 83.555 102 L 83.555 105 L 90.865 105 L 90.865 102 L 98.175 102 L 98.175 105 L 105.485 105 L 105.485 102 L 112.795 102 L 112.795 105 L 120.105 105 L 120.105 102 L 127.415 102 L 127.415 105 L 134.725 105 L 134.725 102 L 142.035 102 L 142.035 105 L 149.345 105 L 149.345 102 L 156.655 102 L 156.655 105 L 163.965 105 L 163.965 102 L 171.275 102 L 171.275 105 L 178.585 105 L 178.585 102 L 185.895 102 L 185.895 105 L 193.205 105 L 193.205 102 L 200.515 102 L 200.515 105 L 207.825 105 L 207.825 102 L 215.135 102 L 215.135 105 L 222.445 105 L 222.445 102 L 229.755 102 L 229.755 105 L 237.065 105 L 237.065 102 L 244.375 102 L 244.375 105 L 251.685 105 L 251.685 102 L 258.995 102 L 258.995 105 L 266.305 105 L 266.305 102 L 273.615 102 L 273.615 105 L 280.925 105 L 280.925 102 L 288.235 102 L 288.235 105 L 295.545 105 L 306 105 L 306 99.655 L 303 99.655 L 303 92.345 L 306 92.345 L 306 87 L 0 87 Z" id="back_outsideCutPath" stroke="#FF0000" stroke-width="0.1" style="stroke:#FF0000;stroke-width:0.1" vector-effect="non-scaling-stroke"/><path d="M 155.464 96.364 L 155.479 96.364 A 1.727 1.727 0 0 1 155.521 96.306 Q 155.593 96.213 155.709 96.083 L 156.331 95.423 L 156.677 95.423 L 155.897 96.244 L 156.732 97.35 L 156.379 97.35 L 155.698 96.439 L 155.479 96.629 L 155.479 97.35 L 155.19 97.35 L 155.19 94.615 L 155.479 94.615 L 155.479 96.065 A 1.945 1.945 0 0 1 155.478 96.12 Q 155.475 96.212 155.464 96.364 Z M 149.56 97.102 L 149.539 97.102 L 149.477 97.35 L 149.268 97.35 L 149.268 94.615 L 149.56 94.615 L 149.56 95.279 A 6.084 6.084 0 0 1 149.557 95.485 Q 149.553 95.589 149.546 95.68 L 149.56 95.68 A 0.663 0.663 0 0 1 150.044 95.399 A 0.997 0.997 0 0 1 150.165 95.392 A 0.892 0.892 0 0 1 150.416 95.425 A 0.668 0.668 0 0 1 150.754 95.651 A 0.86 0.86 0 0 1 150.905 95.941 Q 150.964 96.133 150.964 96.385 A 1.711 1.711 0 0 1 150.942 96.673 Q 150.895 96.946 150.753 97.122 A 0.691 0.691 0 0 1 150.262 97.381 A 0.99 0.99 0 0 1 150.165 97.385 A 0.885 0.885 0 0 1 149.942 97.358 A 0.77 0.77 0 0 1 149.821 97.316 A 0.646 0.646 0 0 1 149.56 97.102 Z M 152.875 97.35 L 152.659 97.35 L 152.601 97.076 L 152.587 97.076 A 1.21 1.21 0 0 1 152.489 97.185 Q 152.394 97.279 152.3 97.321 A 0.673 0.673 0 0 1 152.161 97.365 Q 152.093 97.379 152.015 97.383 A 1.313 1.313 0 0 1 151.942 97.385 A 0.895 0.895 0 0 1 151.76 97.368 Q 151.599 97.334 151.493 97.237 Q 151.33 97.09 151.33 96.817 A 0.505 0.505 0 0 1 151.617 96.341 Q 151.848 96.218 152.263 96.206 L 152.59 96.195 L 152.59 96.076 A 0.838 0.838 0 0 0 152.582 95.954 Q 152.573 95.892 152.554 95.843 A 0.326 0.326 0 0 0 152.493 95.741 Q 152.415 95.654 152.263 95.637 A 0.721 0.721 0 0 0 152.181 95.633 A 0.95 0.95 0 0 0 151.962 95.66 Q 151.862 95.684 151.753 95.728 A 1.954 1.954 0 0 0 151.636 95.78 L 151.546 95.557 A 1.345 1.345 0 0 1 151.806 95.45 A 1.532 1.532 0 0 1 151.858 95.436 A 1.351 1.351 0 0 1 152.198 95.392 Q 152.414 95.392 152.56 95.452 A 0.497 0.497 0 0 1 152.709 95.545 A 0.462 0.462 0 0 1 152.828 95.729 Q 152.856 95.804 152.867 95.898 A 1.148 1.148 0 0 1 152.875 96.035 L 152.875 97.35 Z M 154.761 95.488 L 154.672 95.736 A 1.298 1.298 0 0 0 154.531 95.689 A 1.55 1.55 0 0 0 154.461 95.672 Q 154.363 95.65 154.285 95.647 A 0.647 0.647 0 0 0 154.259 95.647 Q 153.671 95.647 153.671 96.395 Q 153.671 96.629 153.733 96.79 A 0.605 0.605 0 0 0 153.815 96.94 A 0.463 0.463 0 0 0 154.115 97.12 A 0.706 0.706 0 0 0 154.239 97.13 A 1.221 1.221 0 0 0 154.576 97.081 A 1.508 1.508 0 0 0 154.733 97.027 L 154.733 97.285 A 0.83 0.83 0 0 1 154.53 97.357 Q 154.436 97.378 154.327 97.383 A 1.6 1.6 0 0 1 154.246 97.385 A 1.091 1.091 0 0 1 153.981 97.355 A 0.74 0.74 0 0 1 153.599 97.128 Q 153.4 96.905 153.373 96.523 A 1.764 1.764 0 0 1 153.369 96.399 Q 153.369 96.049 153.491 95.814 A 0.804 0.804 0 0 1 153.602 95.652 A 0.756 0.756 0 0 1 154.016 95.414 A 1.145 1.145 0 0 1 154.266 95.388 A 1.317 1.317 0 0 1 154.543 95.418 A 1.456 1.456 0 0 1 154.624 95.438 Q 154.706 95.46 154.76 95.488 A 0.45 0.45 0 0 1 154.761 95.488 Z M 150.122 95.636 Q 149.824 95.636 149.692 95.807 A 0.5 0.5 0 0 0 149.619 95.945 Q 149.571 96.082 149.562 96.29 A 2.248 2.248 0 0 0 149.56 96.385 A 1.929 1.929 0 0 0 149.57 96.584 Q 149.59 96.786 149.658 96.908 A 0.44 0.44 0 0 0 149.695 96.966 Q 149.831 97.141 150.129 97.141 A 0.582 0.582 0 0 0 150.295 97.119 A 0.42 0.42 0 0 0 150.53 96.945 Q 150.624 96.805 150.651 96.577 A 1.672 1.672 0 0 0 150.662 96.381 A 1.724 1.724 0 0 0 150.652 96.185 Q 150.627 95.97 150.544 95.84 A 0.484 0.484 0 0 0 150.53 95.821 Q 150.398 95.636 150.122 95.636 Z M 152.583 96.577 L 152.583 96.403 L 152.292 96.415 A 2.143 2.143 0 0 0 152.12 96.427 Q 151.952 96.447 151.846 96.494 A 0.448 0.448 0 0 0 151.79 96.523 A 0.311 0.311 0 0 0 151.641 96.749 A 0.461 0.461 0 0 0 151.636 96.821 A 0.417 0.417 0 0 0 151.646 96.917 Q 151.664 96.99 151.71 97.041 A 0.26 0.26 0 0 0 151.732 97.062 A 0.318 0.318 0 0 0 151.851 97.125 Q 151.898 97.139 151.954 97.143 A 0.656 0.656 0 0 0 152 97.144 A 0.803 0.803 0 0 0 152.173 97.127 Q 152.326 97.093 152.428 96.995 A 0.489 0.489 0 0 0 152.564 96.751 Q 152.583 96.672 152.583 96.579 A 0.906 0.906 0 0 0 152.583 96.577 Z" id="back_labelLayer" stroke="#777777" fill="#777777" style="stroke:#777777;fill:#777777" vector-effect="non-scaling-stroke"/><path d="M 312 87 L 312 92.345 L 309 92.345 L 309 99.655 L 312 99.655 L 312 105 L 317.175 105 L 317.175 102 L 324.485 102 L 324.485 105 L 331.795 105 L 331.795 102 L 339.105 102 L 339.105 105 L 346.415 105 L 346.415 102 L 353.725 102 L 353.725 105 L 361.035 105 L 361.035 102 L 368.345 102 L 368.345 105 L 375.655 105 L 375.655 102 L 382.965 102 L 382.965 105 L 390.275 105 L 390.275 102 L 397.585 102 L 397.585 105 L 404.895 105 L 404.895 102 L 412.205 102 L 412.205 105 L 419.515 105 L 419.515 102 L 426.825 102 L 426.825 105 L 432 105 L 432 99.655 L 435 99.655 L 435 92.345 L 432 92.345 L 432 87 L 312 87 Z" id="right_outsideCutPath" stroke="#FF0000" stroke-width="0.1" style="stroke:#FF0000;stroke-width:0.1" vector-effect="non-scaling-stroke"/><path d="M 374.239 96.935 L 373.947 96.935 L 373.947 95.689 Q 373.947 95.539 373.903 95.437 A 0.347 0.347 0 0 0 373.84 95.337 Q 373.753 95.243 373.586 95.225 A 0.774 0.774 0 0 0 373.504 95.221 Q 373.2 95.221 373.06 95.387 Q 372.92 95.552 372.92 95.928 L 372.92 96.935 L 372.628 96.935 L 372.628 94.2 L 372.92 94.2 L 372.92 95.028 A 2.625 2.625 0 0 1 372.918 95.129 Q 372.915 95.213 372.906 95.276 L 372.924 95.276 A 0.583 0.583 0 0 1 373.128 95.079 A 0.712 0.712 0 0 1 373.169 95.057 A 0.749 0.749 0 0 1 373.415 94.984 A 0.947 0.947 0 0 1 373.532 94.977 Q 373.885 94.977 374.062 95.145 Q 374.199 95.275 374.23 95.525 A 1.262 1.262 0 0 1 374.239 95.678 L 374.239 96.935 Z M 371.567 95.009 L 372.233 95.009 L 372.233 95.193 L 371.876 95.235 A 0.474 0.474 0 0 1 371.917 95.296 Q 371.942 95.34 371.964 95.396 Q 372.003 95.495 372.003 95.62 A 0.669 0.669 0 0 1 371.972 95.828 A 0.541 0.541 0 0 1 371.809 96.072 A 0.647 0.647 0 0 1 371.555 96.206 Q 371.458 96.233 371.344 96.239 A 1.267 1.267 0 0 1 371.278 96.241 A 0.938 0.938 0 0 1 371.17 96.235 A 0.792 0.792 0 0 1 371.117 96.227 A 0.519 0.519 0 0 0 371.033 96.281 Q 370.99 96.316 370.965 96.356 A 0.22 0.22 0 0 0 370.93 96.475 A 0.151 0.151 0 0 0 370.938 96.524 Q 370.952 96.565 370.991 96.589 A 0.162 0.162 0 0 0 370.995 96.591 Q 371.06 96.629 371.219 96.629 L 371.56 96.629 Q 371.768 96.629 371.913 96.688 A 0.527 0.527 0 0 1 372.04 96.761 A 0.427 0.427 0 0 1 372.199 97.033 A 0.641 0.641 0 0 1 372.208 97.144 A 0.632 0.632 0 0 1 372.172 97.363 Q 372.114 97.522 371.962 97.626 A 0.693 0.693 0 0 1 371.952 97.632 A 0.875 0.875 0 0 1 371.726 97.734 Q 371.615 97.768 371.479 97.785 A 2.313 2.313 0 0 1 371.203 97.8 A 1.635 1.635 0 0 1 370.984 97.786 Q 370.872 97.771 370.781 97.739 A 0.678 0.678 0 0 1 370.62 97.659 A 0.465 0.465 0 0 1 370.47 97.497 Q 370.422 97.408 370.416 97.295 A 0.616 0.616 0 0 1 370.415 97.262 A 0.446 0.446 0 0 1 370.528 96.958 A 0.51 0.51 0 0 1 370.703 96.83 A 0.722 0.722 0 0 1 370.844 96.784 Q 370.77 96.751 370.72 96.68 A 0.271 0.271 0 0 1 370.671 96.534 A 0.335 0.335 0 0 1 370.67 96.517 A 0.334 0.334 0 0 1 370.687 96.409 A 0.296 0.296 0 0 1 370.726 96.332 A 0.418 0.418 0 0 1 370.782 96.27 Q 370.811 96.243 370.849 96.216 A 0.917 0.917 0 0 1 370.904 96.179 Q 370.755 96.118 370.661 95.97 A 0.603 0.603 0 0 1 370.568 95.679 A 0.736 0.736 0 0 1 370.567 95.633 A 0.843 0.843 0 0 1 370.589 95.433 A 0.555 0.555 0 0 1 370.756 95.145 A 0.62 0.62 0 0 1 370.994 95.014 Q 371.126 94.973 371.294 94.973 A 1.118 1.118 0 0 1 371.442 94.983 A 0.852 0.852 0 0 1 371.567 95.009 Z M 375.724 96.694 L 375.724 96.918 A 0.287 0.287 0 0 1 375.69 96.931 Q 375.648 96.945 375.584 96.955 Q 375.498 96.969 375.428 96.97 A 0.747 0.747 0 0 1 375.418 96.97 A 0.762 0.762 0 0 1 375.193 96.94 Q 374.947 96.864 374.882 96.596 A 0.917 0.917 0 0 1 374.859 96.381 L 374.859 95.235 L 374.583 95.235 L 374.583 95.095 L 374.859 94.973 L 374.982 94.562 L 375.151 94.562 L 375.151 95.009 L 375.71 95.009 L 375.71 95.235 L 375.151 95.235 L 375.151 96.369 Q 375.151 96.491 375.192 96.574 A 0.283 0.283 0 0 0 375.233 96.636 A 0.271 0.271 0 0 0 375.4 96.725 A 0.39 0.39 0 0 0 375.46 96.729 Q 375.538 96.729 375.61 96.718 A 1.578 1.578 0 0 0 375.652 96.711 Q 375.692 96.703 375.72 96.695 A 0.434 0.434 0 0 0 375.724 96.694 Z M 369.385 94.995 L 369.345 95.265 Q 369.245 95.243 369.165 95.24 A 0.684 0.684 0 0 0 369.134 95.239 A 0.506 0.506 0 0 0 368.76 95.4 A 0.692 0.692 0 0 0 368.734 95.429 A 0.666 0.666 0 0 0 368.573 95.803 A 0.886 0.886 0 0 0 368.568 95.902 L 368.568 96.935 L 368.276 96.935 L 368.276 95.009 L 368.517 95.009 L 368.55 95.365 L 368.564 95.365 Q 368.672 95.177 368.823 95.075 A 0.582 0.582 0 0 1 369.155 94.973 A 1.34 1.34 0 0 1 369.275 94.979 A 0.978 0.978 0 0 1 369.385 94.995 Z M 370.037 95.009 L 370.037 96.935 L 369.746 96.935 L 369.746 95.009 L 370.037 95.009 Z M 371.467 96.891 L 371.117 96.891 A 0.671 0.671 0 0 0 370.996 96.901 Q 370.882 96.922 370.807 96.986 A 0.307 0.307 0 0 0 370.706 97.16 A 0.467 0.467 0 0 0 370.697 97.259 Q 370.697 97.404 370.811 97.485 A 0.342 0.342 0 0 0 370.828 97.496 A 0.467 0.467 0 0 0 370.943 97.545 Q 371.052 97.577 371.204 97.577 A 1.028 1.028 0 0 0 371.206 97.577 Q 371.574 97.577 371.75 97.467 A 0.426 0.426 0 0 0 371.849 97.384 A 0.319 0.319 0 0 0 371.927 97.169 Q 371.927 97.072 371.89 97.012 A 0.184 0.184 0 0 0 371.83 96.952 A 0.277 0.277 0 0 0 371.765 96.923 Q 371.695 96.902 371.584 96.895 A 1.857 1.857 0 0 0 371.467 96.891 Z M 370.855 95.626 A 0.57 0.57 0 0 0 370.867 95.745 Q 370.891 95.861 370.969 95.931 A 0.377 0.377 0 0 0 371.121 96.014 Q 371.195 96.035 371.287 96.035 A 0.636 0.636 0 0 0 371.454 96.015 Q 371.644 95.964 371.695 95.777 A 0.591 0.591 0 0 0 371.714 95.62 A 0.627 0.627 0 0 0 371.693 95.448 Q 371.618 95.186 371.282 95.186 Q 371.124 95.186 371.022 95.251 A 0.336 0.336 0 0 0 370.966 95.297 A 0.35 0.35 0 0 0 370.881 95.44 Q 370.863 95.495 370.857 95.562 A 0.768 0.768 0 0 0 370.855 95.626 Z M 369.77 94.34 A 0.136 0.136 0 0 0 369.74 94.383 Q 369.721 94.424 369.721 94.487 A 0.345 0.345 0 0 0 369.723 94.519 Q 369.73 94.593 369.77 94.633 A 0.164 0.164 0 0 0 369.829 94.671 A 0.185 0.185 0 0 0 369.893 94.682 A 0.17 0.17 0 0 0 370.015 94.633 A 0.142 0.142 0 0 0 370.042 94.596 Q 370.055 94.573 370.061 94.542 A 0.302 0.302 0 0 0 370.066 94.487 A 0.334 0.334 0 0 0 370.064 94.455 Q 370.061 94.426 370.053 94.403 A 0.147 0.147 0 0 0 370.015 94.341 Q 369.964 94.293 369.893 94.293 A 0.223 0.223 0 0 0 369.879 94.294 A 0.169 0.169 0 0 0 369.77 94.34 Z" id="right_labelLayer" stroke="#777777" fill="#777777" style="stroke:#777777;fill:#777777" vector-effect="non-scaling-stroke"/><path d="M 441 3 L 441 8.175 L 438 8.175 L 438 15.485 L 441 15.485 L 441 22.795 L 438 22.795 L 438 30.105 L 441 30.105 L 441 37.415 L 438 37.415 L 438 44.725 L 441 44.725 L 441 52.035 L 438 52.035 L 438 59.345 L 441 59.345 L 441 66.655 L 438 66.655 L 438 73.965 L 441 73.965 L 441 81.275 L 438 81.275 L 438 88.585 L 441 88.585 L 441 95.895 L 438 95.895 L 438 103.205 L 441 103.205 L 441 110.515 L 438 110.515 L 438 117.825 L 441 117.825 L 441 123 L 455.765 123 L 455.765 126 L 463.075 126 L 463.075 123 L 470.385 123 L 470.385 126 L 477.695 126 L 477.695 123 L 485.005 123 L 485.005 126 L 492.315 126 L 492.315 123 L 499.625 123 L 499.625 126 L 506.935 126 L 506.935 123 L 514.245 123 L 514.245 126 L 521.555 126 L 521.555 123 L 528.865 123 L 528.865 126 L 536.175 126 L 536.175 123 L 543.485 123 L 543.485 126 L 550.795 126 L 550.795 123 L 558.105 123 L 558.105 126 L 565.415 126 L 565.415 123 L 572.725 123 L 572.725 126 L 580.035 126 L 580.035 123 L 587.345 123 L 587.345 126 L 594.655 126 L 594.655 123 L 601.965 123 L 601.965 126 L 609.275 126 L 609.275 123 L 616.585 123 L 616.585 126 L 623.895 126 L 623.895 123 L 631.205 123 L 631.205 126 L 638.515 126 L 638.515 123 L 645.825 123 L 645.825 126 L 653.135 126 L 653.135 123 L 660.445 123 L 660.445 126 L 667.755 126 L 667.755 123 L 675.065 123 L 675.065 126 L 682.375 126 L 682.375 123 L 689.685 123 L 689.685 126 L 696.995 126 L 696.995 123 L 704.305 123 L 704.305 126 L 711.615 126 L 711.615 123 L 718.925 123 L 718.925 126 L 726.235 126 L 726.235 123 L 733.545 123 L 741 123 L 741 117.825 L 744 117.825 L 744 110.515 L 741 110.515 L 741 103.205 L 744 103.205 L 744 95.895 L 741 95.895 L 741 88.585 L 744 88.585 L 744 81.275 L 741 81.275 L 741 73.965 L 744 73.965 L 744 66.655 L 741 66.655 L 741 59.345 L 744 59.345 L 744 52.035 L 741 52.035 L 741 44.725 L 744 44.725 L 744 37.415 L 741 37.415 L 741 30.105 L 744 30.105 L 744 22.795 L 741 22.795 L 741 15.485 L 744 15.485 L 744 8.175 L 741 8.175 L 741 3 L 726.235 3 L 726.235 0 L 718.925 0 L 718.925 3 L 711.615 3 L 711.615 0 L 704.305 0 L 704.305 3 L 696.995 3 L 696.995 0 L 689.685 0 L 689.685 3 L 682.375 3 L 682.375 0 L 675.065 0 L 675.065 3 L 667.755 3 L 667.755 0 L 660.445 0 L 660.445 3 L 653.135 3 L 653.135 0 L 645.825 0 L 645.825 3 L 638.515 3 L 638.515 0 L 631.205 0 L 631.205 3 L 623.895 3 L 623.895 0 L 616.585 0 L 616.585 3 L 609.275 3 L 609.275 0 L 601.965 0 L 601.965 3 L 594.655 3 L 594.655 0 L 587.345 0 L 587.345 3 L 580.035 3 L 580.035 0 L 572.725 0 L 572.725 3 L 565.415 3 L 565.415 0 L 558.105 0 L 558.105 3 L 550.795 3 L 550.795 0 L 543.485 0 L 543.485 3 L 536.175 3 L 536.175 0 L 528.865 0 L 528.865 3 L 521.555 3 L 521.555 0 L 514.245 0 L 514.245 3 L 506.935 3 L 506.935 0 L 499.625 0 L 499.625 3 L 492.315 3 L 492.315 0 L 485.005 0 L 485.005 3 L 477.695 3 L 477.695 0 L 470.385 0 L 470.385 3 L 463.075 3 L 463.075 0 L 455.765 0 L 455.765 3 L 448.455 3 L 441 3 Z" id="bottom_outsideCutPath" stroke="#FF0000" stroke-width="0.1" style="stroke:#FF0000;stroke-width:0.1" vector-effect="non-scaling-stroke"/><path d="M 632.454 72.45 L 630.412 72.45 L 630.412 63.676 A 6.026 6.026 0 0 0 630.351 62.79 Q 630.284 62.338 630.141 61.973 A 2.468 2.468 0 0 0 629.723 61.259 A 2.149 2.149 0 0 0 628.724 60.612 Q 628.368 60.498 627.934 60.465 A 4.741 4.741 0 0 0 627.582 60.453 Q 625.675 60.453 624.764 61.548 A 3.375 3.375 0 0 0 624.192 62.584 Q 623.856 63.525 623.853 64.898 A 11.207 11.207 0 0 0 623.853 64.919 L 623.853 72.45 L 621.811 72.45 L 621.811 63.676 A 6.026 6.026 0 0 0 621.75 62.79 Q 621.683 62.338 621.54 61.973 A 2.468 2.468 0 0 0 621.122 61.259 Q 620.433 60.453 618.968 60.453 A 5.073 5.073 0 0 0 617.919 60.554 Q 616.784 60.794 616.157 61.603 A 3.425 3.425 0 0 0 615.649 62.568 Q 615.265 63.655 615.265 65.374 L 615.265 72.45 L 613.222 72.45 L 613.222 58.964 L 614.883 58.964 L 615.216 60.809 L 615.314 60.809 A 4.014 4.014 0 0 1 616.944 59.271 A 4.849 4.849 0 0 1 618.86 58.734 A 5.857 5.857 0 0 1 619.301 58.718 A 6.687 6.687 0 0 1 620.806 58.874 Q 621.732 59.089 622.378 59.595 A 3.487 3.487 0 0 1 623.435 61.006 L 623.534 61.006 A 4.265 4.265 0 0 1 625.14 59.412 A 5.124 5.124 0 0 1 625.281 59.333 A 5.17 5.17 0 0 1 627.177 58.756 A 6.446 6.446 0 0 1 627.889 58.718 Q 630.178 58.718 631.316 59.893 A 3.517 3.517 0 0 1 632.071 61.128 Q 632.275 61.673 632.37 62.351 A 9.369 9.369 0 0 1 632.454 63.652 L 632.454 72.45 Z M 551.588 70.715 L 551.44 70.715 L 551.01 72.45 L 549.545 72.45 L 549.545 53.304 L 551.588 53.304 L 551.588 57.955 A 42.586 42.586 0 0 1 551.565 59.394 Q 551.54 60.119 551.49 60.76 L 551.588 60.76 A 4.644 4.644 0 0 1 554.978 58.792 A 6.976 6.976 0 0 1 555.821 58.742 A 6.243 6.243 0 0 1 557.578 58.977 A 4.673 4.673 0 0 1 559.949 60.557 Q 561.419 62.372 561.419 65.694 A 11.976 11.976 0 0 1 561.261 67.709 Q 560.934 69.618 559.937 70.856 A 4.835 4.835 0 0 1 556.5 72.663 A 6.928 6.928 0 0 1 555.821 72.696 A 6.196 6.196 0 0 1 554.264 72.506 A 5.391 5.391 0 0 1 553.415 72.21 A 4.524 4.524 0 0 1 551.588 70.715 Z M 586.41 70.764 L 586.41 72.327 Q 586.078 72.487 585.432 72.591 A 8.853 8.853 0 0 1 584.855 72.666 Q 584.583 72.692 584.338 72.695 A 5.236 5.236 0 0 1 584.269 72.696 Q 581.148 72.696 580.517 70.074 A 6.42 6.42 0 0 1 580.356 68.574 L 580.356 60.551 L 578.425 60.551 L 578.425 59.567 L 580.356 58.718 L 581.218 55.838 L 582.399 55.838 L 582.399 58.964 L 586.312 58.964 L 586.312 60.551 L 582.399 60.551 L 582.399 68.488 A 4.113 4.113 0 0 0 582.458 69.21 Q 582.529 69.606 582.684 69.92 A 1.981 1.981 0 0 0 582.977 70.358 A 1.898 1.898 0 0 0 584.144 70.979 A 2.73 2.73 0 0 0 584.565 71.01 A 6.708 6.708 0 0 0 585.547 70.94 A 6.183 6.183 0 0 0 585.61 70.93 A 11.05 11.05 0 0 0 585.905 70.879 Q 586.187 70.827 586.383 70.772 A 3.068 3.068 0 0 0 586.41 70.764 Z M 595.307 70.764 L 595.307 72.327 Q 594.974 72.487 594.328 72.591 A 8.853 8.853 0 0 1 593.751 72.666 Q 593.479 72.692 593.235 72.695 A 5.236 5.236 0 0 1 593.166 72.696 Q 590.045 72.696 589.413 70.074 A 6.42 6.42 0 0 1 589.253 68.574 L 589.253 60.551 L 587.321 60.551 L 587.321 59.567 L 589.253 58.718 L 590.114 55.838 L 591.295 55.838 L 591.295 58.964 L 595.208 58.964 L 595.208 60.551 L 591.295 60.551 L 591.295 68.488 A 4.113 4.113 0 0 0 591.355 69.21 Q 591.425 69.606 591.581 69.92 A 1.981 1.981 0 0 0 591.874 70.358 A 1.898 1.898 0 0 0 593.04 70.979 A 2.73 2.73 0 0 0 593.461 71.01 A 6.708 6.708 0 0 0 594.444 70.94 A 6.183 6.183 0 0 0 594.507 70.93 A 11.05 11.05 0 0 0 594.802 70.879 Q 595.084 70.827 595.279 70.772 A 3.068 3.068 0 0 0 595.307 70.764 Z M 576.441 67.747 A 10.551 10.551 0 0 0 576.628 65.694 A 11.988 11.988 0 0 0 576.624 65.37 Q 576.543 62.387 574.961 60.6 A 5.347 5.347 0 0 0 572.478 58.999 A 6.864 6.864 0 0 0 570.463 58.718 A 7.933 7.933 0 0 0 569.038 58.84 A 5.403 5.403 0 0 0 565.886 60.557 Q 564.791 61.779 564.423 63.643 A 10.606 10.606 0 0 0 564.237 65.694 A 10.218 10.218 0 0 0 564.366 67.35 A 7.556 7.556 0 0 0 565 69.41 A 6.714 6.714 0 0 0 565.149 69.702 A 5.53 5.53 0 0 0 567.166 71.847 A 5.687 5.687 0 0 0 568.471 72.427 A 6.559 6.559 0 0 0 570.377 72.696 A 7.932 7.932 0 0 0 571.762 72.58 A 5.446 5.446 0 0 0 574.967 70.844 A 5.698 5.698 0 0 0 575.645 69.912 Q 576.199 68.965 576.441 67.747 Z M 609.454 67.747 A 10.551 10.551 0 0 0 609.642 65.694 A 11.988 11.988 0 0 0 609.637 65.37 Q 609.556 62.387 607.974 60.6 A 5.347 5.347 0 0 0 605.492 58.999 A 6.864 6.864 0 0 0 603.477 58.718 A 7.933 7.933 0 0 0 602.052 58.84 A 5.403 5.403 0 0 0 598.9 60.557 Q 597.805 61.779 597.437 63.643 A 10.606 10.606 0 0 0 597.251 65.694 A 10.218 10.218 0 0 0 597.379 67.35 A 7.556 7.556 0 0 0 598.014 69.41 A 6.714 6.714 0 0 0 598.162 69.702 A 5.53 5.53 0 0 0 600.179 71.847 A 5.687 5.687 0 0 0 601.485 72.427 A 6.559 6.559 0 0 0 603.391 72.696 A 7.932 7.932 0 0 0 604.776 72.58 A 5.446 5.446 0 0 0 607.98 70.844 A 5.698 5.698 0 0 0 608.659 69.912 Q 609.212 68.965 609.454 67.747 Z M 566.354 65.694 A 10.344 10.344 0 0 0 566.452 67.172 Q 566.561 67.922 566.789 68.53 A 4.285 4.285 0 0 0 567.387 69.632 A 3.348 3.348 0 0 0 569.568 70.916 A 5.073 5.073 0 0 0 570.427 70.985 A 4.744 4.744 0 0 0 571.678 70.83 A 3.302 3.302 0 0 0 573.472 69.638 A 4.385 4.385 0 0 0 574.155 68.308 Q 574.355 67.694 574.443 66.943 A 10.759 10.759 0 0 0 574.512 65.694 A 10.192 10.192 0 0 0 574.415 64.242 Q 574.195 62.716 573.472 61.788 A 3.36 3.36 0 0 0 571.383 60.541 A 5.152 5.152 0 0 0 570.402 60.453 A 4.861 4.861 0 0 0 569.192 60.594 A 3.253 3.253 0 0 0 567.375 61.769 A 4.223 4.223 0 0 0 566.718 63.038 Q 566.525 63.621 566.434 64.334 A 10.794 10.794 0 0 0 566.354 65.694 Z M 599.367 65.694 A 10.344 10.344 0 0 0 599.466 67.172 Q 599.574 67.922 599.802 68.53 A 4.285 4.285 0 0 0 600.401 69.632 A 3.348 3.348 0 0 0 602.581 70.916 A 5.073 5.073 0 0 0 603.44 70.985 A 4.744 4.744 0 0 0 604.692 70.83 A 3.302 3.302 0 0 0 606.485 69.638 A 4.385 4.385 0 0 0 607.168 68.308 Q 607.369 67.694 607.457 66.943 A 10.759 10.759 0 0 0 607.525 65.694 A 10.192 10.192 0 0 0 607.429 64.242 Q 607.208 62.716 606.485 61.788 A 3.36 3.36 0 0 0 604.396 60.541 A 5.152 5.152 0 0 0 603.415 60.453 A 4.861 4.861 0 0 0 602.205 60.594 A 3.253 3.253 0 0 0 600.388 61.769 A 4.223 4.223 0 0 0 599.732 63.038 Q 599.538 63.621 599.447 64.334 A 10.794 10.794 0 0 0 599.367 65.694 Z M 555.526 60.453 A 5.74 5.74 0 0 0 554.414 60.553 Q 553.167 60.799 552.511 61.652 Q 551.7 62.706 551.602 65.029 A 15.737 15.737 0 0 0 551.588 65.694 Q 551.588 68.537 552.535 69.761 A 2.963 2.963 0 0 0 554.039 70.776 Q 554.541 70.933 555.154 70.972 A 6.568 6.568 0 0 0 555.575 70.985 Q 557.457 70.985 558.38 69.613 Q 559.039 68.633 559.228 67.041 A 11.704 11.704 0 0 0 559.303 65.67 Q 559.303 63.174 558.474 61.883 A 3.388 3.388 0 0 0 558.38 61.745 A 2.979 2.979 0 0 0 556.484 60.544 A 4.724 4.724 0 0 0 555.526 60.453 Z" id="bottom_labelLayer" stroke="#777777" fill="#777777" style="stroke:#777777;fill:#777777" vector-effect="non-scaling-stroke"/></g></svg>